<?xml version="1.0" standalone="no"?>
<!DOCTYPE svg PUBLIC "-//W3C//DTD SVG 20010904//EN"
 "http://www.w3.org/TR/2001/REC-SVG-20010904/DTD/svg10.dtd">
<svg version="1.0" xmlns="http://www.w3.org/2000/svg"
 width="512.000000pt" height="512.000000pt" viewBox="0 0 512.000000 512.000000"
 preserveAspectRatio="xMidYMid meet">

<g transform="translate(0.000000,512.000000) scale(0.100000,-0.100000)"
fill="#000000" stroke="none">
<path d="M2695 5109 c-466 -45 -916 -249 -1278 -581 -122 -111 -170 -174 -162
-207 10 -40 35 -61 71 -61 29 0 47 13 128 94 242 239 501 403 803 505 756 257
1585 56 2137 -519 272 -284 452 -624 531 -1008 139 -670 -70 -1374 -554 -1859
-395 -396 -896 -603 -1459 -603 -1036 0 -1903 772 -2031 1810 -16 122 -13 371
4 503 37 282 134 557 284 807 28 47 51 95 51 108 0 29 -42 72 -70 72 -36 0
-57 -17 -101 -87 -156 -248 -274 -579 -313 -881 -18 -141 -21 -406 -6 -532 40
-330 169 -688 339 -945 l60 -90 -107 -107 c-87 -88 -110 -107 -127 -101 -61
22 -60 23 -439 -356 -220 -220 -375 -383 -394 -414 -89 -147 -78 -345 26 -482
128 -168 344 -220 540 -128 42 19 91 60 190 157 120 120 132 134 132 167 0 44
-28 72 -70 72 -24 0 -52 -22 -158 -125 -108 -105 -138 -129 -188 -148 -139
-52 -283 5 -357 144 -32 60 -31 183 2 246 23 45 655 690 676 690 13 0 395
-382 395 -395 0 -6 -52 -62 -115 -125 -100 -100 -115 -119 -115 -147 0 -42 30
-73 72 -73 27 0 52 20 184 151 84 84 155 162 158 175 3 12 1 35 -4 50 -10 26
-6 33 96 135 l106 107 92 -60 c206 -135 486 -250 731 -301 190 -40 307 -50
524 -44 202 5 316 20 481 62 685 173 1245 667 1508 1330 224 565 196 1224 -73
1771 -174 353 -442 657 -775 876 -408 269 -922 395 -1425 347z m-1330 -3746
l146 -147 -100 -100 -101 -101 -147 147 -148 148 100 100 c55 55 100 100 101
100 1 0 68 -66 149 -147z"/>
<path d="M2655 4674 c-739 -115 -1323 -666 -1475 -1394 -63 -303 -43 -635 56
-930 152 -449 479 -820 906 -1028 350 -170 755 -221 1138 -142 119 24 145 35
159 66 16 35 14 48 -10 78 -25 32 -45 33 -165 6 -277 -61 -578 -45 -859 46
-119 38 -327 145 -435 221 -122 87 -287 253 -372 373 -306 432 -386 971 -218
1471 157 470 545 857 1015 1015 202 67 275 78 520 78 191 0 234 -3 325 -22
653 -142 1130 -619 1272 -1272 19 -91 22 -134 22 -325 0 -190 -3 -233 -22
-318 -71 -317 -209 -580 -421 -799 -120 -124 -247 -224 -376 -296 -107 -59
-135 -83 -135 -115 0 -35 37 -77 66 -77 59 0 273 130 425 258 325 273 540 668
605 1106 23 152 14 448 -16 591 -110 517 -423 948 -875 1203 -179 102 -440
187 -645 212 -117 14 -377 11 -485 -6z"/>
<path d="M2000 3401 c-125 -40 -200 -136 -200 -254 0 -70 34 -143 82 -181 18
-13 104 -54 191 -89 87 -36 168 -73 179 -84 82 -73 36 -186 -88 -214 -49 -11
-66 -11 -123 4 -36 10 -82 29 -101 43 -19 13 -51 36 -70 50 -24 18 -42 23 -60
19 -34 -8 -60 -41 -60 -76 0 -65 160 -168 297 -191 189 -31 356 69 394 237 21
96 -33 208 -132 271 -21 13 -102 49 -180 81 -78 31 -151 65 -161 75 -22 22
-24 85 -3 114 50 72 207 71 317 -1 48 -32 82 -32 113 0 54 53 23 103 -102 163
-71 33 -87 37 -173 39 -52 1 -106 -1 -120 -6z"/>
<path d="M2605 3385 l-25 -24 0 -439 c0 -429 0 -440 21 -466 l20 -26 210 0
c196 0 210 1 229 20 27 27 26 81 -1 106 -18 17 -40 19 -175 22 l-154 3 0 130
0 129 130 0 c139 0 171 8 189 47 16 34 14 47 -10 77 -20 26 -21 26 -165 26
l-144 0 0 135 0 135 149 0 c135 0 151 2 175 21 34 27 36 77 3 107 -22 21 -32
22 -226 22 -201 0 -202 0 -226 -25z"/>
<path d="M3500 3387 c-358 -122 -458 -570 -184 -827 106 -99 247 -149 380
-136 404 41 595 512 332 820 -124 144 -347 205 -528 143z m308 -161 c70 -35
128 -95 161 -165 22 -47 26 -70 26 -141 0 -76 -4 -93 -33 -152 -38 -77 -92
-130 -171 -166 -80 -38 -192 -37 -273 0 -126 59 -198 162 -206 297 -8 157 80
291 228 345 71 26 200 17 268 -18z"/>
</g>
</svg>
