<?xml version="1.0" standalone="no"?>
<!DOCTYPE svg PUBLIC "-//W3C//DTD SVG 20010904//EN"
 "http://www.w3.org/TR/2001/REC-SVG-20010904/DTD/svg10.dtd">
<svg version="1.0" xmlns="http://www.w3.org/2000/svg"
 width="512.000000pt" height="512.000000pt" viewBox="0 0 512.000000 512.000000"
 preserveAspectRatio="xMidYMid meet">

<g transform="translate(0.000000,512.000000) scale(0.100000,-0.100000)"
fill="#000000" stroke="none">
<path d="M2535 5100 c-43 -17 -50 -38 -50 -152 0 -103 1 -111 24 -129 13 -10
36 -19 51 -19 15 0 38 9 51 19 23 18 24 26 24 130 0 97 -2 113 -20 130 -25 24
-54 32 -80 21z"/>
<path d="M620 4851 c-73 -23 -147 -88 -176 -156 -24 -58 -31 -220 -11 -267 18
-42 52 -57 96 -42 39 14 51 48 51 155 0 80 3 100 20 121 37 48 44 49 568 46
l492 -3 32 -33 33 -32 3 -483 c2 -324 0 -494 -8 -519 -6 -20 -22 -46 -37 -57
-25 -21 -36 -21 -534 -21 l-507 0 -31 30 -30 31 -3 255 -3 256 -29 25 c-29 24
-31 25 -185 21 -133 -3 -163 -6 -201 -24 -54 -26 -104 -74 -133 -128 l-22 -41
0 -1715 0 -1715 29 -53 c30 -53 62 -83 126 -118 34 -18 74 -19 969 -22 1037
-3 999 -5 1078 63 23 19 53 58 67 87 l26 52 0 1705 c0 1629 -1 1708 -19 1746
-27 60 -68 103 -125 132 -44 23 -67 27 -163 31 l-113 5 0 221 c0 269 -7 304
-80 376 -80 81 -75 80 -654 79 -276 0 -512 -4 -526 -8z m-198 -1033 c4 -241
13 -274 89 -342 81 -74 54 -71 639 -71 511 0 526 1 570 21 54 25 103 72 133
128 20 38 22 57 25 259 l3 217 86 0 c98 0 146 -17 168 -61 13 -24 15 -256 15
-1701 0 -1641 0 -1674 -20 -1705 -12 -21 -32 -36 -57 -43 -27 -8 -306 -10
-945 -8 l-908 3 -32 33 -33 32 0 1689 c0 1675 0 1689 20 1711 32 36 74 49 162
50 l81 0 4 -212z"/>
<path d="M850 2890 c-30 -30 -27 -83 6 -109 25 -20 39 -21 291 -21 295 0 316
4 328 61 5 23 2 38 -13 58 l-19 26 -286 3 c-276 2 -287 2 -307 -18z"/>
<path d="M415 2550 c-25 -28 -23 -76 4 -103 l22 -22 692 -3 c380 -1 702 0 715
3 60 15 81 83 39 123 l-23 22 -716 0 c-704 0 -715 0 -733 -20z"/>
<path d="M445 2230 c-49 -19 -64 -82 -30 -120 18 -20 29 -20 736 -20 l718 0
21 22 c34 37 25 90 -21 113 -24 13 -131 15 -716 14 -378 0 -697 -4 -708 -9z"/>
<path d="M515 1565 c-55 -19 -101 -75 -115 -139 -8 -33 -11 -137 -8 -298 l3
-246 30 -44 c18 -25 49 -52 75 -65 l44 -23 606 0 c568 0 607 2 645 19 47 22
89 64 104 104 7 17 11 130 11 292 0 162 -4 275 -11 292 -15 40 -57 82 -104
104 -38 17 -77 19 -640 18 -489 0 -607 -2 -640 -14z m1233 -147 c17 -17 17
-489 0 -506 -15 -15 -1164 -17 -1188 -2 -13 8 -15 47 -15 255 0 208 2 247 15
255 24 15 1173 13 1188 -2z"/>
<path d="M3416 4844 c-32 -10 -64 -31 -96 -63 -73 -73 -80 -108 -80 -377 l0
-221 -112 -5 c-90 -4 -122 -9 -154 -26 -64 -33 -100 -68 -128 -124 l-26 -52 0
-1706 0 -1706 26 -52 c14 -29 44 -68 67 -87 76 -65 76 -65 728 -65 416 0 595
3 613 11 51 23 55 103 7 128 -13 8 -212 11 -606 11 -633 0 -633 0 -668 53 -16
25 -17 140 -17 1702 0 1448 2 1680 15 1704 22 44 70 61 168 61 l86 0 3 -217
c3 -201 5 -221 25 -259 29 -54 79 -102 133 -128 44 -21 56 -21 570 -21 l525 0
47 23 c26 13 63 41 82 63 64 71 69 91 74 327 l4 214 93 -4 c101 -3 136 -19
162 -69 19 -35 18 -3343 0 -3379 -7 -13 -28 -35 -46 -47 -32 -22 -44 -23 -201
-23 -161 0 -167 -1 -188 -23 -31 -33 -29 -80 5 -107 27 -21 36 -22 213 -18
167 3 189 6 226 25 53 28 99 74 127 127 l22 41 0 1715 0 1715 -22 41 c-57 107
-131 146 -284 152 l-107 4 -4 237 c-3 196 -7 243 -22 276 -21 50 -78 110 -131
138 -39 22 -48 22 -560 24 -440 2 -528 0 -569 -13z m1058 -148 c69 -29 66 -6
66 -558 0 -364 -3 -504 -12 -523 -25 -55 -25 -55 -565 -55 -547 0 -526 -2
-558 60 -23 44 -22 977 1 1025 30 65 27 65 557 65 386 0 484 -3 511 -14z"/>
<path d="M3685 4565 l-25 -24 0 -411 c0 -393 1 -411 19 -429 29 -29 76 -34
235 -29 113 4 150 9 187 25 110 49 174 146 173 263 -1 78 -19 124 -73 183
l-40 43 22 45 c16 32 22 61 22 109 -1 104 -52 180 -150 226 -45 22 -64 24
-198 24 -144 0 -149 -1 -172 -25z m310 -139 c65 -28 79 -111 26 -158 -29 -26
-37 -28 -121 -28 l-90 0 0 100 0 100 75 0 c43 0 90 -6 110 -14z m71 -362 c52
-35 70 -119 37 -175 -28 -46 -67 -59 -187 -59 l-106 0 0 125 0 125 115 0 c91
0 121 -4 141 -16z"/>
<path d="M1096 4568 c-38 -34 -330 -807 -317 -840 13 -34 37 -51 71 -51 43 0
64 24 96 109 l29 74 178 -2 178 -3 32 -80 c34 -84 65 -113 107 -100 29 9 60
45 60 70 0 12 -52 158 -115 326 -198 523 -184 488 -215 504 -41 21 -75 19
-104 -7z m118 -401 c31 -81 56 -150 56 -152 0 -3 -52 -5 -115 -5 -72 0 -115 4
-115 10 0 6 20 63 44 128 25 64 50 130 56 146 6 16 12 27 14 25 2 -2 29 -71
60 -152z"/>
<path d="M2513 4546 l-28 -24 -3 -169 c-4 -194 6 -241 51 -257 17 -6 37 -6 55
0 44 16 54 63 50 257 l-3 169 -28 24 c-15 13 -37 24 -47 24 -10 0 -32 -11 -47
-24z"/>
<path d="M2513 3840 c-29 -27 -36 -79 -31 -260 l3 -152 28 -24 c15 -13 37 -24
47 -24 10 0 32 11 47 24 l28 24 3 152 c2 84 1 172 -3 196 -7 51 -37 84 -75 84
-14 0 -36 -9 -47 -20z"/>
<path d="M2511 3131 c-27 -27 -33 -84 -29 -259 4 -173 11 -192 78 -192 67 0
74 19 78 192 6 228 -8 278 -78 278 -16 0 -39 -9 -49 -19z"/>
<path d="M3312 2999 c-25 -13 -55 -39 -70 -62 l-27 -41 0 -471 0 -471 28 -42
c48 -74 77 -82 297 -82 220 0 249 8 297 82 l28 42 3 459 c3 453 2 460 -19 504
-13 27 -37 55 -62 71 -40 27 -43 27 -236 30 -184 2 -199 1 -239 -19z m396
-141 c17 -17 17 -849 0 -866 -17 -17 -319 -17 -336 0 -17 17 -17 849 0 866 8
8 60 12 168 12 108 0 160 -4 168 -12z"/>
<path d="M4182 2999 c-25 -13 -55 -39 -70 -62 l-27 -41 -3 -459 c-3 -454 -2
-460 19 -504 15 -30 37 -55 67 -74 l46 -29 183 0 c132 0 193 4 216 14 44 18
94 77 107 126 7 27 10 186 8 478 -3 491 0 470 -81 536 l-39 31 -191 3 c-180 2
-195 1 -235 -19z m388 -148 c6 -13 10 -165 10 -426 0 -261 -4 -413 -10 -426
-10 -17 -23 -19 -163 -19 -106 0 -157 4 -165 12 -17 17 -17 849 0 866 8 8 59
12 165 12 140 0 153 -2 163 -19z"/>
<path d="M2504 2419 c-17 -19 -19 -41 -22 -188 -4 -192 6 -239 51 -255 17 -6
37 -6 55 0 44 16 54 63 50 255 -3 191 -10 209 -78 209 -25 0 -43 -7 -56 -21z"/>
<path d="M2513 1716 l-28 -24 -3 -152 c-2 -84 -1 -172 3 -196 16 -112 134
-112 150 0 4 24 5 112 3 196 l-3 152 -28 24 c-15 13 -37 24 -47 24 -10 0 -32
-11 -47 -24z"/>
<path d="M3235 1555 c-30 -30 -32 -64 -4 -99 l20 -26 710 0 c482 0 717 3 730
11 48 25 44 105 -7 128 -18 8 -226 11 -725 11 l-700 0 -24 -25z"/>
<path d="M3235 1215 c-14 -13 -25 -36 -25 -50 0 -14 11 -37 25 -50 l24 -25
705 0 c387 0 712 3 721 6 8 4 23 20 31 36 13 25 13 35 3 59 -6 17 -20 34 -30
39 -11 6 -291 10 -724 10 l-706 0 -24 -25z"/>
<path d="M2511 1011 c-27 -27 -33 -84 -29 -261 l3 -152 28 -24 c15 -13 37 -24
47 -24 10 0 32 11 47 24 l28 24 3 152 c6 230 -8 280 -78 280 -16 0 -39 -9 -49
-19z"/>
<path d="M3690 880 c-33 -33 -30 -75 6 -107 25 -23 30 -23 278 -23 241 0 255
1 280 21 34 27 36 77 3 107 -23 21 -30 22 -285 22 -249 0 -263 -1 -282 -20z"/>
<path d="M2509 301 c-23 -18 -24 -26 -24 -130 0 -100 2 -112 22 -132 29 -29
77 -29 106 0 20 20 22 32 22 132 0 104 -1 112 -24 130 -13 10 -36 19 -51 19
-15 0 -38 -9 -51 -19z"/>
</g>
</svg>
