<?xml version="1.0" standalone="no"?>
<!DOCTYPE svg PUBLIC "-//W3C//DTD SVG 20010904//EN"
 "http://www.w3.org/TR/2001/REC-SVG-20010904/DTD/svg10.dtd">
<svg version="1.0" xmlns="http://www.w3.org/2000/svg"
 width="512.000000pt" height="512.000000pt" viewBox="0 0 512.000000 512.000000"
 preserveAspectRatio="xMidYMid meet">

<g transform="translate(0.000000,512.000000) scale(0.100000,-0.100000)"
fill="#000000" stroke="none">
<path d="M845 5029 c-92 -18 -205 -81 -279 -155 -111 -112 -166 -250 -166
-420 0 -70 -1 -72 -30 -84 -42 -17 -104 -90 -118 -138 -28 -91 -8 -167 63
-237 56 -57 102 -75 189 -75 l56 0 0 -56 c0 -89 18 -132 79 -194 l54 -54 -19
-55 -19 -55 -100 -31 c-55 -17 -120 -42 -145 -54 -200 -102 -329 -319 -330
-553 l0 -68 83 0 82 0 0 -227 c0 -167 5 -257 18 -338 19 -123 66 -320 95 -406
l20 -56 -130 -129 c-71 -71 -138 -146 -149 -167 -19 -36 -19 -59 -17 -666 3
-618 3 -630 24 -657 11 -15 33 -37 48 -48 27 -21 37 -21 646 -21 609 0 619 0
646 21 64 47 69 62 72 225 3 111 7 149 15 145 102 -45 302 -121 372 -141 517
-149 1040 -121 1535 81 74 30 140 57 147 60 8 4 12 -34 15 -145 3 -163 8 -178
72 -225 27 -21 37 -21 646 -21 609 0 619 0 646 21 15 11 37 33 48 48 21 27 21
37 21 646 0 609 0 619 -21 646 -47 64 -62 69 -225 72 -82 2 -149 5 -149 6 0 2
22 55 49 117 83 194 142 406 173 624 19 136 16 484 -6 625 -31 204 -82 387
-152 554 -34 80 -34 82 -18 118 l16 36 118 4 c128 3 149 11 194 72 20 26 21
42 24 349 4 378 2 388 -72 462 -71 70 -93 75 -350 75 l-216 0 0 136 c0 78 -5
154 -12 178 -16 55 -99 138 -154 154 -59 17 -1049 17 -1108 0 -53 -16 -141
-102 -151 -147 l-7 -34 -62 7 c-258 29 -386 33 -557 16 -193 -19 -428 -72
-580 -130 -44 -16 -77 -20 -179 -20 l-125 0 -20 37 c-28 53 -127 156 -186 194
-113 72 -283 104 -414 78z m279 -187 c36 -17 86 -50 112 -74 l47 -43 -151 -5
c-132 -4 -154 -8 -178 -26 -60 -44 -69 -67 -72 -185 l-4 -109 -160 0 -161 0 5
89 c9 152 83 273 207 339 78 42 122 52 213 48 61 -3 92 -11 142 -34z m3091 13
l25 -24 0 -536 0 -535 -249 0 -249 0 -12 30 c-28 68 -129 130 -210 130 -81 0
-182 -62 -210 -130 l-12 -30 -89 0 -89 0 0 535 0 536 25 24 24 25 511 0 511 0
24 -25z m-1365 -155 c36 -5 75 -12 87 -15 l22 -5 3 -489 c3 -477 4 -490 24
-517 45 -61 66 -69 194 -72 l118 -4 12 -29 c28 -67 129 -129 210 -129 81 0
182 62 210 130 l12 30 258 0 258 0 12 -30 c17 -42 90 -104 138 -118 22 -7 58
-12 81 -12 41 0 43 -1 65 -52 39 -89 97 -277 121 -398 94 -460 38 -921 -166
-1358 l-52 -111 -378 -3 c-363 -3 -379 -4 -405 -24 -15 -11 -37 -33 -48 -48
-20 -26 -21 -42 -24 -405 l-3 -378 -111 -52 c-611 -284 -1251 -281 -1877 10
l-91 42 -2 618 c-3 606 -3 618 -24 645 -11 15 -33 37 -48 48 -26 20 -41 21
-417 24 -431 3 -417 5 -490 -65 l-36 -34 -21 73 c-67 233 -94 502 -75 746 l6
82 713 0 714 0 0 68 c-1 186 -85 369 -222 481 -70 57 -132 88 -253 126 l-100
31 -19 55 -19 55 54 54 c61 62 79 105 79 194 l0 56 56 0 c87 0 133 18 190 75
58 58 80 117 71 194 l-6 49 39 6 c46 7 98 48 116 93 9 21 14 73 14 147 l0 114
52 17 c135 44 316 80 493 99 68 7 397 -2 465 -14z m-1170 -220 l0 -80 -320 0
-320 0 0 80 0 80 320 0 320 0 0 -80z m3175 -105 c21 -20 25 -34 25 -80 l0 -55
-160 0 -160 0 0 -80 0 -80 160 0 160 0 0 -160 0 -160 -89 0 -89 0 -12 30 c-18
44 -92 105 -145 120 -26 7 -66 10 -95 7 l-50 -6 0 244 0 245 215 0 c216 0 216
0 240 -25z m-4295 -215 l0 -80 -55 0 c-67 0 -105 29 -105 80 0 51 38 80 105
80 l55 0 0 -80z m640 -135 c0 -286 19 -265 -240 -265 -259 0 -240 -21 -240
265 l0 215 240 0 240 0 0 -215z m295 190 c16 -15 25 -36 25 -55 0 -51 -38 -80
-105 -80 l-55 0 0 80 0 80 55 0 c46 0 60 -4 80 -25z m2080 -480 c16 -15 25
-36 25 -55 0 -19 -9 -40 -25 -55 -15 -16 -36 -25 -55 -25 -19 0 -40 9 -55 25
-16 15 -25 36 -25 55 0 19 9 40 25 55 15 16 36 25 55 25 19 0 40 -9 55 -25z
m960 0 c16 -15 25 -36 25 -55 0 -19 -9 -40 -25 -55 -15 -16 -36 -25 -55 -25
-19 0 -40 9 -55 25 -16 15 -25 36 -25 55 0 19 9 40 25 55 15 16 36 25 55 25
19 0 40 -9 55 -25z m-3454 -192 l18 -52 -70 -23 -69 -22 -69 22 -70 23 15 42
c8 23 16 48 19 55 3 9 31 12 106 10 l102 -3 18 -52z m-308 -255 c-20 -21 -40
-38 -44 -38 -4 0 -21 19 -39 43 l-31 42 27 11 c21 9 38 8 76 -4 l48 -16 -37
-38z m477 34 c-5 -10 -20 -30 -34 -47 l-25 -30 -41 40 -41 40 48 16 c58 19
109 9 93 -19z m-644 -183 l106 -141 124 123 124 124 124 -124 124 -123 106
141 c59 77 110 141 115 141 16 0 101 -63 135 -100 39 -44 90 -138 101 -187 l7
-33 -712 0 -712 0 7 33 c11 50 62 143 103 189 34 38 116 98 134 98 4 0 55 -64
114 -141z m754 -2099 l0 -800 -560 0 -560 0 0 559 0 560 189 3 c207 3 216 6
265 72 19 25 21 44 24 217 l3 189 320 0 319 0 0 -800z m-800 580 l0 -100 -102
0 -103 0 100 100 c55 55 101 100 102 100 2 0 3 -45 3 -100z m3520 -420 l0
-160 240 0 240 0 0 160 0 160 160 0 160 0 0 -560 0 -560 -560 0 -560 0 0 560
0 560 160 0 160 0 0 -160z m320 80 l0 -80 -80 0 -80 0 0 80 0 80 80 0 80 0 0
-80z"/>
<path d="M3112 3134 l-103 -115 -51 41 c-255 203 -617 181 -848 -50 -250 -250
-252 -649 -5 -895 39 -38 96 -85 127 -103 252 -149 568 -111 772 93 195 194
248 462 141 710 l-34 78 114 126 115 126 -57 52 c-32 29 -60 52 -63 52 -3 0
-51 -51 -108 -115z m-437 -109 c71 -19 164 -67 198 -103 l25 -27 -170 -188
-171 -189 -86 86 c-48 47 -91 86 -96 86 -13 0 -105 -92 -105 -104 0 -12 281
-296 292 -296 4 0 103 106 220 236 l212 237 15 -34 c7 -19 18 -67 24 -107 35
-235 -121 -465 -358 -527 -250 -65 -513 94 -580 350 -89 342 238 669 580 580z"/>
<path d="M880 1440 l0 -80 160 0 160 0 0 80 0 80 -160 0 -160 0 0 -80z"/>
<path d="M400 1120 l0 -80 400 0 400 0 0 80 0 80 -400 0 -400 0 0 -80z"/>
<path d="M400 800 l0 -80 400 0 400 0 0 80 0 80 -400 0 -400 0 0 -80z"/>
<path d="M400 480 l0 -80 400 0 400 0 0 80 0 80 -400 0 -400 0 0 -80z"/>
</g>
</svg>
