<?xml version="1.0" encoding="UTF-8"?>
<svg version="1.1" xmlns="http://www.w3.org/2000/svg" width="512" height="512">
<path d="M0 0 C4.62453106 0.01141885 9.24883249 0.00457951 13.87335587 -0.00686932 C43.09930509 -0.06839396 72.11916309 0.82874367 101.17114258 4.27319336 C103.782472 4.57954348 106.3958164 4.86085532 109.01000977 5.14160156 C123.94477465 6.82481965 139.10822135 9.59678428 152.79125977 16.07324219 C153.52731445 16.41162109 154.26336914 16.75 155.02172852 17.09863281 C161.57377573 20.19710969 167.54583264 23.92187898 173.35375977 28.26074219 C174.60672852 29.18113281 174.60672852 29.18113281 175.88500977 30.12011719 C192.87061329 43.12807938 204.63541494 58.85523119 213.35375977 78.26074219 C213.8371582 79.32808594 214.32055664 80.39542969 214.81860352 81.49511719 C222.83473639 100.69485185 223.82719931 121.75519727 225.35375977 142.26074219 C225.4070343 142.96475159 225.46030884 143.66876099 225.51519775 144.394104 C226.87864966 162.55762287 227.58747564 180.73405851 227.76016235 198.94812012 C227.78067451 200.88580437 227.80912519 202.82342306 227.84603882 204.76086426 C228.21532024 225.70397338 228.21532024 225.70397338 220.67407227 234.13964844 C215.71347753 239.06322381 209.26694463 241.30588844 202.35375977 241.63574219 C195.96901087 241.34321385 189.38670352 239.32943898 184.68823242 234.84814453 C177.54160892 226.34698354 177.53512298 217.07210079 177.29345703 206.5005188 C177.20431366 202.63939154 177.06285339 198.78067738 176.92401123 194.92106628 C176.85053463 192.87558803 176.7794877 190.83002119 176.71075439 188.78437805 C176.33979931 178.00356132 175.7179723 167.2410641 175.0491333 156.47512817 C174.85956275 153.41685952 174.67641445 150.35825698 174.49389648 147.29956055 C173.91679184 137.81064071 173.25342791 128.32913651 172.42797852 118.85839844 C172.36094727 118.01785416 172.29391602 117.17730988 172.22485352 116.31129456 C170.86490983 101.57872579 164.15894007 87.41106308 153.35375977 77.26074219 C153.35375977 76.60074219 153.35375977 75.94074219 153.35375977 75.26074219 C152.48750977 74.86628906 152.48750977 74.86628906 151.60375977 74.46386719 C149.23530032 73.19739929 147.40723037 71.73752428 145.35375977 70.01074219 C130.29885314 58.21691469 112.52739294 55.78950661 94.09472656 53.87768555 C91.18662087 53.57535893 88.28102382 53.25451057 85.37524414 52.93066406 C83.4580452 52.72318342 81.54073044 52.51676975 79.62329102 52.31152344 C78.78925247 52.21986404 77.95521393 52.12820465 77.09590149 52.0337677 C61.04054215 50.39018454 44.90952334 50.09973211 28.78344727 50.09277344 C26.96534197 50.08954018 25.14723691 50.08617479 23.32913208 50.08268738 C19.5425761 50.07675955 15.7560427 50.07484059 11.96948242 50.07543945 C8.16735017 50.07552021 4.3653397 50.06864669 0.56323242 50.05493164 C-29.30107967 49.94901287 -59.064524 50.48716206 -88.76806641 53.90087891 C-90.90770451 54.14415179 -93.04903826 54.36475376 -95.19116211 54.58496094 C-113.22914396 56.5390693 -129.18900772 60.94240167 -143.64624023 72.26074219 C-144.69811523 73.02386719 -145.74999023 73.78699219 -146.83374023 74.57324219 C-162.1881741 89.24525677 -167.57187488 109.15852427 -169.27124023 129.63574219 C-169.39037703 130.97424637 -169.51001951 132.31270562 -169.63012695 133.65112305 C-170.48218511 143.36462904 -171.16285253 153.09170597 -171.77124023 162.82324219 C-171.84681152 164.0244873 -171.92238281 165.22573242 -172.00024414 166.46337891 C-172.24698479 170.72814908 -172.45696709 174.99307497 -172.64624023 179.26074219 C-172.71139328 180.72207077 -172.71139328 180.72207077 -172.77786255 182.21292114 C-173.78035074 205.66299549 -173.8464625 229.10544584 -173.83374023 252.57324219 C-173.83356085 254.04135157 -173.83356085 254.04135157 -173.83337784 255.53911972 C-179.50827781 350.06430787 -179.50827781 350.06430787 -146.64624023 433.26074219 C-129.45254126 448.95280806 -108.21965446 452.08502935 -85.95874023 454.32324219 C-85.14072937 454.40822968 -84.32271851 454.49321716 -83.47991943 454.58078003 C-67.38399357 456.23742385 -51.27565332 457.02287529 -35.10449219 457.48950195 C-34.20566818 457.52019775 -33.30684418 457.55089355 -32.38078308 457.58251953 C-30.71366278 457.63915041 -29.04613286 457.68528376 -27.37837219 457.71801758 C-18.96664761 458.01930699 -11.5947066 460.04189099 -5.64624023 466.26074219 C-1.02550331 472.69721584 0.81306094 478.66300914 0.16625977 486.54589844 C-1.03004419 493.81095267 -4.90925145 498.66060285 -10.14624023 503.63574219 C-15.15227083 506.88966207 -19.82938359 507.51548442 -25.72045898 507.52636719 C-26.39249359 507.52923233 -27.0645282 507.53209747 -27.75692749 507.53504944 C-29.94941901 507.53943197 -32.14130835 507.52680907 -34.33374023 507.51074219 C-35.09387421 507.50730804 -35.85400818 507.5038739 -36.63717651 507.50033569 C-58.19602215 507.38668849 -79.43627676 505.39012673 -100.83374023 502.88574219 C-102.13506393 502.73729355 -102.13506393 502.73729355 -103.462677 502.58584595 C-138.87691115 498.50351469 -170.34021871 484.94821806 -193.11352539 456.42285156 C-211.32800278 431.94572202 -217.28104875 404.74178552 -219.70874023 374.88574219 C-219.79273071 373.86323364 -219.87672119 372.8407251 -219.96325684 371.78723145 C-226.38206433 292.68263696 -226.13751858 211.9843118 -219.77124023 132.88574219 C-219.69619263 131.9273645 -219.62114502 130.96898682 -219.54382324 129.98156738 C-216.42046156 90.98620171 -204.51245784 58.61912703 -174.64624023 32.26074219 C-162.17484923 21.99928462 -147.2191974 14.39411814 -131.64624023 10.26074219 C-130.65865723 9.99849854 -130.65865723 9.99849854 -129.65112305 9.73095703 C-117.83537351 6.74200379 -105.73769719 5.44797765 -93.64624023 4.13574219 C-92.92516083 4.05524628 -92.20408142 3.97475037 -91.46115112 3.89181519 C-61.06642625 0.54908907 -30.54863155 -0.07598664 0 0 Z " fill="#000000" transform="translate(238.646240234375,-0.2607421875)"/>
<path d="M0 0 C27.22510752 21.85809492 45.0262834 53.07985545 49.31738281 87.84082031 C52.70351176 122.34385105 44.11397944 156.84622534 22.70410156 184.36816406 C1.09514867 210.19927441 -28.10360988 230.43012629 -62.29589844 234.36816406 C-68.74679358 234.78728161 -75.20874543 234.80864164 -81.67089844 234.80566406 C-83.00899063 234.80626831 -83.00899063 234.80626831 -84.37411499 234.80688477 C-97.9062724 234.77162775 -110.48172315 234.09459018 -123.29589844 229.36816406 C-124.10172363 229.07876953 -124.90754883 228.789375 -125.73779297 228.49121094 C-141.02965915 222.86318283 -154.98680658 215.10671788 -167.29589844 204.36816406 C-168.23820312 203.57023438 -169.18050781 202.77230469 -170.15136719 201.95019531 C-189.23295345 185.4403939 -201.75853269 163.84151863 -209.04589844 139.80566406 C-209.34415527 138.83415405 -209.34415527 138.83415405 -209.6484375 137.84301758 C-212.83577633 126.76523831 -213.66125491 115.59874243 -213.60839844 104.11816406 C-213.60348389 102.84690674 -213.59856934 101.57564941 -213.59350586 100.26586914 C-213.47389791 90.64018903 -212.68585399 81.68510461 -210.29589844 72.36816406 C-209.82023438 70.46744141 -209.82023438 70.46744141 -209.33496094 68.52832031 C-200.33847431 35.40979643 -177.9652499 6.55094721 -148.29589844 -10.63183594 C-100.90007368 -36.78089451 -42.90618832 -33.30069099 0 0 Z M-145.92236328 50.73583984 C-149.68916422 55.21234732 -152.54475223 60.21858269 -155.29589844 65.36816406 C-155.77671875 66.24859375 -156.25753906 67.12902344 -156.75292969 68.03613281 C-166.06727857 86.63669055 -167.40490841 109.58756676 -161.03222656 129.32861328 C-152.73033803 152.32396368 -136.83618721 169.17978783 -114.96386719 179.79394531 C-94.99807979 188.36286152 -72.28645245 189.13104597 -52.04589844 181.05566406 C-50.11844099 180.18329013 -48.20121876 179.287883 -46.29589844 178.36816406 C-45.39484375 177.94921875 -44.49378906 177.53027344 -43.56542969 177.09863281 C-24.96198471 167.78348792 -10.56818221 150.76040837 -3.53271484 131.25195312 C3.60398831 108.76149264 1.72331211 86.56720294 -8.29589844 65.36816406 C-19.05079799 44.90959574 -37.63348853 30.82793554 -59.42089844 23.93066406 C-91.3783925 14.67544176 -124.06132211 26.5474431 -145.92236328 50.73583984 Z " fill="#000000" transform="translate(447.2958984375,277.6318359375)"/>
<path d="M0 0 C1.37886731 -0.00551503 1.37886731 -0.00551503 2.78559053 -0.01114148 C5.87304702 -0.02217504 8.96046986 -0.02602162 12.04794312 -0.02983093 C14.2588817 -0.03609585 16.46981924 -0.04274268 18.68075562 -0.04974365 C25.94816352 -0.07078379 33.21557164 -0.08114629 40.48300171 -0.09111023 C42.98523342 -0.09515786 45.48746502 -0.09927478 47.9896965 -0.10346031 C58.39881628 -0.12032913 68.80793448 -0.13496354 79.21706581 -0.14220905 C81.91687649 -0.14411883 84.61668716 -0.14603918 87.3164978 -0.147995 C88.32298854 -0.14872061 88.32298854 -0.14872061 89.34981243 -0.14946087 C100.21308625 -0.15775653 111.0762498 -0.18308643 121.93947549 -0.21557567 C133.10190854 -0.24868657 144.26430174 -0.26632899 155.42678773 -0.26985329 C161.69030583 -0.27220313 167.95364959 -0.28115528 174.21712112 -0.30631447 C180.11210225 -0.3296108 186.00679445 -0.33382193 191.90180969 -0.32355309 C194.06167436 -0.32305799 196.22155333 -0.3293705 198.38137436 -0.34310913 C201.33825226 -0.36086062 204.2940969 -0.35370554 207.25097656 -0.34057617 C208.52222269 -0.35703004 208.52222269 -0.35703004 209.81915057 -0.37381631 C216.98698654 -0.29738148 223.64395677 1.59387135 229.40878296 5.97138977 C234.20965073 11.79839721 236.57588293 17.12864576 237.38143921 24.64717102 C236.54095062 32.49173117 234.08442079 38.91222044 228.00643921 44.14717102 C221.1364955 48.50210643 215.10254651 49.29607419 207.05084229 49.29434204 C206.13568096 49.29801873 205.22051964 49.30169542 204.27762616 49.30548352 C201.20398917 49.31651678 198.130386 49.32036361 195.05673218 49.32417297 C192.85564568 49.33043792 190.65456023 49.33708475 188.45347595 49.34408569 C181.2185337 49.36512558 173.98359123 49.37548831 166.74862671 49.38545227 C164.257539 49.38949991 161.7664514 49.39361684 159.27536392 49.39780235 C148.9125673 49.41467115 138.54977226 49.42930554 128.18696404 49.43655109 C125.49918491 49.43846087 122.8114058 49.44038122 120.12362671 49.44233704 C119.12162189 49.44306265 119.12162189 49.44306265 118.09937455 49.44380292 C107.28459944 49.45209851 96.4699351 49.47742832 85.65520833 49.50991771 C74.54249299 49.5430291 63.42982371 49.56067108 52.31705773 49.56419533 C46.08148498 49.56654513 39.84608735 49.57549667 33.61056137 49.60065651 C27.74184469 49.62395359 21.87341823 49.62816367 16.00466728 49.61789513 C13.85447791 49.61740005 11.70427418 49.62371203 9.55412865 49.63745117 C6.61038644 49.65520392 3.66768198 49.64804699 0.72393799 49.63491821 C-0.11966848 49.64588746 -0.96327496 49.6568567 -1.83244526 49.66815835 C-9.83131134 49.58249091 -16.97746052 47.30004617 -22.93106079 41.83467102 C-28.70056669 35.37119154 -29.56032378 29.82731022 -29.34512329 21.30732727 C-28.57283542 14.36531738 -25.31531302 9.60259149 -19.99356079 5.14717102 C-13.2557999 0.65533043 -7.96374432 -0.00170548 0 0 Z " fill="#000000" transform="translate(136.99356079101563,132.8528289794922)"/>
<path d="M0 0 C1.94294449 -0.00788544 1.94294449 -0.00788544 3.92514038 -0.01593018 C7.45823572 -0.02953774 10.9910665 -0.02433254 14.52416611 -0.01479292 C18.23332141 -0.0071621 21.94245507 -0.01425139 25.65161133 -0.01895142 C31.87878457 -0.02439905 38.10585084 -0.01724351 44.33300781 -0.00292969 C51.51763768 0.01339498 58.70201209 0.00810576 65.88663578 -0.0084089 C72.07118182 -0.02205216 78.25565125 -0.0239296 84.44020748 -0.0160929 C88.12697978 -0.01143193 91.81363227 -0.01074784 95.50039673 -0.02070236 C99.61239588 -0.03103085 103.72395925 -0.01668846 107.8359375 0 C109.0476059 -0.00607269 110.25927429 -0.01214539 111.50765991 -0.0184021 C119.81037949 0.04392339 127.12122023 0.84878839 133.53125 6.76708984 C139.08775507 13.26272253 140.69731884 19.89311193 140.33984375 28.33349609 C139.38975794 35.21282116 136.22564231 39.94454991 130.91796875 44.38818359 C125.19877375 48.27986571 120.24864748 49.50718749 113.4039917 49.52862549 C112.30787064 49.53433563 111.21174957 49.54004578 110.08241272 49.54592896 C108.88958176 49.54704681 107.69675079 49.54816467 106.46777344 49.54931641 C104.57178658 49.55676376 104.57178658 49.55676376 102.63749695 49.56436157 C99.17655581 49.57744622 95.71563404 49.58392289 92.25467205 49.58837223 C90.0891742 49.5913095 87.92368156 49.59541555 85.75818634 49.5998764 C78.9734607 49.61354137 72.18874707 49.62321275 65.40400863 49.62707829 C57.58950256 49.63155583 49.77517169 49.64909369 41.96071887 49.67807889 C35.9087192 49.69974249 29.85676866 49.70978508 23.80473065 49.71111941 C20.19554473 49.71216416 16.58652372 49.718001 12.97737885 49.73593903 C8.94672631 49.75558328 4.91643743 49.75111218 0.88574219 49.74462891 C-0.89135887 49.75845108 -0.89135887 49.75845108 -2.70436096 49.77255249 C-11.89909831 49.72631185 -19.6553122 48.57522382 -26.578125 42.13427734 C-30.74348688 37.29812991 -32.75369864 31.60584322 -33.39453125 25.32568359 C-32.81202469 17.9861009 -30.83032343 11.49683302 -25.33203125 6.38818359 C-17.74529792 0.01277744 -9.43567286 -0.04729012 0 0 Z " fill="#000000" transform="translate(140.08203125,234.61181640625)"/>
<path d="M0 0 C5.04885564 3.02931338 8.65629405 7.96888215 10.5 13.5 C10.5853013 16.37694671 10.61585645 19.22900182 10.59765625 22.10546875 C10.5962413 22.94467361 10.59482635 23.78387848 10.59336853 24.64851379 C10.58777215 27.32821216 10.57522035 30.0078269 10.5625 32.6875 C10.55748453 34.50455608 10.55292171 36.32161348 10.54882812 38.13867188 C10.53780391 42.59248013 10.52054178 47.04622589 10.5 51.5 C11.29583496 51.47381592 12.09166992 51.44763184 12.91162109 51.4206543 C16.56587471 51.31583003 20.21981079 51.25140191 23.875 51.1875 C25.12667969 51.14560547 26.37835938 51.10371094 27.66796875 51.06054688 C35.72841699 50.95504363 41.84290227 51.72086753 48.5 56.5 C50.75390625 58.8515625 50.75390625 58.8515625 52.0625 61.125 C52.51753906 61.88039063 52.97257812 62.63578125 53.44140625 63.4140625 C56.466745 69.37543111 56.43469967 76.33771646 54.5 82.6875 C51.99905963 88.58684738 46.33243806 93.07263546 40.5 95.5 C37.83294678 95.77415466 37.83294678 95.77415466 34.75683594 95.80639648 C33.60173523 95.82238388 32.44663452 95.83837128 31.25653076 95.85484314 C29.38931366 95.86288719 29.38931366 95.86288719 27.484375 95.87109375 C25.55697479 95.88463646 25.55697479 95.88463646 23.59063721 95.89845276 C20.8704579 95.9149261 18.15040139 95.92263934 15.43017578 95.92553711 C11.96219545 95.93090817 8.49538704 95.96853925 5.02773666 96.01428127 C1.70079025 96.05137846 -1.62597904 96.05257488 -4.953125 96.05859375 C-6.18983948 96.07812607 -7.42655396 96.09765839 -8.70074463 96.11778259 C-16.92931526 96.07495428 -22.0303775 94.7624952 -28.01300049 89.05711365 C-32.60310043 84.02008834 -33.74633727 78.81185785 -33.7746582 72.16259766 C-33.78419022 70.927565 -33.79372223 69.69253235 -33.80354309 68.42007446 C-33.8032816 67.08473685 -33.80234427 65.74939922 -33.80078125 64.4140625 C-33.80467385 63.0293261 -33.80900967 61.64459088 -33.81376648 60.25985718 C-33.8212083 57.36330285 -33.82095257 54.46687044 -33.81567383 51.5703125 C-33.80988583 47.87625252 -33.82680336 44.18269503 -33.8500185 40.48871803 C-33.86482153 37.63006724 -33.86561861 34.77153558 -33.86250877 31.91285324 C-33.86326516 29.89448586 -33.87708555 27.87613685 -33.89118958 25.8578186 C-33.85259813 18.16692106 -33.79447943 11.38302093 -28.59765625 5.2578125 C-27.92605469 4.71898437 -27.25445312 4.18015625 -26.5625 3.625 C-25.89347656 3.07070313 -25.22445313 2.51640625 -24.53515625 1.9453125 C-17.62892963 -2.95930142 -7.81123144 -3.42119827 0 0 Z " fill="#000000" transform="translate(374.5,310.5)"/>
</svg>
