<?xml version="1.0" encoding="UTF-8"?>
<svg version="1.1" xmlns="http://www.w3.org/2000/svg" width="512" height="512">
<path d="M0 0 C0.78632813 0.17692383 1.57265625 0.35384766 2.3828125 0.53613281 C30.95460748 7.10084285 57.10939805 19.66354923 80 38 C80.54333984 38.43505859 81.08667969 38.87011719 81.64648438 39.31835938 C101.99037494 55.76513065 118.06547048 75.72396106 130 99 C130.34369629 99.66290039 130.68739258 100.32580078 131.04150391 101.00878906 C153.76649238 145.34970979 157.34040307 198.07987421 142.21826172 245.44873047 C138.44737553 256.788469 133.6893674 267.50053107 128 278 C127.66323242 278.62277832 127.32646484 279.24555664 126.97949219 279.88720703 C122.7778837 287.58747034 118.20870417 294.93569498 113 302 C114.379194 305.07276291 115.97709305 307.26573853 118.29711914 309.69873047 C119.30440819 310.75904984 119.30440819 310.75904984 120.33204651 311.84078979 C123.41449428 315.02577731 126.50305249 318.20422778 129.61010742 321.36523438 C131.24432462 323.03768363 132.86681076 324.72167714 134.47729492 326.41699219 C136.80372805 328.86496783 139.1641792 331.27492447 141.53515625 333.6796875 C142.60444115 334.82472244 142.60444115 334.82472244 143.69532776 335.9928894 C147.41649024 339.86344417 147.41649024 339.86344417 152.41545105 341.01953125 C154.71035258 340.51354447 156.8017264 339.82122056 159 339 C174.39884619 336.69110408 188.86495896 338.8053618 201.6875 347.8125 C205.54145915 350.73544654 209.01459011 353.80278819 212.34375 357.3046875 C214.04665574 359.04775611 215.82967075 360.61139076 217.6875 362.1875 C221.86570456 365.78156722 225.70321026 369.67142943 229.5703125 373.59204102 C232.35095071 376.39687782 235.16398049 379.07824305 238.1875 381.625 C242.01551107 384.88589832 245.25630667 388.54969739 248.57421875 392.3203125 C251.16737594 395.18489517 253.87358471 397.91445429 256.625 400.625 C260.96357248 404.927317 265.10360512 409.29420908 269 414 C269.59554688 414.70640625 270.19109375 415.4128125 270.8046875 416.140625 C282.22618463 430.16014508 284.37426372 444.38193917 283 462 C280.27514283 477.482143 270.63421905 490.60369778 258.125 499.875 C244.36634749 508.91702124 229.03365561 511.00341184 212.89648438 508.69970703 C200.45910964 506.12226797 192.03283284 498.37767367 183 490 C181.35545891 488.54020957 179.70962632 487.0818728 178.0625 485.625 C173.39787073 481.43635331 168.99657673 477.01707418 164.59375 472.55859375 C162.41757089 470.41191104 160.20979514 468.40632527 157.875 466.4375 C154.02805649 463.15238191 150.76362333 459.4729519 147.42578125 455.6796875 C144.83262406 452.81510483 142.12641529 450.08554571 139.375 447.375 C135.03642752 443.072683 130.89639488 438.70579092 127 434 C126.40445312 433.29359375 125.80890625 432.5871875 125.1953125 431.859375 C115.51079139 419.97193708 110.89082233 406.69566236 112.3515625 391.29296875 C113.61932358 382.25780582 113.61932358 382.25780582 114.74082947 378.55220032 C115.27065904 375.96511361 115.27065904 375.96511361 113.71559143 373.99406433 C112.72630898 373.02476738 112.72630898 373.02476738 111.71704102 372.03588867 C110.60577599 370.92530342 110.60577599 370.92530342 109.47206116 369.7922821 C108.65757004 369.0087587 107.84307892 368.22523529 107.00390625 367.41796875 C106.18123764 366.60378983 105.35856903 365.7896109 104.51097107 364.95075989 C101.87519844 362.34862485 99.21935172 359.76809224 96.5625 357.1875 C94.77403085 355.42911634 92.98690329 353.66936702 91.20117188 351.90820312 C86.8162366 347.58949024 82.41462947 343.28834311 78 339 C73.63488329 340.65150311 70.05675398 342.90130165 66.25 345.5625 C23.92384433 374.27748255 -27.87464442 382.6229374 -77.75390625 373.49609375 C-105.27373536 368.08826707 -131.89596232 356.31039096 -154 339 C-154.84949219 338.35933594 -155.69898438 337.71867187 -156.57421875 337.05859375 C-166.83310827 329.14553726 -176.91698134 320.15510889 -185 310 C-185.75410156 309.071875 -186.50820312 308.14375 -187.28515625 307.1875 C-193.91164905 298.89853939 -199.62298757 290.14137223 -205 281 C-205.35835937 280.39462402 -205.71671875 279.78924805 -206.0859375 279.16552734 C-214.06707554 265.5023291 -219.68713393 250.62742641 -223.8125 235.375 C-223.99514404 234.70952148 -224.17778809 234.04404297 -224.3659668 233.35839844 C-228.21808497 218.16343809 -229.55476386 202.94139648 -229.4375 187.3125 C-229.43445862 186.44492065 -229.43141724 185.57734131 -229.42828369 184.68347168 C-229.17667901 135.93031248 -210.54452061 90.35034309 -177 55 C-176.09636719 54.04351562 -175.19273437 53.08703125 -174.26171875 52.1015625 C-130.93594623 7.06431637 -61.11862164 -14.25917301 0 0 Z M-76 50 C-76.66805664 50.17660156 -77.33611328 50.35320313 -78.02441406 50.53515625 C-101.05848891 56.85869484 -121.04408475 69.43164852 -138 86 C-138.86109375 86.79921875 -139.7221875 87.5984375 -140.609375 88.421875 C-163.35459386 110.03689665 -178.90352369 143.78153913 -180.12280273 175.16040039 C-180.45474412 189.97870756 -180.70424871 204.55343005 -177 219 C-176.82307617 219.70366699 -176.64615234 220.40733398 -176.46386719 221.13232422 C-173.95671022 230.92062874 -170.61081426 239.98178975 -166 249 C-165.4534375 250.09054688 -164.906875 251.18109375 -164.34375 252.3046875 C-147.4720189 284.89780439 -117.88795851 309.87914329 -83.06347656 321.359375 C-44.88617955 333.21186286 -5.60097055 328.81633682 29.69384766 310.27148438 C35.11993804 307.27983937 40.10388272 303.79836334 45 300 C45.92683594 299.29359375 46.85367188 298.5871875 47.80859375 297.859375 C77.20752237 274.67383697 95.71506864 242.07907842 101 205 C101.19529297 203.69095703 101.19529297 203.69095703 101.39453125 202.35546875 C105.73151971 167.48608149 95.42337474 130.19748166 74.1875 102.3125 C72.49708598 100.17443991 70.76130945 98.07991247 69 96 C68.54786133 95.4627832 68.09572266 94.92556641 67.62988281 94.37207031 C44.31366759 67.03190146 11.44212451 50.57512517 -24 46 C-41.56327504 45.05999008 -58.94127181 45.40228834 -76 50 Z " fill="#000000" transform="translate(229,3)"/>
<path d="M0 0 C0.92554688 0.7115625 1.85109375 1.423125 2.8046875 2.15625 C8.5100079 6.67102929 13.54254908 11.24969536 18 17 C19.17175781 18.49273437 19.17175781 18.49273437 20.3671875 20.015625 C35.87878186 40.37236049 43.83004974 65.36618495 42 91 C40.78250943 97.55719333 37.29852836 102.66328552 31.91015625 106.48046875 C25.12497402 110.40641698 18.71655106 111.15511562 11 110 C4.40391712 108.02208244 0.10518159 104.75064953 -3.84375 99.16015625 C-6.75238673 93.72611533 -7.3358276 88.51597875 -7.8125 82.5 C-9.28672622 67.40343059 -14.50631264 54.34431862 -26 44 C-26.45246094 43.54367188 -26.90492188 43.08734375 -27.37109375 42.6171875 C-38.32293142 32.18426483 -51.91259778 29.33924487 -66.36328125 27.59375 C-74.94172269 26.46013131 -80.84041 23.80771102 -86.4375 17.0625 C-90.24104139 9.60755888 -91.17346036 2.44811037 -88.875 -5.5625 C-86.54003965 -11.86146282 -82.89656791 -16.2380567 -76.9375 -19.375 C-53.24348977 -29.83612905 -18.84931049 -14.68131114 0 0 Z " fill="#000000" transform="translate(255,104)"/>
</svg>
