<?xml version="1.0" encoding="UTF-8"?>
<svg version="1.1" xmlns="http://www.w3.org/2000/svg" width="512" height="512">
<path d="M0 0 C2.59482434 1.96718886 4.84677785 4.18036058 7.12109375 6.50585938 C7.77119415 7.15041077 8.42129456 7.79496216 9.09109497 8.45904541 C11.21900378 10.57522665 13.32843132 12.70880454 15.4375 14.84375 C16.92677548 16.33473932 18.41694424 17.82483688 19.90795898 19.31408691 C23.02563639 22.43341402 26.13464482 25.56104919 29.23730469 28.6953125 C33.18753348 32.68507805 37.15503228 36.65709859 41.12882996 40.62337494 C44.20786759 43.69932075 47.27919577 46.78287205 50.34817505 49.86885071 C51.806913 51.33455475 53.26754173 52.79837981 54.73019409 54.26017761 C75.3247099 74.8729834 75.3247099 74.8729834 81.3125 88.1875 C81.63734375 88.90397705 81.9621875 89.6204541 82.296875 90.35864258 C91.04856732 110.4695219 92.38391053 134.44776102 84.48828125 155.0859375 C79.97442402 166.21290832 74.28074669 175.79239202 66.02978516 184.55126953 C65.42504175 185.19572588 64.82029835 185.84018223 64.19722939 186.50416756 C55.50169138 195.71224301 46.53162069 204.65341366 37.5859375 213.6171875 C36.62216421 214.58370714 35.65844642 215.55028211 34.69478226 216.51691055 C30.17248643 221.05278239 25.6482675 225.58672249 21.1211313 230.1177634 C15.94596344 235.29742447 10.77743864 240.48359744 5.6144737 245.6754216 C1.58287733 249.72875031 -2.45457836 253.77618303 -6.49638975 257.81932557 C-8.89347578 260.21744895 -11.28817862 262.61783056 -13.67671585 265.02447128 C-37.33972315 288.84031891 -37.33972315 288.84031891 -50.8125 295.3125 C-51.47701172 295.63806885 -52.14152344 295.9636377 -52.82617188 296.29907227 C-72.84534163 305.72972695 -95.57704598 306.35798586 -116.58203125 299.8984375 C-135.58020286 292.9121585 -148.64745396 280.6798727 -162.71875 266.65234375 C-164.2274332 265.15264949 -165.73618282 263.65302203 -167.24499512 262.15345764 C-170.39538036 259.01948438 -173.54141515 255.88121344 -176.68505859 252.74047852 C-180.68049756 248.75041481 -184.69183532 244.77675767 -188.70735931 240.80692196 C-191.82693063 237.71733958 -194.93494551 234.61631988 -198.04005432 231.51220894 C-199.51248576 230.04393654 -200.98896675 228.57971188 -202.46983337 227.11994743 C-222.28607976 207.56377821 -235.14051724 186.60206194 -235.375 158 C-235.22491203 137.61563897 -229.13417489 117.60436319 -215.04345703 102.43383789 C-214.56612185 101.91954003 -214.08878666 101.40524218 -213.59698677 100.87535954 C-204.48081911 91.10405243 -195.0108473 81.667117 -185.59326172 72.18823242 C-183.10258953 69.67962583 -180.62076091 67.16272676 -178.14599609 64.63842773 C-175.12514641 61.55725762 -172.08970726 58.49119401 -169.04339981 55.43519783 C-167.89567739 54.27896556 -166.75305919 53.11764133 -165.61593246 51.95098686 C-158.82447956 44.9924226 -153.40329452 39.66453135 -143.21484375 38.75 C-136.35240208 39.50333837 -131.07604515 41.51075476 -126.4296875 46.78125 C-123.13029165 51.23072098 -121.83387224 54.72550441 -121.6875 60.1875 C-121.63142578 61.53908203 -121.63142578 61.53908203 -121.57421875 62.91796875 C-122.90579998 72.55666227 -129.98990133 78.47697963 -136.61050034 84.91115952 C-138.46207417 86.71117229 -140.30041472 88.5238293 -142.13601685 90.34011841 C-146.69705312 94.84797548 -151.27956887 99.33378986 -155.86169434 103.82019043 C-159.73852222 107.61765056 -163.60674881 111.42349834 -167.46429825 115.24054337 C-169.26299526 117.01358982 -171.07343023 118.77399898 -172.88473511 120.53414917 C-183.46896392 130.92811563 -191.05493784 141.7295344 -192.05859375 156.9765625 C-191.68874507 176.0607545 -180.69974555 186.93789786 -168.03125 199.60546875 C-166.54842747 201.09862638 -165.06597139 202.592148 -163.5838623 204.08601379 C-160.48404495 207.20519122 -157.37641905 210.31633552 -154.26367188 213.42260742 C-150.30232358 217.3779666 -146.36666767 221.35784289 -142.43726349 225.3449049 C-139.38480605 228.4345738 -136.3162191 231.50783551 -133.24302673 234.57686806 C-131.78639638 236.03634608 -130.33527453 237.50134596 -128.89015198 238.97221947 C-117.68951861 250.35131604 -106.75272342 259.98093568 -90 260.3125 C-74.28524894 260.32969129 -63.5869214 252.87232264 -52.73016357 242.14785767 C-51.8778717 241.29106415 -51.02557983 240.43427063 -50.14746094 239.55151367 C-49.21929565 238.63021164 -48.29113037 237.70890961 -47.33483887 236.75968933 C-44.81564243 234.25826569 -42.30591005 231.74755426 -39.79845715 229.23436522 C-37.6940197 227.1268139 -35.58497249 225.02390514 -33.47597337 222.92092019 C-28.49701267 217.95594985 -23.52582092 212.98329658 -18.55957031 208.00561523 C-13.45660301 202.89116153 -8.34097252 197.78963335 -3.218889 192.69433039 C1.1997136 188.29795709 5.61043517 183.89378468 10.01500869 179.4833563 C12.63647442 176.85853833 15.26067313 174.23662157 17.89246368 171.62215233 C20.82813277 168.70496894 23.74716801 165.77165557 26.66503906 162.83666992 C27.52542786 161.9859491 28.38581665 161.13522827 29.27227783 160.25872803 C39.84821335 149.55303825 46 138.19921638 46 123 C44.69350972 109.01647123 37.1936051 98.79222168 27.41552734 89.26782227 C26.78709427 88.6471286 26.15866119 88.02643494 25.51118469 87.38693237 C24.15966527 86.05293339 22.80592202 84.7211843 21.45014572 83.39151192 C19.30030107 81.28142892 17.15834875 79.16362126 15.01846313 77.04344177 C8.93812314 71.02083882 2.84802608 65.00824592 -3.25683594 59.01049805 C-7.00277125 55.32919977 -10.73624847 51.63564322 -14.46229172 47.93421745 C-15.87773601 46.53297185 -17.29782881 45.13640485 -18.72273636 43.7447834 C-20.71832721 41.7951931 -22.6976822 39.83035454 -24.67431641 37.86157227 C-25.55030235 37.01726402 -25.55030235 37.01726402 -26.44398499 36.15589905 C-31.63836477 30.92346995 -35.05951734 24.91188532 -35.4375 17.4375 C-35.0432881 10.56865637 -33.29038351 5.84736256 -28.1875 1.125 C-19.16685519 -6.07511467 -9.71351332 -5.44116698 0 0 Z " fill="#000000" transform="translate(275,190)"/>
<path d="M0 0 C5.36678531 4.98344869 10.53273592 10.17777264 15.71875 15.34765625 C17.2274332 16.84735051 18.73618282 18.34697797 20.24499512 19.84654236 C23.39538036 22.98051562 26.54141515 26.11878656 29.68505859 29.25952148 C33.68049756 33.24958519 37.69183532 37.22324233 41.70735931 41.19307804 C44.82693063 44.28266042 47.93494551 47.38368012 51.04005432 50.48779106 C52.51248576 51.95606346 53.98896675 53.42028812 55.46983337 54.88005257 C75.28607976 74.43622179 88.14051724 95.39793806 88.375 124 C88.2249108 144.38452801 82.13341273 164.39324273 68.0456543 179.56616211 C67.56838992 180.08045997 67.09112555 180.59475782 66.59939861 181.12464046 C60.97611292 187.1513108 55.19691329 193.02532223 49.39453125 198.87890625 C48.81884588 199.45991529 48.24316051 200.04092434 47.65003014 200.63953972 C44.61591318 203.70005856 41.57835265 206.75711546 38.53833008 209.81176758 C36.04202771 212.32150635 33.55324476 214.83836634 31.07055664 217.36157227 C28.04100906 220.44050411 24.99930535 223.5069145 21.94852257 226.56480217 C20.79808713 227.72191814 19.65188385 228.88325907 18.51020241 230.04901314 C6.49434083 242.30417777 6.49434083 242.30417777 -3.5 243.375 C-11.05642987 242.56538251 -16.90288503 239.70391437 -22 234 C-25.39052 228.42204775 -26.07728168 222.38734727 -25 216 C-22.06991979 208.13567149 -16.46082718 202.97737109 -10.57469559 197.24347115 C-8.75709418 195.47276269 -6.95226358 193.68985232 -5.1499939 191.90354919 C-1.31951663 188.1117619 2.52728814 184.33678362 6.375 180.5625 C10.83060884 176.18762842 15.2792052 171.80586582 19.71648026 167.41239738 C21.48359152 165.66823477 23.25997046 163.93393 25.03720093 162.2000885 C35.8268425 151.58946621 44.19780505 140.63216158 45.09375 124.953125 C44.48765585 105.86115922 33.75321916 95.11557184 21.03125 82.39453125 C19.54842747 80.90137362 18.06597139 79.407852 16.5838623 77.91398621 C13.48404495 74.79480878 10.37641905 71.68366448 7.26367188 68.57739258 C3.30232358 64.6220334 -0.63333233 60.64215711 -4.56273651 56.6550951 C-7.61519395 53.5654262 -10.6837809 50.49216449 -13.75697327 47.42313194 C-15.21360362 45.96365392 -16.66472547 44.49865404 -18.10984802 43.02778053 C-29.35278215 31.60570921 -40.29935917 21.95729742 -57.125 21.75 C-72.26187015 21.79194554 -82.83277646 28.43634477 -93.4577179 38.91560364 C-94.74478889 40.21482002 -94.74478889 40.21482002 -96.05786133 41.5402832 C-97.0045829 42.48156757 -97.95214949 43.42200266 -98.90048218 44.36166382 C-101.44460568 46.8877433 -103.97614301 49.4260789 -106.50486588 51.96756387 C-109.16922428 54.64214613 -111.84343928 57.30684608 -114.51603699 59.97319031 C-118.99893961 64.44884485 -123.47340907 68.93280004 -127.94311523 73.42163086 C-133.09179173 78.59208386 -138.2547366 83.74795235 -143.42530042 88.89651042 C-147.8864981 93.33948869 -152.33976955 97.79029868 -156.78664607 102.24761075 C-159.43294501 104.90010709 -162.08177997 107.54991936 -164.73783302 110.19265175 C-167.69986515 113.14085983 -170.64510656 116.10532326 -173.58911133 119.0715332 C-174.45727982 119.93160477 -175.3254483 120.79167633 -176.21992493 121.67781067 C-186.8115451 132.41718899 -193 143.75921173 -193 159 C-191.69350972 172.98352877 -184.1936051 183.20777832 -174.41552734 192.73217773 C-173.78709427 193.3528714 -173.15866119 193.97356506 -172.51118469 194.61306763 C-171.15966527 195.94706661 -169.80592202 197.2788157 -168.45014572 198.60848808 C-166.30030107 200.71857108 -164.15834875 202.83637874 -162.01846313 204.95655823 C-155.93812314 210.97916118 -149.84802608 216.99175408 -143.74316406 222.98950195 C-139.99722875 226.67080023 -136.26375153 230.36435678 -132.53770828 234.06578255 C-131.12226399 235.46702815 -129.70217119 236.86359515 -128.27726364 238.2552166 C-126.28167279 240.2048069 -124.3023178 242.16964546 -122.32568359 244.13842773 C-121.44969765 244.98273598 -121.44969765 244.98273598 -120.55601501 245.84410095 C-115.3793891 251.05864613 -111.99196798 257.06768509 -111.5 264.5 C-111.86492915 271.24530331 -114.38110918 276.87545339 -119.375 281.4375 C-125.10469996 285.81974934 -130.94100357 286.84539335 -138 286 C-144.65667365 283.91107581 -149.30477383 280.41885059 -154.12109375 275.49414062 C-154.77119415 274.84958923 -155.42129456 274.20503784 -156.09109497 273.54095459 C-158.21900378 271.42477335 -160.32843132 269.29119546 -162.4375 267.15625 C-163.92677548 265.66526068 -165.41694424 264.17516312 -166.90795898 262.68591309 C-170.02563639 259.56658598 -173.13464482 256.43895081 -176.23730469 253.3046875 C-180.18753348 249.31492195 -184.15503228 245.34290141 -188.12882996 241.37662506 C-191.20786759 238.30067925 -194.27919577 235.21712795 -197.34817505 232.13114929 C-198.806913 230.66544525 -200.26754173 229.20162019 -201.73019409 227.73982239 C-222.3247099 207.1270166 -222.3247099 207.1270166 -228.3125 193.8125 C-228.63734375 193.09602295 -228.9621875 192.3795459 -229.296875 191.64135742 C-238.04856732 171.5304781 -239.38391053 147.55223898 -231.48828125 126.9140625 C-226.97442402 115.78709168 -221.28074669 106.20760798 -213.02978516 97.44873047 C-212.42504175 96.80427412 -211.82029835 96.15981777 -211.19722939 95.49583244 C-202.50169138 86.28775699 -193.53162069 77.34658634 -184.5859375 68.3828125 C-183.62216421 67.41629286 -182.65844642 66.44971789 -181.69478226 65.48308945 C-177.17248643 60.94721761 -172.6482675 56.41327751 -168.1211313 51.8822366 C-162.94596344 46.70257553 -157.77743864 41.51640256 -152.6144737 36.3245784 C-148.58287733 32.27124969 -144.54542164 28.22381697 -140.50361025 24.18067443 C-138.10652422 21.78255105 -135.71182138 19.38216944 -133.32328415 16.97552872 C-109.66027685 -6.84031891 -109.66027685 -6.84031891 -96.1875 -13.3125 C-95.52298828 -13.63806885 -94.85847656 -13.9636377 -94.17382812 -14.29907227 C-62.74717876 -29.10357623 -25.85532463 -22.46273069 0 0 Z " fill="#000000" transform="translate(384,40)"/>
</svg>
