<?xml version="1.0" encoding="UTF-8"?>
<svg version="1.1" xmlns="http://www.w3.org/2000/svg" width="512" height="512">
<path d="M0 0 C2.53765243 2.1258917 5.0304232 4.29555097 7.5 6.5 C8.90185547 7.74910156 8.90185547 7.74910156 10.33203125 9.0234375 C33.32205403 30.81870319 47.64895111 62.6403484 48.87890625 94.17578125 C49.56375517 120.24121672 45.26788018 143.56118513 32.875 166.6875 C32.53452637 167.3386377 32.19405273 167.98977539 31.84326172 168.66064453 C22.57728317 185.08687904 8.04968706 198.40646488 -5.16941643 211.57239294 C-7.70495285 214.10018886 -10.23299807 216.63546193 -12.7623291 219.16946411 C-17.00302026 223.41556888 -21.24989558 227.65541042 -25.50048828 231.89160156 C-30.38167636 236.75643996 -35.2519223 241.63203233 -40.11669207 246.51328456 C-44.33406464 250.7443608 -48.55736667 254.96945165 -52.7854991 259.18977559 C-55.29330762 261.69296001 -57.79917258 264.19800012 -60.29963684 266.7085228 C-78.00076548 284.47096893 -94.84890159 298.27663039 -118.1015625 308.0546875 C-119.22304688 308.53164063 -120.34453125 309.00859375 -121.5 309.5 C-122.25539063 309.75652344 -123.01078125 310.01304687 -123.7890625 310.27734375 C-126.58542543 312.2756579 -127.11909836 315.00434449 -128.25 318.1875 C-138.64606024 345.90026337 -159.05399951 365.21803539 -179.55078125 385.7890625 C-180.51478512 386.75712725 -181.47876076 387.72522012 -182.44270897 388.6933403 C-186.9711393 393.24072178 -191.50191175 397.78575347 -196.0356248 402.3278681 C-201.22092035 407.52294073 -206.39781059 412.72620576 -211.5677827 417.93652689 C-215.60012331 421.99922728 -219.64030043 426.05403066 -223.68620175 430.10322607 C-226.08695101 432.50630018 -228.48443681 434.91240767 -230.87355995 437.32704544 C-240.83435548 447.37956402 -250.51006547 456.89261297 -262.5 464.5 C-263.28014465 465.00503052 -264.06028931 465.51006104 -264.86407471 466.03039551 C-292.65362147 483.72986072 -328.09030808 489.33507921 -360.3125 482.9375 C-384.00810484 477.57550634 -404.44052804 466.62065089 -422.5 450.5 C-423.43457031 449.66726563 -424.36914062 448.83453125 -425.33203125 447.9765625 C-448.32205403 426.18129681 -462.64895111 394.3596516 -463.87890625 362.82421875 C-464.56375517 336.75878328 -460.26788018 313.43881487 -447.875 290.3125 C-447.53452637 289.6613623 -447.19405273 289.01022461 -446.84326172 288.33935547 C-437.57728317 271.91312096 -423.04968706 258.59353512 -409.83058357 245.42760706 C-407.29504715 242.89981114 -404.76700193 240.36453807 -402.2376709 237.83053589 C-397.99697974 233.58443112 -393.75010442 229.34458958 -389.49951172 225.10839844 C-384.61832364 220.24356004 -379.7480777 215.36796767 -374.88330793 210.48671544 C-370.66593536 206.2556392 -366.44263333 202.03054835 -362.2145009 197.81022441 C-359.70669238 195.30703999 -357.20082742 192.80199988 -354.70036316 190.2914772 C-336.99923452 172.52903107 -320.15109841 158.72336961 -296.8984375 148.9453125 C-295.21621094 148.22988281 -295.21621094 148.22988281 -293.5 147.5 C-292.36691406 147.11521484 -292.36691406 147.11521484 -291.2109375 146.72265625 C-288.41457457 144.7243421 -287.88090164 141.99565551 -286.75 138.8125 C-276.35393976 111.09973663 -255.94600049 91.78196461 -235.44921875 71.2109375 C-234.48521488 70.24287275 -233.52123924 69.27477988 -232.55729103 68.3066597 C-228.0288607 63.75927822 -223.49808825 59.21424653 -218.9643752 54.6721319 C-213.77907965 49.47705927 -208.60218941 44.27379424 -203.4322173 39.06347311 C-199.39987669 35.00077272 -195.35969957 30.94596934 -191.31379825 26.89677393 C-188.91304899 24.49369982 -186.51556319 22.08759233 -184.12644005 19.67295456 C-174.16564452 9.62043598 -164.48993453 0.10738703 -152.5 -7.5 C-151.71985535 -8.00503052 -150.93971069 -8.51006104 -150.13592529 -9.03039551 C-104.6241455 -38.01734409 -41.73032138 -33.84715804 0 0 Z M-169.5546875 35.37768555 C-170.39839905 36.2148259 -171.2421106 37.05196625 -172.11138916 37.91447449 C-174.86878953 40.65235977 -177.62233326 43.39407474 -180.375 46.13671875 C-181.33377233 47.09143239 -182.29257385 48.04611671 -183.25140381 49.00077248 C-187.75715675 53.48755101 -192.26054408 57.97668732 -196.76101112 62.46876782 C-201.91251839 67.61050914 -207.07220291 72.74385784 -212.23898888 77.87024468 C-216.26343593 81.86432551 -220.27997966 85.86624856 -224.29091835 89.87389404 C-226.67280914 92.25345931 -229.05867124 94.62863873 -231.45111084 96.99762535 C-243.54813179 108.98335109 -255.43319011 120.83638585 -262.8125 136.4375 C-263.1324292 137.09878906 -263.4523584 137.76007813 -263.78198242 138.44140625 C-276.16405603 164.7232553 -278.35549792 193.9213917 -269.21484375 221.58984375 C-263.96660597 235.52179528 -256.57531379 248.51026004 -246.5 259.5 C-245.65695313 260.42425781 -244.81390625 261.34851563 -243.9453125 262.30078125 C-232.89417236 273.88045418 -218.79783841 283.40072053 -203.5 288.5 C-199.06556739 275.32867934 -198.99245905 262.21625494 -204.90625 249.46875 C-208.51007279 242.87307432 -212.93848271 237.65449634 -218.07421875 232.20703125 C-231.16611247 217.59723681 -235.70021783 198.93201872 -234.68652344 179.73046875 C-232.45207656 153.01069557 -215.10435933 136.9207995 -197.1081543 118.9777832 C-194.90619443 116.78127189 -192.70974488 114.57934856 -190.51367188 112.37695312 C-189.11230041 110.97624103 -187.71061955 109.57583839 -186.30859375 108.17578125 C-185.65346298 107.51862625 -184.99833221 106.86147125 -184.323349 106.18440247 C-183.41583641 105.28161812 -183.41583641 105.28161812 -182.48999023 104.3605957 C-181.95913315 103.83053421 -181.42827606 103.30047272 -180.8813324 102.75434875 C-178.32202763 100.43031672 -176.41362237 100.36399467 -173.0625 100.375 C-171.88880859 100.37113281 -171.88880859 100.37113281 -170.69140625 100.3671875 C-168.5 100.5 -168.5 100.5 -165.5 101.5 C-164.6640625 103.3203125 -164.6640625 103.3203125 -164.125 105.625 C-163.93164062 106.37007813 -163.73828125 107.11515625 -163.5390625 107.8828125 C-163.45698507 113.38200057 -166.11720087 117.35538268 -169.77807617 121.20043945 C-171.10646429 122.51481123 -172.44533598 123.81864845 -173.79296875 125.11328125 C-174.85201164 126.15671944 -174.85201164 126.15671944 -175.93244934 127.22123718 C-178.174778 129.42811339 -180.43009445 131.62105681 -182.6875 133.8125 C-184.95375772 136.02355923 -187.21703268 138.2374758 -189.47468567 140.45732117 C-190.87704156 141.83511326 -192.284708 143.20752431 -193.69804382 144.5740509 C-194.32902481 145.19197006 -194.9600058 145.80988922 -195.61010742 146.4465332 C-196.44924934 147.26091606 -196.44924934 147.26091606 -197.30534363 148.0917511 C-198.7156359 149.44640303 -198.7156359 149.44640303 -198.5 151.5 C-197.50742187 151.96148437 -196.51484375 152.42296875 -195.4921875 152.8984375 C-181.50730303 159.55122207 -169.70144367 167.77480819 -158.5 178.5 C-157.74203125 179.19480469 -156.9840625 179.88960937 -156.203125 180.60546875 C-144.99645463 191.21316192 -136.33952137 205.27904795 -130.5 219.5 C-127.39906584 218.11866414 -125.27216204 216.52634671 -122.87039185 214.13781738 C-122.16677521 213.44273071 -121.46315857 212.74764404 -120.73822021 212.03149414 C-119.97656555 211.26893311 -119.21491089 210.50637207 -118.43017578 209.72070312 C-117.6199295 208.91717407 -116.80968323 208.11364502 -115.97488403 207.2857666 C-113.29300841 204.62291497 -110.61876594 201.95255559 -107.9453125 199.28125 C-106.08225073 197.4246152 -104.21903855 195.56813131 -102.35568237 193.71179199 C-98.44619207 189.81509115 -94.54162548 185.9135005 -90.63916016 182.00976562 C-86.14492684 177.51433411 -81.63969597 173.03014149 -77.1290704 168.5511632 C-72.7761285 164.22766548 -68.43444562 159.89302322 -64.09679794 155.55418396 C-62.25732023 153.71705917 -60.414615 151.88315993 -58.56857681 150.05262756 C-55.97892975 147.48269547 -53.40240412 144.90025242 -50.82861328 142.31445312 C-49.69220398 141.19490234 -49.69220398 141.19490234 -48.53283691 140.05273438 C-38.13050111 129.52736131 -32.17328847 117.3780529 -32 102.5 C-32.15688599 89.03021746 -36.9421421 77.23836922 -46.125 67.3125 C-57.05879344 57.0046871 -69.21674922 53.00576951 -83.8894043 53.14819336 C-93.70064774 53.44488158 -100.47849502 56.39607053 -108.95703125 61.19140625 C-112.39309414 62.95957993 -114.63409084 63.57731818 -118.5 63.5 C-122.07387602 61.91161066 -123.31089572 60.78365642 -125.5 57.5 C-126.27994429 50.59192201 -126.27994429 50.59192201 -123.625 46.875 C-107.17949409 34.37641551 -87.52703741 31.09195743 -67.25195312 33.80029297 C-55.04661284 36.19319809 -43.77735428 42.35403039 -34.5 50.5 C-33.82324219 51.08265625 -33.14648438 51.6653125 -32.44921875 52.265625 C-21.21093007 62.65285881 -13.47994796 78.49440101 -12.32299805 93.84912109 C-11.76598892 115.88537872 -15.4052214 134.30847004 -30.96603394 150.83560181 C-38.62755548 158.82608409 -46.48423427 166.62683206 -54.31640625 174.44921875 C-56.22440619 176.35744222 -58.13180703 178.26626422 -60.03929138 180.17500305 C-64.01211459 184.14963218 -67.9870123 188.12217742 -71.96313477 192.09350586 C-76.5589523 196.68384617 -81.15110595 201.27782827 -85.74144703 205.87364453 C-89.69991422 209.83664339 -93.66031849 213.79769853 -97.62236255 217.75712138 C-99.98191491 220.11511608 -102.34059122 222.47397413 -104.6979084 224.83420372 C-107.31385972 227.45268107 -109.93297123 230.06795491 -112.55297852 232.68237305 C-113.33266998 233.46408875 -114.11236145 234.24580444 -114.91567993 235.0512085 C-115.62614975 235.75885849 -116.33661957 236.46650848 -117.06861877 237.19560242 C-117.99571325 238.12213135 -117.99571325 238.12213135 -118.9415369 239.06737804 C-120.5 240.5 -120.5 240.5 -122.5 241.5 C-122.355625 242.58152344 -122.21125 243.66304687 -122.0625 244.77734375 C-120.37870668 258.37224897 -120.2821211 271.81552893 -120.5 285.5 C-116.01132122 284.16480257 -112.29855579 282.38855294 -108.3125 279.9375 C-107.28769531 279.31746094 -106.26289063 278.69742187 -105.20703125 278.05859375 C-96.29889957 272.16888957 -88.50213488 264.80114754 -80.98046875 257.27099609 C-80.09920319 256.39644775 -79.21793762 255.52189941 -78.30996704 254.62084961 C-75.92590948 252.25237735 -73.54635188 249.87958007 -71.16943741 247.50395155 C-69.67537932 246.01132846 -68.17990022 244.52014399 -66.68392944 243.02943802 C-61.44017542 237.80410874 -56.20153134 232.57371997 -50.96777344 227.33837891 C-46.12869941 222.49810518 -41.27859314 217.66908724 -36.42314816 212.84524095 C-32.22106178 208.66950653 -28.02692738 204.48589232 -23.83863163 200.29632628 C-21.35197144 197.80916203 -18.86247425 195.32503403 -16.36483765 192.8488884 C8.2312954 168.44949454 27.34743695 142.75295091 27.74169922 106.69042969 C27.81474673 74.21436666 17.58795534 47.49662214 -4.75 23.8125 C-29.46544039 0.27606472 -58.82793056 -7.35629523 -92.22460938 -6.63183594 C-123.56727013 -5.37027982 -148.32020816 14.21724321 -169.5546875 35.37768555 Z M-211.5 168.5 C-215.93443261 181.67132066 -216.00754095 194.78374506 -210.09375 207.53125 C-206.48992721 214.12692568 -202.06151729 219.34550366 -196.92578125 224.79296875 C-183.82288031 239.41504661 -179.29043825 258.1033876 -180.31347656 277.32128906 C-181.11209817 286.64969117 -184.08225548 295.32548756 -188.0625 303.75 C-188.33578125 304.35078369 -188.6090625 304.95156738 -188.890625 305.57055664 C-196.20734009 319.95507958 -211.70991232 331.92235111 -222.9296875 343.203125 C-223.85217411 344.13093529 -224.77466072 345.05874557 -225.72510147 346.01467133 C-229.60420612 349.91530627 -233.48470863 353.81454169 -237.36890984 357.71010208 C-242.88033398 363.23777211 -248.38305167 368.77379763 -253.87410915 374.32170224 C-257.76966403 378.25617361 -261.6749608 382.18080993 -265.58738911 386.09850192 C-267.90951826 388.42424855 -270.22611079 390.75507088 -272.53487778 393.09409332 C-294.86907704 415.70442958 -294.86907704 415.70442958 -310.5 420.4375 C-312.3253125 421.00791016 -312.3253125 421.00791016 -314.1875 421.58984375 C-332.51547147 426.62571327 -352.12890085 424.03963614 -368.7890625 415.12890625 C-373.01532619 412.58949421 -376.79781363 409.75070023 -380.5 406.5 C-381.17675781 405.91734375 -381.85351562 405.3346875 -382.55078125 404.734375 C-393.78906993 394.34714119 -401.52005204 378.50559899 -402.67700195 363.15087891 C-403.23401108 341.11462128 -399.5947786 322.69152996 -384.03396606 306.16439819 C-376.37244452 298.17391591 -368.51576573 290.37316794 -360.68359375 282.55078125 C-358.77559381 280.64255778 -356.86819297 278.73373578 -354.96070862 276.82499695 C-350.98788541 272.85036782 -347.0129877 268.87782258 -343.03686523 264.90649414 C-338.4410477 260.31615383 -333.84889405 255.72217173 -329.25855297 251.12635547 C-325.30008578 247.16335661 -321.33968151 243.20230147 -317.37763745 239.24287862 C-315.01808509 236.88488392 -312.65940878 234.52602587 -310.3020916 232.16579628 C-307.68614028 229.54731893 -305.06702877 226.93204509 -302.44702148 224.31762695 C-301.66733002 223.53591125 -300.88763855 222.75419556 -300.08432007 221.9487915 C-299.01861534 220.88731651 -299.01861534 220.88731651 -297.93138123 219.80439758 C-297.31331824 219.18671163 -296.69525526 218.56902567 -296.0584631 217.93262196 C-294.5 216.5 -294.5 216.5 -292.5 215.5 C-292.644375 214.41847656 -292.78875 213.33695313 -292.9375 212.22265625 C-294.62129332 198.62775103 -294.7178789 185.18447107 -294.5 171.5 C-298.98867878 172.83519743 -302.70144421 174.61144706 -306.6875 177.0625 C-307.71230469 177.68253906 -308.73710937 178.30257812 -309.79296875 178.94140625 C-318.70110043 184.83111043 -326.49786512 192.19885246 -334.01953125 199.72900391 C-335.3414296 201.04082642 -335.3414296 201.04082642 -336.69003296 202.37915039 C-339.07409052 204.74762265 -341.45364812 207.12041993 -343.83056259 209.49604845 C-345.32462068 210.98867154 -346.82009978 212.47985601 -348.31607056 213.97056198 C-353.55982458 219.19589126 -358.79846866 224.42628003 -364.03222656 229.66162109 C-368.87130059 234.50189482 -373.72140686 239.33091276 -378.57685184 244.15475905 C-382.77893822 248.33049347 -386.97307262 252.51410768 -391.16136837 256.70367372 C-393.64802856 259.19083797 -396.13752575 261.67496597 -398.63516235 264.1511116 C-423.2312954 288.55050546 -442.34743695 314.24704909 -442.74169922 350.30957031 C-442.81474673 382.78563334 -432.58795534 409.50337786 -410.25 433.1875 C-385.53455961 456.72393528 -356.17206944 464.35629523 -322.77539062 463.63183594 C-291.43272987 462.37027982 -266.67979184 442.78275679 -245.4453125 421.62231445 C-244.17974518 420.36660393 -244.17974518 420.36660393 -242.88861084 419.08552551 C-240.13121047 416.34764023 -237.37766674 413.60592526 -234.625 410.86328125 C-233.66622767 409.90856761 -232.70742615 408.95388329 -231.74859619 407.99922752 C-227.24284325 403.51244899 -222.73945592 399.02331268 -218.23898888 394.53123218 C-213.08748161 389.38949086 -207.92779709 384.25614216 -202.76101112 379.12975532 C-198.73656407 375.13567449 -194.72002034 371.13375144 -190.70908165 367.12610596 C-188.32719086 364.74654069 -185.94132876 362.37136127 -183.54888916 360.00237465 C-171.45186821 348.01664891 -159.56680989 336.16361415 -152.1875 320.5625 C-151.8675708 319.90121094 -151.5476416 319.23992187 -151.21801758 318.55859375 C-138.83594397 292.2767447 -136.64450208 263.0786083 -145.78515625 235.41015625 C-151.03339403 221.47820472 -158.42468621 208.48973996 -168.5 197.5 C-169.34304688 196.57574219 -170.18609375 195.65148437 -171.0546875 194.69921875 C-182.10582764 183.11954582 -196.20216159 173.59927947 -211.5 168.5 Z M-289.96502686 240.69760132 C-290.68272247 241.40676697 -291.40041809 242.11593262 -292.13986206 242.84658813 C-293.3211821 244.02926773 -293.3211821 244.02926773 -294.52636719 245.23583984 C-295.77055923 246.46995605 -295.77055923 246.46995605 -297.03988647 247.72900391 C-299.32092928 249.99425494 -301.59730481 252.26406386 -303.87110043 254.53658628 C-305.29420753 255.95827269 -306.71872891 257.37852565 -308.14377594 258.79826736 C-313.1224244 263.75838374 -318.09584797 268.72367127 -323.06445312 273.69384766 C-327.68247628 278.31306762 -332.31148176 282.92106984 -336.94591403 287.52382123 C-340.9311396 291.48278047 -344.90849841 295.44953022 -348.87997556 299.42228091 C-351.24870222 301.79151491 -353.62120714 304.15659728 -355.99990082 306.51585007 C-358.66160653 309.15784508 -361.31020368 311.81235447 -363.95605469 314.47021484 C-365.12522934 315.62253098 -365.12522934 315.62253098 -366.31802368 316.79812622 C-376.78603543 327.3866029 -382.82547128 339.51546233 -383 354.5 C-382.84258822 368.0149254 -378.04276272 379.85770421 -368.75 389.75 C-358.11154437 399.74370074 -345.58553794 404.14076334 -331.15234375 403.97265625 C-315.72392212 403.37222698 -304.04237933 395.68289119 -293.47021484 384.95605469 C-292.62994751 384.11958405 -291.78968018 383.2831134 -290.9239502 382.42129517 C-288.17643766 379.68113388 -285.44349196 376.92694646 -282.7109375 374.171875 C-280.79882893 372.25535902 -278.88401104 370.34155768 -276.96939087 368.42755127 C-272.97354963 364.4298457 -268.98548266 360.42451914 -265.00244141 356.4140625 C-260.39538418 351.77541282 -255.77781309 347.14744362 -251.15420377 342.52529597 C-246.22276039 337.59520102 -241.29894866 332.65753865 -236.37738466 327.71758366 C-234.95970708 326.29564088 -233.54061077 324.87512716 -232.12119675 323.45491791 C-229.48765817 320.81706756 -226.86079593 318.1727545 -224.23583984 315.52636719 C-223.44738678 314.7388205 -222.65893372 313.9512738 -221.84658813 313.13986206 C-221.13742249 312.42216644 -220.42825684 311.70447083 -219.69760132 310.96502686 C-219.07639593 310.34046978 -218.45519054 309.7159127 -217.81516075 309.07242966 C-216.28614465 307.58596451 -216.28614465 307.58596451 -216.5 305.5 C-217.49257812 305.03851563 -218.48515625 304.57703125 -219.5078125 304.1015625 C-233.49269697 297.44877793 -245.29855633 289.22519181 -256.5 278.5 C-257.63695312 277.45779297 -257.63695312 277.45779297 -258.796875 276.39453125 C-270.00354537 265.78683808 -278.66047863 251.72095205 -284.5 237.5 C-287.334444 237.5 -287.97295994 238.71622484 -289.96502686 240.69760132 Z " fill="#000000" transform="translate(463.5,27.5)"/>
<path d="M0 0 C8.77500505 0.14406716 15.66635445 9.37085532 21.42578125 15.16015625 C22.66330391 16.39480873 22.66330391 16.39480873 23.92582703 17.65440369 C25.65686646 19.3840897 27.38541323 21.1162736 29.11157227 22.85083008 C31.75249406 25.50250421 34.4039729 28.14328507 37.05664062 30.78320312 C38.74282949 32.47071293 40.4283982 34.15884267 42.11328125 35.84765625 C42.90390457 36.63423111 43.69452789 37.42080597 44.5091095 38.23121643 C45.24384995 38.9722612 45.97859039 39.71330597 46.7355957 40.47680664 C47.37987015 41.12267227 48.02414459 41.7685379 48.6879425 42.43397522 C52.36794991 46.64817569 53.99948194 49.97166083 53.80078125 55.50390625 C53.22318163 58.57822683 51.63614432 60.30352169 49.4375 62.4375 C46.15720083 64.07764959 42.97059537 64.08393734 39.4375 63.4375 C32.93925455 59.77659993 27.66153129 53.95419254 22.44921875 48.71484375 C21.21169609 47.48019127 21.21169609 47.48019127 19.94917297 46.22059631 C18.21813354 44.4909103 16.48958677 42.7587264 14.76342773 41.02416992 C12.12250594 38.37249579 9.4710271 35.73171493 6.81835938 33.09179688 C5.13217051 31.40428707 3.4466018 29.71615733 1.76171875 28.02734375 C0.97109543 27.24076889 0.18047211 26.45419403 -0.6341095 25.64378357 C-1.36884995 24.9027388 -2.10359039 24.16169403 -2.8605957 23.39819336 C-3.50487015 22.75232773 -4.14914459 22.1064621 -4.8129425 21.44102478 C-8.4633261 17.26074834 -10.17296626 13.87495006 -9.99609375 8.37109375 C-9.25989492 5.08804492 -7.09627073 3.47687644 -4.5625 1.4375 C-3.5625 0.4375 -3.5625 0.4375 0 0 Z " fill="#000000" transform="translate(382.5625,372.5625)"/>
<path d="M0 0 C6.46943237 3.79017194 11.7423906 9.44955518 16.98828125 14.72265625 C18.22580391 15.95730873 18.22580391 15.95730873 19.48832703 17.21690369 C21.21936646 18.9465897 22.94791323 20.6787736 24.67407227 22.41333008 C27.31499406 25.06500421 29.9664729 27.70578507 32.61914062 30.34570312 C34.30532949 32.03321293 35.9908982 33.72134267 37.67578125 35.41015625 C38.46640457 36.19673111 39.25702789 36.98330597 40.0716095 37.79371643 C40.80634995 38.5347612 41.54109039 39.27580597 42.2980957 40.03930664 C42.94237015 40.68517227 43.58664459 41.3310379 44.2504425 41.99647522 C47.9008261 46.17675166 49.61046626 49.56254994 49.43359375 55.06640625 C48.69739492 58.34945508 46.53377073 59.96062356 44 62 C43.67 62.33 43.34 62.66 43 63 C38.08584962 63.60349215 35.2476788 63.59199931 31.28442383 60.51782227 C26.53283592 56.77008221 22.27515698 52.56289642 18.01171875 48.27734375 C16.77419609 47.04269127 16.77419609 47.04269127 15.51167297 45.78309631 C13.78063354 44.0534103 12.05208677 42.3212264 10.32592773 40.58666992 C7.68500594 37.93499579 5.0335271 35.29421493 2.38085938 32.65429688 C0.69467051 30.96678707 -0.9908982 29.27865733 -2.67578125 27.58984375 C-3.46640457 26.80326889 -4.25702789 26.01669403 -5.0716095 25.20628357 C-5.80634995 24.4652388 -6.54109039 23.72419403 -7.2980957 22.96069336 C-7.94237015 22.31482773 -8.58664459 21.6689621 -9.2504425 21.00352478 C-12.21303284 17.61088226 -13.89126684 15.01484284 -14.375 10.5 C-13.97335498 6.7513131 -13.3404622 4.92557776 -11 2 C-7.55057666 -0.58706751 -4.18288984 -0.55771865 0 0 Z " fill="#000000" transform="translate(90,76)"/>
<path d="M0 0 C0.825 -0.01289063 1.65 -0.02578125 2.5 -0.0390625 C6.14904237 0.93021438 7.61702585 2.73584401 10 5.625 C10.63491821 8.85009766 10.63491821 8.85009766 10.64697266 12.5390625 C10.66011505 13.55223541 10.66011505 13.55223541 10.67352295 14.58587646 C10.69544369 16.80791382 10.68099347 19.02794416 10.6640625 21.25 C10.66743282 22.80029684 10.67228724 24.35059109 10.67855835 25.90087891 C10.68591963 29.1457644 10.67524926 32.38996045 10.65185547 35.63476562 C10.62336682 39.7880033 10.63977498 43.93962551 10.66971779 48.09280396 C10.68781168 51.29284777 10.68202345 54.49251043 10.66907883 57.69256592 C10.66575053 59.22353305 10.66981169 60.75453512 10.68147659 62.28546143 C10.69422147 64.4282149 10.67476493 66.56837649 10.64697266 68.7109375 C10.64299469 69.9282959 10.63901672 71.1456543 10.63491821 72.39990234 C9.82245793 76.52683352 8.23078004 78.01972069 5 80.625 C2.5 81.2890625 2.5 81.2890625 0 81.25 C-1.2375 81.26933594 -1.2375 81.26933594 -2.5 81.2890625 C-6.14904237 80.31978562 -7.61702585 78.51415599 -10 75.625 C-10.63491821 72.39990234 -10.63491821 72.39990234 -10.64697266 68.7109375 C-10.66011505 67.69776459 -10.66011505 67.69776459 -10.67352295 66.66412354 C-10.69544369 64.44208618 -10.68099347 62.22205584 -10.6640625 60 C-10.66743282 58.44970316 -10.67228724 56.89940891 -10.67855835 55.34912109 C-10.68591963 52.1042356 -10.67524926 48.86003955 -10.65185547 45.61523438 C-10.62336682 41.4619967 -10.63977498 37.31037449 -10.66971779 33.15719604 C-10.68781168 29.95715223 -10.68202345 26.75748957 -10.66907883 23.55743408 C-10.66575053 22.02646695 -10.66981169 20.49546488 -10.68147659 18.96453857 C-10.69422147 16.8217851 -10.67476493 14.68162351 -10.64697266 12.5390625 C-10.64299469 11.3217041 -10.63901672 10.1043457 -10.63491821 8.85009766 C-9.50781136 3.12490409 -5.82978271 -0.09109035 0 0 Z " fill="#000000" transform="translate(333,406.375)"/>
<path d="M0 0 C0.67544861 -0.0087616 1.35089722 -0.01752319 2.04681396 -0.02655029 C4.26885132 -0.04847103 6.48888166 -0.03402082 8.7109375 -0.01708984 C10.26123434 -0.02046017 11.81152859 -0.02531459 13.36181641 -0.03158569 C16.6067019 -0.03894698 19.85089795 -0.0282766 23.09570312 -0.00488281 C27.2489408 0.02360583 31.40056301 0.00719768 35.55374146 -0.02274513 C38.75378527 -0.04083902 41.95344793 -0.03505079 45.15350342 -0.02210617 C46.68447055 -0.01877787 48.21547262 -0.02283903 49.74639893 -0.03450394 C51.8891524 -0.04724882 54.02931399 -0.02779228 56.171875 0 C57.3892334 0.00397797 58.6065918 0.00795593 59.86083984 0.01205444 C63.98777102 0.82451473 65.48065819 2.41619262 68.0859375 5.64697266 C68.75 8.14697266 68.75 8.14697266 68.7109375 10.64697266 C68.73027344 11.88447266 68.73027344 11.88447266 68.75 13.14697266 C67.78072312 16.79601503 65.97509349 18.2639985 63.0859375 20.64697266 C59.86083984 21.28189087 59.86083984 21.28189087 56.171875 21.29394531 C55.15870209 21.30708771 55.15870209 21.30708771 54.12506104 21.32049561 C51.90302368 21.34241634 49.68299334 21.32796613 47.4609375 21.31103516 C45.91064066 21.31440548 44.36034641 21.3192599 42.81005859 21.32553101 C39.5651731 21.33289229 36.32097705 21.32222192 33.07617188 21.29882812 C28.9229342 21.27033948 24.77131199 21.28674763 20.61813354 21.31669044 C17.41808973 21.33478433 14.21842707 21.3289961 11.01837158 21.31605148 C9.48740445 21.31272318 7.95640238 21.31678434 6.42547607 21.32844925 C4.2827226 21.34119413 2.14256101 21.32173759 0 21.29394531 C-1.2173584 21.28996735 -2.4347168 21.28598938 -3.68896484 21.28189087 C-7.81589602 20.46943058 -9.30878319 18.8777527 -11.9140625 15.64697266 C-12.578125 13.14697266 -12.578125 13.14697266 -12.5390625 10.64697266 C-12.55195313 9.82197266 -12.56484375 8.99697266 -12.578125 8.14697266 C-10.84580022 1.62527937 -6.19581878 0.0202461 0 0 Z " fill="#000000" transform="translate(418.9140625,322.35302734375)"/>
<path d="M0 0 C0.67544861 -0.0087616 1.35089722 -0.01752319 2.04681396 -0.02655029 C4.26885132 -0.04847103 6.48888166 -0.03402082 8.7109375 -0.01708984 C10.26123434 -0.02046017 11.81152859 -0.02531459 13.36181641 -0.03158569 C16.6067019 -0.03894698 19.85089795 -0.0282766 23.09570312 -0.00488281 C27.2489408 0.02360583 31.40056301 0.00719768 35.55374146 -0.02274513 C38.75378527 -0.04083902 41.95344793 -0.03505079 45.15350342 -0.02210617 C46.68447055 -0.01877787 48.21547262 -0.02283903 49.74639893 -0.03450394 C51.8891524 -0.04724882 54.02931399 -0.02779228 56.171875 0 C57.3892334 0.00397797 58.6065918 0.00795593 59.86083984 0.01205444 C63.98777102 0.82451473 65.48065819 2.41619262 68.0859375 5.64697266 C68.75 8.14697266 68.75 8.14697266 68.7109375 10.64697266 C68.73027344 11.88447266 68.73027344 11.88447266 68.75 13.14697266 C67.78072312 16.79601503 65.97509349 18.2639985 63.0859375 20.64697266 C59.86083984 21.28189087 59.86083984 21.28189087 56.171875 21.29394531 C55.15870209 21.30708771 55.15870209 21.30708771 54.12506104 21.32049561 C51.90302368 21.34241634 49.68299334 21.32796613 47.4609375 21.31103516 C45.91064066 21.31440548 44.36034641 21.3192599 42.81005859 21.32553101 C39.5651731 21.33289229 36.32097705 21.32222192 33.07617188 21.29882812 C28.9229342 21.27033948 24.77131199 21.28674763 20.61813354 21.31669044 C17.41808973 21.33478433 14.21842707 21.3289961 11.01837158 21.31605148 C9.48740445 21.31272318 7.95640238 21.31678434 6.42547607 21.32844925 C4.2827226 21.34119413 2.14256101 21.32173759 0 21.29394531 C-1.2173584 21.28996735 -2.4347168 21.28598938 -3.68896484 21.28189087 C-7.81589602 20.46943058 -9.30878319 18.8777527 -11.9140625 15.64697266 C-12.578125 13.14697266 -12.578125 13.14697266 -12.5390625 10.64697266 C-12.55195313 9.82197266 -12.56484375 8.99697266 -12.578125 8.14697266 C-10.84580022 1.62527937 -6.19581878 0.0202461 0 0 Z " fill="#000000" transform="translate(39.9140625,167.35302734375)"/>
<path d="M0 0 C0.825 -0.01289063 1.65 -0.02578125 2.5 -0.0390625 C6.14904237 0.93021438 7.61702585 2.73584401 10 5.625 C10.63491821 8.85009766 10.63491821 8.85009766 10.64697266 12.5390625 C10.66011505 13.55223541 10.66011505 13.55223541 10.67352295 14.58587646 C10.69544369 16.80791382 10.68099347 19.02794416 10.6640625 21.25 C10.66743282 22.80029684 10.67228724 24.35059109 10.67855835 25.90087891 C10.68591963 29.1457644 10.67524926 32.38996045 10.65185547 35.63476562 C10.62336682 39.7880033 10.63977498 43.93962551 10.66971779 48.09280396 C10.68781168 51.29284777 10.68202345 54.49251043 10.66907883 57.69256592 C10.66575053 59.22353305 10.66981169 60.75453512 10.68147659 62.28546143 C10.69422147 64.4282149 10.67476493 66.56837649 10.64697266 68.7109375 C10.64299469 69.9282959 10.63901672 71.1456543 10.63491821 72.39990234 C9.82245793 76.52683352 8.23078004 78.01972069 5 80.625 C2.5 81.2890625 2.5 81.2890625 0 81.25 C-1.2375 81.26933594 -1.2375 81.26933594 -2.5 81.2890625 C-6.14904237 80.31978562 -7.61702585 78.51415599 -10 75.625 C-10.63491821 72.39990234 -10.63491821 72.39990234 -10.64697266 68.7109375 C-10.66011505 67.69776459 -10.66011505 67.69776459 -10.67352295 66.66412354 C-10.69544369 64.44208618 -10.68099347 62.22205584 -10.6640625 60 C-10.66743282 58.44970316 -10.67228724 56.89940891 -10.67855835 55.34912109 C-10.68591963 52.1042356 -10.67524926 48.86003955 -10.65185547 45.61523438 C-10.62336682 41.4619967 -10.63977498 37.31037449 -10.66971779 33.15719604 C-10.68781168 29.95715223 -10.68202345 26.75748957 -10.66907883 23.55743408 C-10.66575053 22.02646695 -10.66981169 20.49546488 -10.68147659 18.96453857 C-10.69422147 16.8217851 -10.67476493 14.68162351 -10.64697266 12.5390625 C-10.64299469 11.3217041 -10.63901672 10.1043457 -10.63491821 8.85009766 C-9.50781136 3.12490409 -5.82978271 -0.09109035 0 0 Z " fill="#000000" transform="translate(178,24.375)"/>
<path d="M0 0 C2.65834778 3.49382851 3.1875 5.49933957 3.1875 9.875 C1.67233372 13.89019063 0.7819747 15.47868353 -2.8125 17.875 C-5.87776351 18.42031842 -8.74658329 18.41825893 -11.8125 17.875 C-14.56819447 15.69340855 -16.24838747 14.00322506 -17.8125 10.875 C-18.30652148 6.59348048 -18.22816259 3.88522795 -15.5625 0.5 C-10.58179764 -4.2543068 -5.59683781 -4.2287219 0 0 Z " fill="#000000" transform="translate(325.8125,101.125)"/>
</svg>
