<?xml version="1.0" encoding="UTF-8"?>
<svg version="1.1" xmlns="http://www.w3.org/2000/svg" width="512" height="512">
<path d="M0 0 C12.05278562 4.78190434 22.90500745 12.99933321 33 21 C33.54430664 21.42861328 34.08861328 21.85722656 34.64941406 22.29882812 C49.10515858 33.79671842 62.21237901 46.99701262 73 62 C73.41411133 62.56976563 73.82822266 63.13953125 74.25488281 63.7265625 C88.78418831 83.92943157 98.86920362 106.58848263 105.3125 130.5625 C105.54300049 131.41054199 105.77350098 132.25858398 106.01098633 133.13232422 C110.31529133 150.10611309 111.4296002 166.80660431 111.1875 184.25 C111.1723939 186.18228099 111.15871619 188.11457368 111.14648438 190.046875 C111.11402144 194.69821587 111.06258285 199.34897095 111 204 C115.38743398 199.16831988 119.67097765 194.38766888 123.375 189 C123.74020752 188.47019531 124.10541504 187.94039062 124.48168945 187.39453125 C128.0914101 182.05968307 131.29060844 176.47698428 134.37451172 170.82421875 C137.36202896 165.52084507 140.48162076 161.19669012 146.4921875 159.15234375 C152.72134326 158.59069856 156.910753 159.26306812 162 163 C168.50075391 168.52758715 173.72691047 175.33418416 179 182 C179.81726563 183.01191406 180.63453125 184.02382812 181.4765625 185.06640625 C214.69675581 226.6754071 227.51952254 280.69999862 222.49609375 333.17578125 C221.89927256 338.16807917 221.01764714 343.0780334 220 348 C219.83371094 348.84594727 219.66742188 349.69189453 219.49609375 350.56347656 C211.92208929 388.36336919 193.21637759 422.88990626 166.44384766 450.50927734 C165.04878934 451.9496267 163.67053922 453.40619733 162.29296875 454.86328125 C155.39898726 461.99951099 147.98747059 468.1481359 140 474 C139.43361816 474.41604492 138.86723633 474.83208984 138.28369141 475.26074219 C103.91850944 500.12989252 62.806058 512.47392157 20.625 512.375 C19.74870941 512.37445618 18.87241882 512.37391235 17.96957397 512.37335205 C-33.96614737 512.22570504 -82.94325118 492.32972448 -120.52050781 456.41210938 C-121.5016484 455.4756544 -122.48795247 454.54457769 -123.47949219 453.61914062 C-141.42220239 436.84737855 -154.64048571 416.13142758 -165 394 C-165.52207031 392.90816406 -166.04414063 391.81632812 -166.58203125 390.69140625 C-174.45020346 373.39803566 -179.16655235 354.73939243 -182 336 C-182.1546875 335.01386719 -182.1546875 335.01386719 -182.3125 334.0078125 C-183.3931626 325.98003322 -183.24389712 317.83559701 -183.25 309.75 C-183.25067474 308.94731689 -183.25134949 308.14463379 -183.25204468 307.31762695 C-183.23515954 294.65661494 -182.64287858 282.42100908 -180 270 C-179.83371094 269.19320801 -179.66742188 268.38641602 -179.49609375 267.55517578 C-168.10444951 213.79294365 -137.01658462 173.41129798 -94.4296875 140.4296875 C-93.70507324 139.86838135 -92.98045898 139.3070752 -92.23388672 138.72875977 C-90.69490665 137.5377742 -89.15480019 136.3482432 -87.61376953 135.15991211 C-51.43455332 107.18286276 -29.15321716 67.28903319 -22.875 22.0625 C-22.74061523 20.95447021 -22.60623047 19.84644043 -22.46777344 18.70483398 C-21.48329571 11.15077117 -19.88043283 7.42051399 -15 1.625 C-9.89476562 -1.14033529 -5.65155807 -1.18500411 0 0 Z M6 41 C5.82984375 41.65258789 5.6596875 42.30517578 5.484375 42.97753906 C-4.28747164 80.07677064 -19.93969628 112.62197976 -46.63525391 140.56787109 C-47.94948467 141.94699053 -49.24660661 143.34235213 -50.54296875 144.73828125 C-58.78436223 153.35371679 -68.1984381 160.25622893 -77.7734375 167.30566406 C-84.87893729 172.53704579 -91.6019258 177.9181097 -98 184 C-98.79277344 184.7439502 -98.79277344 184.7439502 -99.6015625 185.50292969 C-113.47687653 198.59419344 -124.31663622 213.01965162 -133 230 C-133.35046387 230.68175293 -133.70092773 231.36350586 -134.06201172 232.06591797 C-151.23351469 265.89433299 -157.73432088 306.75255192 -149 344 C-148.80664062 344.85142578 -148.61328125 345.70285156 -148.4140625 346.58007812 C-138.79233319 387.88818143 -115.11669195 423.84213927 -81 449 C-80.43216797 449.4228125 -79.86433594 449.845625 -79.27929688 450.28125 C-43.02304476 476.9218945 3.485269 486.31450317 47.5625 479.75 C92.54528444 472.34345511 133.2787326 446.87794816 160 410 C163.21033309 405.45858465 166.1713687 400.78739869 169 396 C169.37366699 395.36787598 169.74733398 394.73575195 170.13232422 394.08447266 C180.02604912 377.05207716 186.72307787 358.42328216 190 339 C190.17515137 337.97567871 190.35030273 336.95135742 190.53076172 335.89599609 C191.91785032 327.11192653 192.38697717 318.51205871 192.375 309.625 C192.37445618 308.93434448 192.37391235 308.24368896 192.37335205 307.53210449 C192.23601849 269.24790188 179.49346623 230.0727781 154 201 C151.11902296 203.74228668 148.81810692 206.54212115 146.5625 209.8125 C133.36934341 228.12684492 117.39109468 243.0189439 99 256 C97.57300781 257.03060547 97.57300781 257.03060547 96.1171875 258.08203125 C91.18486216 261.38313301 87.25148419 262.85586709 81.26171875 262.4609375 C76.91900899 261.57589475 74.28858269 259.24414881 71.1875 256.25 C67.55689804 249.3709647 69.4477586 243.34525394 71.60546875 236.31030273 C71.98316406 235.11477783 72.36085938 233.91925293 72.75 232.6875 C81.4601061 203.3342164 83.7965775 171.93434816 76 142 C75.78569336 141.1548584 75.57138672 140.3097168 75.35058594 139.43896484 C67.42217868 108.90824956 51.80638307 82.62284671 30 60 C29.02353516 58.94619141 29.02353516 58.94619141 28.02734375 57.87109375 C23.87724586 53.5095259 19.33282776 49.73679728 14.625 46 C14.00520264 45.5062085 13.38540527 45.01241699 12.74682617 44.50366211 C9.72846123 41.87460603 9.72846123 41.87460603 6 41 Z " fill="#000000" transform="translate(236,0)"/>
</svg>
