<?xml version="1.0" encoding="UTF-8"?>
<svg version="1.1" xmlns="http://www.w3.org/2000/svg" width="512" height="512">
<path d="M0 0 C2.41765499 -0.00435298 4.83530861 -0.00953808 7.25296021 -0.01548767 C13.11300952 -0.02744467 18.97300545 -0.03003659 24.83306548 -0.02768741 C29.60235124 -0.02589645 34.37162317 -0.02767045 39.14090729 -0.03191185 C39.82252722 -0.03250704 40.50414715 -0.03310223 41.20642222 -0.03371545 C42.59164085 -0.03492735 43.97685948 -0.03614148 45.3620781 -0.03735783 C58.32270314 -0.04820831 71.28330209 -0.04608289 84.24392858 -0.03997298 C96.06539385 -0.03480769 107.88677662 -0.04605347 119.70822558 -0.0650712 C131.88461062 -0.08450775 144.06095674 -0.09269534 156.23735738 -0.08894795 C163.05815552 -0.08704449 169.87888351 -0.08943923 176.69966888 -0.10366249 C183.11841666 -0.11630332 189.53700023 -0.11423779 195.9557457 -0.1012516 C198.29972516 -0.09889975 200.64371641 -0.10157004 202.98768234 -0.10987473 C243.28789951 -0.2422656 278.43063942 12.22978547 307.45458984 40.73168945 C309.07837069 42.32373024 310.7222306 43.89305724 312.36816406 45.4621582 C333.53024154 65.86152747 347.35681191 90.69492288 354.02832031 119.2746582 C354.20885263 120.02908455 354.38938496 120.78351089 354.57538795 121.56079865 C356.81257405 132.65946571 356.32439114 144.00176461 356.31884766 155.26879883 C356.32483889 157.70114344 356.3316458 160.13348616 356.33920288 162.56582642 C356.35498675 168.46644959 356.36130879 174.36703512 356.36242764 180.2676751 C356.36338223 185.07176125 356.3675129 189.87583436 356.37382889 194.67991638 C356.39142134 208.34209407 356.40067121 222.00424049 356.39916794 235.66642958 C356.39904807 236.76849396 356.39904807 236.76849396 356.39892578 237.89282227 C356.39884402 238.62844373 356.39876226 239.3640652 356.39867802 240.12197822 C356.39786629 252.02556679 356.41698065 263.92902848 356.44520251 275.83258039 C356.4740447 288.09596041 356.48773653 300.3592788 356.48601496 312.62269354 C356.48535482 319.49113678 356.49067991 326.35944709 356.51237106 333.2278595 C356.53266885 339.69585765 356.53179433 346.16364897 356.5173378 352.63166428 C356.51526359 354.99051195 356.51986655 357.34937765 356.53205872 359.70819473 C356.73152309 401.01102249 342.78073811 435.66661979 314.02832031 465.2746582 C313.50334961 465.82541016 312.97837891 466.37616211 312.4375 466.94360352 C289.05500581 491.4646245 256.48132706 510.90785146 221.78001332 512.369349 C219.1482028 512.40899584 216.51800611 512.41754463 213.88589478 512.4151001 C212.87918743 512.41807122 211.87248009 512.42104234 210.83526647 512.4241035 C207.46943348 512.43275945 204.10363619 512.43429614 200.73779297 512.43579102 C198.32102381 512.44042151 195.90425538 512.44544649 193.48748779 512.45083618 C186.92498751 512.46394287 180.36249462 512.47043948 173.79998446 512.47484684 C169.69498727 512.47761615 165.58999241 512.48185484 161.4849968 512.48635101 C150.09955048 512.49854138 138.71410603 512.50883976 127.32865334 512.5122261 C126.60070815 512.51244567 125.87276296 512.51266524 125.12275883 512.51289146 C124.02834744 512.51321887 124.02834744 512.51321887 122.91182673 512.5135529 C121.43356808 512.51399636 119.95530943 512.51444292 118.47705078 512.51489258 C117.37716877 512.51522472 117.37716877 512.51522472 116.25506692 512.51556358 C104.39442549 512.51950502 92.53384574 512.53694006 80.6732281 512.5602521 C68.46991805 512.58404215 56.26663885 512.5964315 44.06330526 512.59759402 C37.22229041 512.59850673 30.38135587 512.60415577 23.54036331 512.62241364 C17.09709615 512.63955031 10.65394014 512.6410104 4.21065521 512.63227463 C1.85700192 512.63150851 -0.49665979 512.63579026 -2.85029221 512.64573288 C-44.31139719 512.8104845 -78.95358232 499.07771492 -108.97167969 470.2746582 C-109.77871338 469.50847168 -109.77871338 469.50847168 -110.60205078 468.72680664 C-132.52900663 447.82375269 -147.07825251 422.80573066 -153.97167969 393.2746582 C-154.15221201 392.52004775 -154.33274433 391.7654373 -154.51874733 390.98795986 C-156.75454507 379.89428349 -156.26775183 368.55831112 -156.26220703 357.29638672 C-156.2681983 354.86566462 -156.27500522 352.43494442 -156.28256226 350.00422668 C-156.29834651 344.10727851 -156.30466821 338.21036801 -156.30578701 332.31340302 C-156.30674167 327.51170913 -156.31087269 322.7100283 -156.31718826 317.90833855 C-156.33478159 304.25122652 -156.34403056 290.59414577 -156.34252732 276.93702234 C-156.34240745 275.83535204 -156.34240745 275.83535204 -156.34228516 274.71142578 C-156.34220339 273.97606663 -156.34212163 273.24070747 -156.34203739 272.4830647 C-156.34122586 260.58661817 -156.36033516 248.69029866 -156.38856189 236.79388881 C-156.41741288 224.53615402 -156.43109539 212.27848091 -156.42937434 200.02071136 C-156.42871445 193.15614859 -156.434028 186.29171885 -156.45573044 179.42718697 C-156.47604255 172.96164803 -156.47514487 166.49631595 -156.46069717 160.03075981 C-156.45862451 157.67394473 -156.46321642 155.31711156 -156.47541809 152.96032715 C-156.67592462 111.50640739 -142.80285773 76.96380062 -113.97167969 47.2746582 C-113.44670898 46.72390625 -112.92173828 46.1731543 -112.38085938 45.60571289 C-94.25591833 26.59824276 -72.59267158 12.22631008 -47.22167969 4.8996582 C-46.39539063 4.66102051 -45.56910156 4.42238281 -44.71777344 4.17651367 C-29.79863215 0.11486556 -15.35603826 -0.01830954 0 0 Z M-83.97167969 75.2746582 C-84.45765625 75.75128906 -84.94363281 76.22791992 -85.44433594 76.71899414 C-99.10500697 90.2773032 -108.67361183 107.06304817 -113.28417969 125.7746582 C-113.52370361 126.73359985 -113.52370361 126.73359985 -113.76806641 127.71191406 C-116.81557095 141.29098818 -116.1161358 155.6404847 -116.10107422 169.4699707 C-116.10243179 171.57737254 -116.10421372 173.68477414 -116.10638428 175.79217529 C-116.11091625 181.47806132 -116.10918657 187.16392905 -116.10600519 192.84981537 C-116.10345961 198.82232205 -116.10582523 204.79482724 -116.10739136 210.76733398 C-116.10920665 220.79386677 -116.10682355 230.82039217 -116.10205078 240.84692383 C-116.0966094 252.41104537 -116.09837251 263.97514928 -116.10387719 275.5392704 C-116.10842656 285.49807701 -116.10904994 295.45687834 -116.10643852 305.41568565 C-116.10488578 311.35047062 -116.10465436 317.28524732 -116.10797501 323.22003174 C-116.11088028 328.80154489 -116.10882953 334.38303547 -116.10308075 339.9645462 C-116.10176734 342.00339979 -116.10212292 344.0422553 -116.10434341 346.08110809 C-116.14234332 384.5413634 -108.14348468 412.08636175 -81.15917969 440.3996582 C-53.69503559 466.91290526 -23.75258876 472.4305145 13.14428711 472.41992188 C15.24357665 472.42291976 17.34286564 472.42632372 19.44215393 472.43009949 C25.10771216 472.43887949 30.77325527 472.44127505 36.43881965 472.44191527 C39.98857576 472.44262917 43.5383281 472.44476989 47.08808327 472.44741249 C59.50070055 472.45664596 71.91330713 472.46074987 84.32592773 472.45996094 C95.85020074 472.45936064 107.37442687 472.46990827 118.89868802 472.4857046 C128.83209599 472.49882947 138.76548873 472.50414277 148.69890529 472.50350553 C154.61430153 472.503252 160.52965605 472.50602235 166.44504356 472.51668358 C172.0142783 472.5264483 177.58343213 472.52638706 183.15266991 472.51916695 C185.1813621 472.51813144 187.21005956 472.52042144 189.23874283 472.5265274 C228.79641682 472.63775436 257.52059202 463.56238029 286.02832031 435.2746582 C286.88554687 434.43032227 287.74277344 433.58598633 288.62597656 432.71606445 C300.75746154 420.02828564 309.16169668 403.73528739 313.34082031 386.7746582 C313.58034424 385.81571655 313.58034424 385.81571655 313.82470703 384.83740234 C316.87221158 371.25832823 316.17277643 356.90883171 316.15771484 343.0793457 C316.15907242 340.97194387 316.16085434 338.86454227 316.1630249 336.75714111 C316.16755687 331.07125509 316.1658272 325.38538735 316.16264582 319.69950104 C316.16010023 313.72699436 316.16246585 307.75448917 316.16403198 301.78198242 C316.16584728 291.75544964 316.16346417 281.72892424 316.15869141 271.70239258 C316.15325003 260.13827103 316.15501313 248.57416712 316.16051781 237.01004601 C316.16506718 227.05123939 316.16569057 217.09243807 316.16307914 207.13363075 C316.1615264 201.19884579 316.16129499 195.26406909 316.16461563 189.32928467 C316.16752091 183.74777152 316.16547016 178.16628094 316.15972137 172.5847702 C316.15840796 170.54591662 316.15876354 168.50706111 316.16098404 166.46820831 C316.19929179 127.69637641 307.95622564 99.72967746 280.46582031 71.4621582 C266.34077915 57.76211828 249.65917577 47.63690678 230.46582031 42.9621582 C229.81838867 42.80263672 229.17095703 42.64311523 228.50390625 42.47875977 C215.2301015 39.51229033 201.34007804 40.12556227 187.82641602 40.12939453 C185.70594728 40.12639736 183.58547909 40.12299356 181.4650116 40.11921692 C175.73747983 40.11042948 170.00996303 40.10804103 164.28242517 40.10740113 C160.69499257 40.10668764 157.10756372 40.10454768 153.52013206 40.10190392 C140.97899511 40.09266788 128.43786875 40.08856684 115.89672852 40.08935547 C104.24805653 40.08995579 92.59943093 40.07940841 80.95077068 40.06361181 C70.91463929 40.05049198 60.87852297 40.04517343 50.84238309 40.04581088 C44.8638468 40.04606456 38.88535178 40.04328555 32.90682411 40.03263283 C27.27851015 40.02287674 21.65027627 40.0229236 16.0219593 40.03014946 C13.97027213 40.03118603 11.91857977 40.02888842 9.8669014 40.022789 C-27.85795092 39.91800613 -56.94764958 48.47525239 -83.97167969 75.2746582 Z " fill="#000000" transform="translate(155.9716796875,-0.274658203125)"/>
<path d="M0 0 C5.55353962 2.49385364 9.19274981 6.10909644 11.8046875 11.6640625 C12.74544378 14.45332236 13.0278038 16.67983613 13.0703125 19.6171875 C13.09867187 20.50019531 13.12703125 21.38320312 13.15625 22.29296875 C11.72317834 31.65651321 5.15208944 37.38041652 -1.3203125 43.7109375 C-2.30196226 44.6851127 -3.28272212 45.66018538 -4.26263428 46.6361084 C-6.825 49.18331335 -9.39915129 51.71826682 -11.97607422 54.25073242 C-14.6111651 56.84466274 -17.23475323 59.45017223 -19.859375 62.0546875 C-24.99671671 67.14932739 -30.14658322 72.23106066 -35.3046875 77.3046875 C-34.13793267 77.30827003 -34.13793267 77.30827003 -32.94760704 77.31192493 C-14.018496 77.37106867 4.91048458 77.44661476 23.83945656 77.54040241 C32.9933825 77.58536223 42.14726953 77.62477648 51.30126953 77.65112305 C59.28017741 77.67410161 67.25896214 77.70749806 75.23777235 77.75338906 C79.46225077 77.77732321 83.68660721 77.79605072 87.91115189 77.80230141 C91.88879282 77.80835141 95.86612163 77.82834806 99.843647 77.85896301 C101.30208163 77.86774461 102.76055704 77.87146556 104.21901703 77.86969566 C106.21380649 77.86803948 108.20858207 77.88653047 110.20327759 77.90596008 C111.87633185 77.91287353 111.87633185 77.91287353 113.5831852 77.91992664 C119.90163832 78.70109438 123.62675065 81.76024182 127.4375 86.55859375 C131.18052988 91.75466318 131.4478471 97.06531838 130.6953125 103.3046875 C128.87006894 109.50177191 125.00570582 113.74389012 119.6953125 117.3046875 C116.42467607 118.39489964 114.00757055 118.44303391 110.56404114 118.46290588 C109.28096573 118.4726947 107.99789032 118.48248352 106.67593384 118.49256897 C105.25116004 118.49847318 103.82638585 118.50428362 102.40161133 118.51000977 C100.90364817 118.51958833 99.40568771 118.5295984 97.9077301 118.54000854 C93.8378069 118.56706606 89.7678721 118.58807104 85.69790864 118.60801053 C81.44577556 118.62986485 77.19367829 118.65725625 72.9415741 118.68406677 C64.88810263 118.73400115 56.83461129 118.77893722 48.78110093 118.82208914 C39.61310479 118.87145514 30.44514457 118.92637563 21.27718318 118.98176873 C2.41659297 119.09560021 -16.44403114 119.20243672 -35.3046875 119.3046875 C-34.76233459 119.83815796 -34.21998169 120.37162842 -33.66119385 120.92126465 C-28.53107677 125.97095722 -23.41086764 131.03040187 -18.30127335 136.10085297 C-15.67455499 138.70677033 -13.04427944 141.30886614 -10.40527344 143.90234375 C-7.85466625 146.40922475 -5.31419398 148.92598771 -2.78020477 151.44966125 C-1.34904815 152.86992065 0.09220076 154.27998718 1.53363037 155.68981934 C7.1041784 161.25845619 11.76594106 166.22047902 13.2265625 174.2109375 C13.14251763 181.18666159 12.13569582 186.60981008 7.26953125 191.8359375 C2.75498781 195.848865 -1.62803809 197.59301385 -7.6171875 197.6796875 C-8.50019531 197.70804688 -9.38320312 197.73640625 -10.29296875 197.765625 C-18.5891654 196.49590878 -23.92696852 191.25984091 -29.58496094 185.52612305 C-30.76213432 184.35705414 -30.76213432 184.35705414 -31.96308899 183.16436768 C-34.54006771 180.59983897 -37.10232437 178.02115217 -39.6640625 175.44140625 C-41.45842882 173.647195 -43.25346279 171.85365124 -45.0491333 170.06074524 C-48.80428291 166.30697794 -52.55259717 162.54657204 -56.29541016 158.78051758 C-60.61117052 154.43814255 -64.93923606 150.10834076 -69.27418685 145.78512925 C-73.45978434 141.6103425 -77.63676173 137.42701681 -81.80994415 133.23981667 C-83.57966984 131.46558336 -85.3514784 129.69342507 -87.12541962 127.9234066 C-89.60505094 125.44669373 -92.07473339 122.96046602 -94.54199219 120.47143555 C-95.27245255 119.74547684 -96.0029129 119.01951813 -96.75550842 118.27156067 C-102.61252631 112.32866122 -106.87034318 107.15330321 -106.9296875 98.4296875 C-106.96320313 97.29789062 -106.99671875 96.16609375 -107.03125 95 C-105.34942052 86.44617911 -98.4954163 80.05304812 -92.49853516 74.09448242 C-91.73997726 73.32906128 -90.98141937 72.56364014 -90.19987488 71.77502441 C-87.71374173 69.27072929 -85.21682862 66.77753156 -82.71875 64.28515625 C-80.97492584 62.53676645 -79.23147266 60.78800656 -77.4883728 59.03889465 C-73.84361096 55.38522342 -70.19326006 51.73725082 -66.5390625 48.09301758 C-61.86450629 43.42996979 -57.20602846 38.75122073 -52.55182838 34.06786633 C-48.95914785 30.45681806 -45.35717911 26.85514839 -41.75245285 23.25612831 C-40.03104554 21.53487403 -38.31272595 19.81052583 -36.59761429 18.08299828 C-34.19777932 15.6682391 -31.78547941 13.26664217 -29.36962891 10.86791992 C-28.66910904 10.15773209 -27.96858917 9.44754425 -27.24684143 8.71583557 C-19.48962772 1.07298529 -11.01113161 -3.32200242 0 0 Z " fill="#000000" transform="translate(244.3046875,157.6953125)"/>
</svg>
