<?xml version="1.0" encoding="UTF-8"?>
<svg version="1.1" xmlns="http://www.w3.org/2000/svg" width="512" height="512">
<path d="M0 0 C5.42211795 4.82457843 10.44226061 9.77937827 14.99609375 15.4296875 C15.76566406 16.37328125 16.53523438 17.316875 17.328125 18.2890625 C36.29871039 41.96910309 47.71925915 69.4599286 51.99609375 99.4296875 C52.12757813 100.27917969 52.2590625 101.12867188 52.39453125 102.00390625 C57.81777501 143.99740188 43.95756571 185.28111362 19.27954102 218.83007812 C17.95104227 220.48583688 16.52363727 221.95754423 14.99609375 223.4296875 C16.50985456 226.99733035 18.60122504 229.26675037 21.34765625 231.9765625 C22.1984375 232.82089844 23.04921875 233.66523438 23.92578125 234.53515625 C25.25996094 235.84419922 25.25996094 235.84419922 26.62109375 237.1796875 C27.966875 238.51193359 27.966875 238.51193359 29.33984375 239.87109375 C31.55416379 242.06185719 33.7730181 244.24781513 35.99609375 246.4296875 C40.10925209 242.97711168 44.06028162 239.47053114 47.80859375 235.6171875 C51.37856973 231.94889893 53.34869999 230.24449646 58.49609375 229.8046875 C63.23340537 229.90911175 65.25400301 231.0483374 68.65620422 234.29716492 C69.52500528 235.11857656 70.39380634 235.93998821 71.28893471 236.78629112 C72.18229719 237.65861193 73.07565968 238.53093273 73.99609375 239.4296875 C74.85618734 240.2609144 75.71628094 241.0921413 76.60243797 241.9485569 C79.39727008 244.67331201 82.16842244 247.42102701 84.93432617 250.17504883 C85.98830342 251.22109931 87.04245185 252.26697734 88.09675598 253.31269836 C91.51866729 256.7087167 94.93542858 260.10989028 98.3515625 263.51171875 C99.53702267 264.69180831 100.72248629 265.87189442 101.90795326 267.05197716 C106.8405055 271.96296102 111.77164034 276.87536083 116.69907665 281.79147816 C123.71931897 288.79547509 130.74793152 295.79082532 137.78844565 302.77444631 C142.76399486 307.7111723 147.72980686 312.65756186 152.68861848 317.61109942 C155.63976693 320.55861543 158.59484988 323.5018998 161.5604763 326.43485451 C164.3500747 329.19414789 167.12728781 331.96535281 169.89591789 334.74567986 C170.90613376 335.7561145 171.92054045 336.76238187 172.93969345 337.76380157 C183.08732431 347.74456848 191.04563174 358.49652695 191.42797852 373.14086914 C191.45909371 386.51634328 188.9737611 396.45691855 179.3125 406.27734375 C169.20693524 415.66716868 159.75517573 419.0622633 145.98730469 418.90014648 C128.94797162 418.26498248 117.99753064 407.8946587 106.51953125 396.30957031 C105.40865071 395.19948242 104.29711523 394.09004962 103.1849823 392.98121643 C100.19316379 389.99449015 97.21068171 386.99860234 94.23003006 384.00073719 C91.10110306 380.85668111 87.96397968 377.72082279 84.82788086 374.58392334 C79.57113047 369.32349279 74.32002818 364.05747989 69.07275391 358.78759766 C62.33648218 352.02236191 55.59088969 345.26649952 48.84234619 338.51350784 C43.03259486 332.69977946 37.22710772 326.88179832 31.42230988 321.06312466 C29.5583027 319.19502081 27.69371067 317.32750221 25.82904053 315.46006012 C22.90447105 312.53059962 19.98257206 309.59850056 17.06273842 306.66431999 C15.99046839 305.58752729 14.91735435 304.51157433 13.84334373 303.43651772 C12.37963914 301.97106731 10.919043 300.50258827 9.45922852 299.03326416 C8.64075943 298.21182041 7.82229034 297.39037666 6.97901917 296.54404068 C3.0732568 292.37940544 2.36755157 289.59025641 2.49609375 284.046875 C3.40880227 279.26941632 6.55950906 276.66082419 9.99609375 273.4296875 C11.64322959 271.76430807 13.28906187 270.09763835 14.93359375 268.4296875 C16.28525879 267.09381821 17.63852201 265.7595537 18.99609375 264.4296875 C14.61166849 259.17793824 9.98767282 254.29746277 5.12109375 249.4921875 C4.08855469 248.46641602 4.08855469 248.46641602 3.03515625 247.41992188 C1.35775864 245.75417286 -0.32194416 244.0908253 -2.00390625 242.4296875 C-5.47966299 244.09648653 -8.27696367 246.10855825 -11.31640625 248.4921875 C-44.99843484 274.22406247 -87.41131466 284.35107034 -129.25390625 279.3671875 C-161.15669814 275.02058983 -189.7448599 261.38068208 -214.00390625 240.4296875 C-215.20660156 239.41068359 -215.20660156 239.41068359 -216.43359375 238.37109375 C-221.42140718 234.06343669 -225.81556083 229.51217408 -230.00390625 224.4296875 C-230.62910156 223.69234375 -231.25429687 222.955 -231.8984375 222.1953125 C-241.45501494 210.65956221 -248.77663827 198.00634481 -255.00390625 184.4296875 C-255.28363281 183.82044434 -255.56335938 183.21120117 -255.8515625 182.58349609 C-272.69360409 145.12622606 -272.53717323 100.15494679 -258.07666016 61.98193359 C-241.98510195 21.99461617 -211.53217905 -10.76587142 -171.83203125 -28.015625 C-112.9309916 -52.44024966 -48.11933566 -41.17363181 0 0 Z M-197.00390625 14.4296875 C-197.83277344 15.13738281 -198.66164062 15.84507813 -199.515625 16.57421875 C-226.78983051 40.42348574 -243.47664601 74.30773557 -246.00390625 110.4296875 C-248.20470519 147.53498636 -235.71463845 182.12051027 -212.00390625 210.4296875 C-211.12412109 211.49509766 -211.12412109 211.49509766 -210.2265625 212.58203125 C-206.18543315 217.35624528 -201.84394524 221.47482342 -197.00390625 225.4296875 C-195.63492188 226.57244141 -195.63492188 226.57244141 -194.23828125 227.73828125 C-165.65861005 250.75281547 -129.67697696 261.13722129 -93.22387695 257.51611328 C-61.02203941 253.79147005 -33.2108539 239.78718612 -10.00390625 217.4296875 C-9.29878906 216.78773438 -8.59367188 216.14578125 -7.8671875 215.484375 C8.84174352 199.82610699 19.18293746 178.40219285 25.74609375 156.8046875 C25.94485107 156.16104248 26.1436084 155.51739746 26.34838867 154.85424805 C29.67712608 143.37845082 30.40459387 131.76114919 30.37109375 119.8671875 C30.37077652 118.82028244 30.37077652 118.82028244 30.37045288 117.75222778 C30.33489136 105.94091639 29.23838856 94.81901396 25.99609375 83.4296875 C25.8141748 82.76275879 25.63225586 82.09583008 25.44482422 81.40869141 C22.57365276 71.11198802 18.02701729 61.80018671 12.99609375 52.4296875 C12.44050781 51.3675 11.88492187 50.3053125 11.3125 49.2109375 C6.83644377 41.05313717 1.12067817 34.3640574 -5.00390625 27.4296875 C-6.06879472 26.13998925 -7.13183318 24.84875625 -8.19140625 23.5546875 C-28.11501178 0.60896204 -59.40649482 -13.38515817 -89.00390625 -17.5703125 C-89.8546875 -17.70050781 -90.70546875 -17.83070312 -91.58203125 -17.96484375 C-129.38239108 -22.78631822 -168.37417639 -10.39575117 -197.00390625 14.4296875 Z M55.19873047 260 C54.01927146 261.17977693 52.8453318 262.36508729 51.67578125 263.5546875 C51.05712189 264.17617676 50.43846252 264.79766602 49.80105591 265.43798828 C47.81967644 267.43059273 45.84535026 269.43002783 43.87109375 271.4296875 C42.53170773 272.77910032 41.19186974 274.12806468 39.8515625 275.4765625 C36.56113265 278.78908345 33.27701369 282.10774818 29.99609375 285.4296875 C31.48426464 288.88286157 33.44470509 291.13598642 36.08631897 293.79406738 C37.3709201 295.09363121 37.3709201 295.09363121 38.68147278 296.41944885 C39.63266975 297.37154158 40.58398287 298.32351829 41.53540039 299.27539062 C42.53625167 300.28386559 43.53669941 301.29274119 44.53677368 302.30198669 C47.25325307 305.04040201 49.97626878 307.77222494 52.70119405 310.50223351 C54.40519282 312.20987806 56.1078865 313.91881308 57.81014824 315.62818909 C63.75434812 321.59688396 69.70424837 327.55983494 75.65893555 333.51806641 C81.20002079 339.06278306 86.72784942 344.62047881 92.24975497 350.18429041 C96.9976839 354.9669773 101.75525252 359.73993281 106.52024359 364.50562048 C109.36298236 367.34915043 112.20164302 370.19647599 115.03047371 373.05384827 C117.69443722 375.74408537 120.37024995 378.42195844 123.0553627 381.09108162 C124.0347855 382.06869709 125.01001064 383.05054045 125.98049355 384.03703117 C132.32752421 390.48225783 138.60436993 396.3846257 148.05859375 396.8671875 C154.87752905 396.10952802 159.1676041 394.71586661 163.87109375 389.5546875 C168.20502911 384.10518335 169.21022507 380.09957397 169.45703125 373.22265625 C167.93133744 363.97798613 161.30510204 358.17616682 154.93505859 351.8828125 C153.90239977 350.84800469 152.87060821 349.8123308 151.83961487 348.77586365 C149.05343125 345.9800364 146.25499387 343.1967857 143.45382643 340.41598129 C140.52134396 337.50112832 137.59947306 334.57567285 134.67617798 331.65161133 C129.77203319 326.74933548 124.86022656 321.85484578 119.94335938 316.96533203 C114.25391531 311.30742209 108.5750767 305.63904232 102.90211141 299.96461296 C97.44267295 294.50395576 91.97755296 289.04902433 86.50920486 283.59729004 C84.18151861 281.27667516 81.85554792 278.95436036 79.53086472 276.6307373 C76.7990341 273.90090948 74.06218245 271.17621736 71.32128716 268.45549202 C70.31415238 267.45421744 69.30872186 266.45122541 68.30508995 265.44643974 C66.93997545 264.08034962 65.56812575 262.72099958 64.19589233 261.36206055 C63.42862509 260.59814499 62.66135784 259.83422943 61.87084007 259.04716492 C58.72688142 256.33464746 58.27057182 257.17748772 55.19873047 260 Z " fill="#000000" transform="translate(289.00390625,61.5703125)"/>
<path d="M0 0 C1.43279297 1.20849609 1.43279297 1.20849609 2.89453125 2.44140625 C3.73628906 3.13363281 4.57804688 3.82585937 5.4453125 4.5390625 C9.07504261 7.78196524 11.29827267 10.23243513 12.08203125 15.12890625 C12.16943351 19.03511514 11.53957683 21.44368793 8.89453125 24.44140625 C5.99252762 26.77913139 4.17152231 27.40615284 0.45703125 27.87890625 C-5.63427008 27.1308517 -8.83369802 23.70198827 -13.16796875 19.69140625 C-33.09548178 1.79323929 -59.00113761 -3.86212055 -85.10546875 -2.55859375 C-105.76222538 -0.73710339 -124.09918688 8.97420107 -139.44921875 22.5078125 C-145.79195949 27.88393693 -145.79195949 27.88393693 -150.29296875 28.19140625 C-155.09669767 27.2464104 -156.72299312 25.90638129 -160.10546875 22.44140625 C-161.68871632 19.27491112 -161.74921111 15.86682431 -161.10546875 12.44140625 C-150.38705543 -6.37151321 -124.33393 -17.0373664 -104.6640625 -22.94140625 C-68.79712481 -32.55842281 -28.5467216 -23.39108137 0 0 Z " fill="#000000" transform="translate(256.10546875,89.55859375)"/>
</svg>
