<?xml version="1.0" encoding="UTF-8"?>
<svg version="1.1" xmlns="http://www.w3.org/2000/svg" width="512" height="512">
<path d="M0 0 C1.24622531 -0.00551503 1.24622531 -0.00551503 2.51762688 -0.01114148 C5.3000978 -0.02214951 8.08253134 -0.02601733 10.86502075 -0.02983093 C12.86110044 -0.03609797 14.85717897 -0.04274498 16.85325623 -0.04974365 C23.4094156 -0.07076531 29.96557514 -0.08114718 36.52175903 -0.09111023 C38.78273658 -0.09515908 41.04371401 -0.09927605 43.30469131 -0.10346031 C53.93269846 -0.12251116 64.56069869 -0.13674004 75.18871963 -0.14507228 C87.43371098 -0.15483186 99.67852095 -0.18111849 111.92344844 -0.22157317 C121.40141379 -0.25180507 130.87932737 -0.26654803 140.35733998 -0.26985329 C146.01123618 -0.27219651 151.66493859 -0.28106142 157.31878281 -0.30631447 C162.64582476 -0.32972284 167.9725471 -0.33377736 173.2996273 -0.32355309 C175.24453614 -0.32306064 177.18946138 -0.32929415 179.13432121 -0.34310913 C198.57489731 -0.47336578 214.81416123 2.44012034 229.52957153 16.33467102 C236.82493558 24.00901502 242.14340646 32.83271331 244.71707153 43.14717102 C244.98970825 44.23191711 244.98970825 44.23191711 245.26785278 45.33857727 C247.88645587 61.71053917 244.93881484 77.28361061 235.71707153 91.14717102 C226.71076863 103.17944846 214.46264233 111.10783801 199.71707153 114.14717102 C192.8075777 114.99834484 185.83192216 114.833022 178.88308716 114.79414368 C176.82641327 114.80093352 174.76974547 114.80984427 172.71308899 114.82069397 C167.16960444 114.8433312 161.62658937 114.83471564 156.08309746 114.81879854 C150.25652766 114.80605837 144.4299956 114.81790206 138.60342407 114.82572937 C128.82238619 114.8348024 119.04153764 114.8228997 109.26052856 114.79902649 C97.98425258 114.77181991 86.70842876 114.78063573 75.43216372 114.80815852 C65.71616919 114.83091555 56.00031006 114.83401749 46.28429747 114.82096517 C40.49641741 114.81320686 34.70874926 114.81202884 28.92088318 114.82864761 C23.47703913 114.84318935 18.03377285 114.83289451 12.58999062 114.80417633 C10.60316739 114.79761709 8.61629476 114.79937361 6.62949181 114.81048965 C-11.58702367 114.90294147 -27.13704211 111.74779159 -41.03292847 98.89717102 C-52.97307563 86.0429456 -57.78019084 70.48313761 -57.49386597 53.24873352 C-56.88227617 36.91702085 -48.81673992 24.06394729 -37.28292847 13.14717102 C-26.84298495 4.02683637 -13.68978259 -0.00326569 0 0 Z M-33.78292847 34.11592102 C-40.01703599 42.55794163 -42.47098559 52.73682051 -41.28292847 63.14717102 C-38.55356295 75.87904086 -32.93920531 85.51654533 -22.28292847 93.14717102 C-14.17864987 97.62731406 -7.31628801 99.29656983 1.90629578 99.29434204 C3.13732014 99.29985707 3.13732014 99.29985707 4.39321369 99.30548352 C7.14122802 99.31649009 9.8892045 99.32035908 12.63723755 99.32417297 C14.60862853 99.33043998 16.58001834 99.33708699 18.55140686 99.34408569 C25.02458884 99.36510271 31.49777099 99.37548683 37.97097778 99.38545227 C40.2023056 99.3895009 42.43363329 99.39361785 44.66496086 99.39780235 C55.15040088 99.41684993 65.63583389 99.4310811 76.12128788 99.43941432 C88.2100988 99.44918129 100.29872636 99.47548866 112.38747269 99.51591522 C121.74055145 99.54611582 131.09357777 99.560887 140.44670433 99.56419533 C146.02840595 99.56654156 151.60991159 99.57544633 157.19156075 99.60065651 C162.44718722 99.6240108 167.70248968 99.62814086 172.95815468 99.61789513 C174.8801354 99.61740142 176.80213248 99.62367268 178.72406387 99.63745117 C194.25328316 99.74249316 206.75256713 98.05487377 218.71707153 87.14717102 C226.91352211 78.0975583 230.48171007 67.37601729 230.03347778 55.24482727 C228.92958271 44.43755824 223.90847041 34.30401839 215.97488403 26.81513977 C206.93161798 20.13438786 197.73078736 16.99728839 186.57254028 17 C185.75664649 16.99632331 184.9407527 16.99264662 184.10013485 16.98885852 C181.36827399 16.9778524 178.63645121 16.97398303 175.90457153 16.97016907 C173.94465515 16.96390198 171.98473995 16.95725496 170.02482605 16.95025635 C163.58891626 16.92923855 157.15300629 16.91885444 150.71707153 16.90888977 C148.49814848 16.90484103 146.27922554 16.90072407 144.06030273 16.89653969 C133.63199181 16.87749114 123.20368794 16.86326075 112.77536297 16.85492772 C100.75561216 16.84516345 88.7360459 16.81886357 76.71636009 16.77842683 C67.41506994 16.74821429 58.11383253 16.73345387 48.81249428 16.73014671 C43.26261831 16.72780164 37.71293958 16.71891224 32.16311646 16.69368553 C26.93621353 16.67031061 21.70963638 16.66620938 16.48269463 16.67644691 C14.57242178 16.67694014 12.66213238 16.67068329 10.75190926 16.65689087 C-7.69499425 16.5312348 -21.42642829 19.24235599 -33.78292847 34.11592102 Z " fill="#000000" transform="translate(235.28292846679688,53.85282897949219)"/>
<path d="M0 0 C1.25741761 -0.00657338 1.25741761 -0.00657338 2.54023761 -0.01327956 C5.34800965 -0.02662913 8.15575033 -0.03283789 10.96354675 -0.03897095 C12.97770834 -0.04687524 14.99186852 -0.05514439 17.00602722 -0.06375122 C23.62230584 -0.0899438 30.23859068 -0.10528083 36.85490417 -0.11953735 C39.13690889 -0.12489906 41.41891356 -0.13027657 43.7009182 -0.13566971 C53.19990014 -0.15729856 62.69888041 -0.17603164 72.19788074 -0.1872921 C85.78441312 -0.20350648 99.3706584 -0.23662338 112.95708257 -0.29369295 C122.52338398 -0.33249653 132.08960896 -0.35193738 141.65598696 -0.35721266 C147.36194276 -0.36085317 153.06759216 -0.37273507 158.7734623 -0.4053154 C164.15062146 -0.43557782 169.52729177 -0.44164341 174.90451813 -0.42993164 C176.86675281 -0.42971239 178.82901138 -0.43789289 180.79116631 -0.45558548 C199.90270698 -0.61838215 215.99682802 2.84997553 230.39787292 16.40390015 C242.76725615 29.45924201 247.10822088 43.82420902 246.85490417 61.31796265 C246.4317584 74.73921209 240.90858507 87.51979846 231.64787292 97.31796265 C219.60423105 108.37364953 206.121771 114.49462268 189.78108215 114.41459656 C188.93585822 114.4184221 188.09063428 114.42224765 187.21979749 114.42618912 C184.41271737 114.43643459 181.60584503 114.43254317 178.79875183 114.42855835 C176.77588717 114.43290951 174.75302416 114.438094 172.73016357 114.44404602 C167.25284123 114.45740377 161.77558803 114.45801828 156.29825258 114.45548272 C151.71837225 114.45441083 147.13850579 114.45930197 142.55862844 114.46408814 C131.75014985 114.47517217 120.94170601 114.47562693 110.13322449 114.46957397 C98.99910848 114.46353434 87.86511884 114.47584753 76.73102438 114.49714404 C67.15621978 114.51478171 57.58145532 114.52075798 48.00663507 114.5175063 C42.29484581 114.51569677 36.58314671 114.51829672 30.87137222 114.53222084 C25.49835362 114.54482978 20.1255315 114.54282603 14.75251579 114.52980995 C12.7865829 114.52745131 10.82063604 114.53015318 8.85471916 114.53843307 C-9.79202278 114.61127315 -25.18025297 111.82058259 -39.17243958 98.36483765 C-39.89173645 97.63522827 -40.61103333 96.9056189 -41.35212708 96.15390015 C-41.92704895 95.58929077 -42.50197083 95.0246814 -43.09431458 94.44296265 C-52.9773991 83.94538582 -56.8947045 69.39795478 -56.77180481 55.29647827 C-56.15500993 38.62120059 -49.29633177 25.02215646 -37.31697083 13.6343689 C-26.29890893 4.41635928 -14.23946369 0.00908752 0 0 Z M-32.85212708 33.12265015 C-39.0862346 41.56467075 -41.54018419 51.74354964 -40.35212708 62.15390015 C-37.62276156 74.88576999 -32.00840391 84.52327445 -21.35212708 92.15390015 C-13.26259971 96.62588853 -6.40706184 98.30330639 2.7991333 98.30107117 C4.02403234 98.3065862 4.02403234 98.3065862 5.27367681 98.31221265 C8.00787164 98.32321874 10.74202843 98.32708812 13.47624207 98.3309021 C15.43778096 98.33716914 17.39931868 98.34381616 19.3608551 98.35081482 C25.80157142 98.37183144 32.24228791 98.38221594 38.68302917 98.3921814 C40.90321299 98.39623004 43.12339668 98.400347 45.34358025 98.40453148 C55.77669453 98.42357898 66.20980177 98.43781016 76.64293009 98.44614345 C88.67118088 98.45591032 100.69924738 98.48221746 112.72743326 98.52264434 C122.03380329 98.5528456 131.34012061 98.56761619 140.64653867 98.57092446 C146.20029504 98.57327061 151.75385443 98.58217446 157.30755806 98.60738564 C162.53692018 98.63074107 167.76595666 98.63486954 172.99535751 98.62462425 C174.90766295 98.62413058 176.81998482 98.63040103 178.73224068 98.6441803 C194.12449055 98.74882793 207.04988588 97.05638088 218.80412292 86.15390015 C227.58877372 76.97590678 231.01204623 66.79435948 230.85881042 54.2749939 C230.13132319 43.51087718 224.73113682 33.20867391 216.90568542 25.8218689 C207.86241938 19.14111699 198.66158875 16.00401751 187.50334167 16.00672913 C186.68744788 16.00305244 185.87155409 15.99937575 185.03093624 15.99558765 C182.29907538 15.98458153 179.5672526 15.98071215 176.83537292 15.97689819 C174.87545654 15.9706311 172.91554135 15.96398409 170.95562744 15.95698547 C164.51971765 15.93596767 158.08380768 15.92558357 151.64787292 15.9156189 C149.42894987 15.91157015 147.21002693 15.9074532 144.99110413 15.90326881 C134.5627932 15.88422027 124.13448933 15.86998987 113.70616436 15.86165684 C101.68641355 15.85189258 89.6668473 15.8255927 77.64716148 15.78515595 C68.34587133 15.75494342 59.04463392 15.740183 49.74329567 15.73687583 C44.19341971 15.73453077 38.64374097 15.72564137 33.09391785 15.70041466 C27.86701492 15.67703973 22.64043777 15.6729385 17.41349602 15.68317604 C15.50322317 15.68366926 13.59293377 15.67741242 11.68271065 15.66362 C-6.76419286 15.53796393 -20.4956269 18.24908512 -32.85212708 33.12265015 Z " fill="#000000" transform="translate(234.3521270751953,198.84609985351563)"/>
<path d="M0 0 C0.85112549 -0.00453111 1.70225097 -0.00906223 2.57916814 -0.01373065 C5.41231681 -0.02632381 8.24527199 -0.02475756 11.07844543 -0.02310181 C13.11762233 -0.02909029 15.15679696 -0.03589658 17.19596863 -0.04345703 C22.72306318 -0.06109317 28.25009575 -0.06581145 33.77721572 -0.0670886 C37.23476727 -0.06851229 40.69230318 -0.07278607 44.14985085 -0.07808304 C56.22485475 -0.09657656 68.29981456 -0.10475464 80.37483215 -0.10317993 C91.60946111 -0.10197924 102.84389773 -0.1230692 114.07847804 -0.15466726 C123.74076746 -0.18086934 133.40299423 -0.19154555 143.06531888 -0.19026911 C148.82864067 -0.18976057 154.59179152 -0.19538406 160.35507774 -0.21662521 C165.77983865 -0.2360734 171.20426672 -0.23608709 176.62903976 -0.22159195 C178.61187416 -0.2195108 180.59472974 -0.224163 182.577528 -0.23631287 C201.49620558 -0.34466391 216.73991027 2.95024983 231.00349426 16.45492554 C242.62853689 28.73324866 247.82841135 42.6298093 247.59358215 59.38314819 C247.02902853 75.2834091 240.45840745 88.15926907 229.19099426 99.26742554 C228.62638489 99.84234741 228.06177551 100.41726929 227.48005676 101.00961304 C213.72785229 113.95681042 195.94611615 114.71647669 178.20075989 114.65560913 C176.19877843 114.65968068 174.19679922 114.66502582 172.19482422 114.67153931 C166.78782009 114.68514926 161.38098879 114.67994045 155.97398186 114.67040205 C150.29814587 114.66277259 144.62232404 114.66986016 138.94648743 114.67456055 C129.41744854 114.68000855 119.88847955 114.67285158 110.35945129 114.65853882 C99.36445402 114.64221419 88.36962368 114.64750337 77.37463045 114.66401803 C67.91099516 114.67766014 58.44740994 114.67953925 48.98376799 114.67170203 C43.34186285 114.66704048 37.700036 114.66635872 32.05813599 114.67631149 C26.75236564 114.68501859 21.44680918 114.67889113 16.14106178 114.66162872 C14.20135159 114.65768382 12.26162319 114.65876343 10.32192039 114.66541672 C-9.4129647 114.72683424 -25.65405612 111.45452242 -40.11369324 97.11508179 C-51.80673238 84.76113173 -56.29730488 70.20542096 -56.01994324 53.40414429 C-55.4866911 39.03596166 -48.77076746 25.48771048 -38.80900574 15.26742554 C-27.58670568 5.56303536 -14.85566759 -0.05891011 0 0 Z M-32.30900574 32.23617554 C-38.54311326 40.67819614 -40.99706286 50.85707503 -39.80900574 61.26742554 C-37.07964022 73.99929538 -31.46528258 83.63679984 -20.80900574 91.26742554 C-12.71947837 95.73941392 -5.86394051 97.41683179 3.34225464 97.41459656 C4.56715368 97.42011159 4.56715368 97.42011159 5.81679815 97.42573804 C8.55099298 97.43674413 11.28514977 97.44061351 14.0193634 97.44442749 C15.9809023 97.45069453 17.94244002 97.45734155 19.90397644 97.46434021 C26.34469276 97.48535683 32.78540925 97.49574133 39.22615051 97.50570679 C41.44633433 97.50975543 43.66651802 97.51387239 45.88670158 97.51805687 C56.31981587 97.53710437 66.7529231 97.55133555 77.18605143 97.55966884 C89.21430222 97.56943571 101.24236872 97.59574285 113.2705546 97.63616973 C122.57692463 97.66637099 131.88324195 97.68114158 141.18966001 97.68444985 C146.74341638 97.68679601 152.29697577 97.69569985 157.8506794 97.72091103 C163.08004152 97.74426646 168.309078 97.74839493 173.53847885 97.73814964 C175.45078429 97.73765597 177.36310616 97.74392642 179.27536201 97.75770569 C194.66761188 97.86235332 207.59300722 96.16990627 219.34724426 85.26742554 C228.13189505 76.08943217 231.55516757 65.90788487 231.40193176 53.38851929 C230.67444453 42.62440257 225.27425815 32.3221993 217.44880676 24.93539429 C208.40554071 18.25464238 199.20471009 15.1175429 188.04646301 15.12025452 C187.23056922 15.11657783 186.41467543 15.11290114 185.57405758 15.10911304 C182.84219672 15.09810692 180.11037394 15.09423754 177.37849426 15.09042358 C175.41857788 15.0841565 173.45866268 15.07750948 171.49874878 15.07051086 C165.06283899 15.04949307 158.62692902 15.03910896 152.19099426 15.02914429 C149.9720712 15.02509554 147.75314827 15.02097859 145.53422546 15.0167942 C135.10591454 14.99774566 124.67761067 14.98351526 114.2492857 14.97518224 C102.22953489 14.96541797 90.20996863 14.93911809 78.19028282 14.89868134 C68.88899267 14.86846881 59.58775526 14.85370839 50.28641701 14.85040122 C44.73654104 14.84805616 39.18686231 14.83916676 33.63703918 14.81394005 C28.41013626 14.79056512 23.18355911 14.78646389 17.95661736 14.79670143 C16.04634451 14.79719465 14.13605511 14.79093781 12.22583199 14.77714539 C-6.22107152 14.65148932 -19.95250556 17.36261051 -32.30900574 32.23617554 Z " fill="#000000" transform="translate(233.8090057373047,343.7325744628906)"/>
<path d="M0 0 C11.46326538 10.43315628 18.45670849 25.66773868 19.3828125 40.9921875 C20.03736921 60.69192009 15.45060527 76.49522556 2.4921875 91.71484375 C-4.77061177 99.24498532 -13.2340985 104.79323519 -23.0546875 108.35546875 C-23.92996094 108.67386719 -24.80523437 108.99226563 -25.70703125 109.3203125 C-42.04256681 114.29199724 -60.6803845 112.32611371 -75.8046875 104.66796875 C-92.78223116 94.56708595 -103.38898314 80.31112589 -108.42626953 61.31030273 C-109.43103377 56.58588098 -109.58723975 51.98570109 -109.5546875 47.16796875 C-109.54896729 46.17055664 -109.54324707 45.17314453 -109.53735352 44.14550781 C-109.1269315 26.9602951 -102.36552745 13.29003371 -90.625 0.7734375 C-63.81274471 -24.44964157 -27.54262115 -22.0445694 0 0 Z M-64.0546875 2.35546875 C-65.16457031 2.84853516 -65.16457031 2.84853516 -66.296875 3.3515625 C-78.05017586 9.22821293 -86.13559247 18.58604152 -90.8671875 30.73046875 C-94.42941 41.60462164 -94.49226401 53.70528513 -90.0546875 64.35546875 C-89.79945312 65.02578125 -89.54421875 65.69609375 -89.28125 66.38671875 C-84.49957474 77.441601 -73.83013482 87.15694986 -62.8046875 91.73046875 C-50.30357392 96.42859967 -36.20631603 95.64831726 -24.0546875 90.35546875 C-10.63515902 83.53976086 -2.68139471 73.13622853 2.0859375 58.96484375 C4.90318336 47.13241112 3.38218072 34.42692217 -2.48046875 23.76171875 C-3.91470506 21.53809657 -5.43315831 19.44515598 -7.0546875 17.35546875 C-7.7971875 16.32421875 -8.5396875 15.29296875 -9.3046875 14.23046875 C-18.16187471 4.97068212 -29.37850024 -0.72148654 -42.23706055 -1.13427734 C-49.84616105 -1.16542267 -57.03342454 -0.8442581 -64.0546875 2.35546875 Z " fill="#000000" transform="translate(141.0546875,353.64453125)"/>
<path d="M0 0 C13.19264904 10.10461901 22.60996387 24.49121437 25.1953125 41.03515625 C27.02605836 61.36686956 23.7959458 77.31668963 11.203125 93.61328125 C-0.33834931 107.39540808 -15.93956619 115.28560644 -33.8046875 117.03515625 C-53.04454934 118.41995488 -69.37008205 111.27541956 -83.9296875 99.28515625 C-93.86687007 90.05777243 -101.94569878 75.0156736 -103.00952148 61.41674805 C-103.10866376 58.51589059 -103.1267288 55.62511927 -103.1171875 52.72265625 C-103.14135742 51.26956055 -103.14135742 51.26956055 -103.16601562 49.78710938 C-103.17731802 32.84482444 -95.66278775 17.00390752 -83.8046875 5.03515625 C-76.83269596 -1.07845056 -69.52954928 -5.80006458 -60.8046875 -8.96484375 C-59.92941406 -9.28324219 -59.05414063 -9.60164063 -58.15234375 -9.9296875 C-38.22661918 -15.99403846 -16.82356467 -11.78586773 0 0 Z M-75.1171875 20.22265625 C-84.33947591 31.30076451 -87.78872627 43.79453298 -87 58.00146484 C-86.11919823 67.17281326 -82.37640293 74.85480907 -76.8046875 82.03515625 C-75.6909375 83.58203125 -75.6909375 83.58203125 -74.5546875 85.16015625 C-65.70061983 94.41668154 -54.15279976 99.9994971 -41.35693359 100.37841797 C-26.99670705 100.56147636 -15.02749353 96.83870736 -4.4296875 86.78125 C5.47447084 76.37210991 9.60699464 65.49790865 9.56396484 51.24511719 C9.1495716 36.72450857 2.6040451 25.66991229 -7.69921875 15.78515625 C-11.11704906 12.94436222 -14.80153642 10.93214496 -18.8046875 9.03515625 C-19.44792969 8.72707031 -20.09117188 8.41898438 -20.75390625 8.1015625 C-39.14111698 -0.23450484 -61.55660821 6.04568699 -75.1171875 20.22265625 Z " fill="#000000" transform="translate(134.8046875,58.96484375)"/>
<path d="M0 0 C13.08373594 9.93845122 23.28109562 24.52988508 26 41 C27.55608131 60.92757797 24.84650035 78.0373152 12.60546875 94.15234375 C1.88045659 106.46499551 -13.00163382 115.90206302 -29.58666992 117.20288086 C-49.75804677 117.93895531 -66.46788962 114.65434168 -82 101.125 C-94.32036128 89.13318169 -102.12325744 73.7195083 -102.38061523 56.4230957 C-102.36223239 46.23979967 -102.30782445 37.39540348 -98 28 C-97.51402344 26.91847656 -97.02804688 25.83695313 -96.52734375 24.72265625 C-88.36283662 8.18132619 -75.12460782 -2.59067401 -58 -9 C-38.16701818 -14.87316335 -17.06360621 -11.25171273 0 0 Z M-76.21484375 22.4765625 C-84.82290489 34.64463142 -86.94239582 46.47260591 -86 61 C-85.36467542 64.53370316 -84.37874174 67.69101983 -83 71 C-82.74476562 71.6703125 -82.48953125 72.340625 -82.2265625 73.03125 C-77.44488724 84.08613225 -66.77544732 93.80148111 -55.75 98.375 C-44.55118354 102.58370553 -31.06503217 102.61043007 -20 98 C-19.3296875 97.74476563 -18.659375 97.48953125 -17.96875 97.2265625 C-6.91386775 92.44488724 2.80148111 81.77544732 7.375 70.75 C12.07313092 58.24888642 11.29284851 44.15162853 6 32 C-0.98930048 18.238683 -11.47323941 10.85981222 -25.75 5.625 C-44.60004727 1.8628284 -63.78218133 7.51652107 -76.21484375 22.4765625 Z " fill="#000000" transform="translate(134,203)"/>
</svg>
