<?xml version="1.0" encoding="UTF-8"?>
<svg version="1.1" xmlns="http://www.w3.org/2000/svg" width="512" height="512">
<path d="M0 0 C0.680625 -0.02900391 1.36125 -0.05800781 2.0625 -0.08789062 C5.69164084 -0.13360655 7.59797268 0.21392613 10.671875 2.20703125 C13.5270166 5.0997405 13.71579968 5.90209617 14.0625 10.0625 C14.00654643 14.45885228 12.63670044 16.94468282 9.75 20.3125 C6.24366452 22.62073158 2.51302984 22.84001471 -1.56640625 23.20703125 C-3.054484 23.35620319 -4.54251944 23.5057977 -6.03051758 23.65576172 C-6.81037018 23.73179626 -7.59022278 23.80783081 -8.39370728 23.88616943 C-47.7594674 27.77312787 -103.55330117 33.37270421 -131.25 65.3125 C-133.89758543 69.93132261 -134.98851629 72.95825689 -134.25 78.3125 C-129.16652354 90.73877579 -114.87447609 97.2603317 -103.25 102.3125 C-71.43918477 115.0627656 -37.10561567 121.00577118 -3.25 125.3125 C-2.23712921 125.44874283 -2.23712921 125.44874283 -1.20379639 125.58773804 C14.11763111 127.61983803 29.43956852 127.71671309 44.875 127.875 C48.72058648 127.91920492 52.56609873 127.9660034 56.41159058 128.01780701 C58.78337863 128.04931175 61.15523214 128.07633376 63.52713013 128.09803772 C68.38798899 128.15879902 73.15223804 128.29733023 77.97998047 128.89038086 C79.22408691 129.02968018 80.46819336 129.16897949 81.75 129.3125 C82.08 128.9825 82.41 128.6525 82.75 128.3125 C84.09604109 128.20476351 85.4467856 128.15521962 86.796875 128.12890625 C100.30584022 127.59530335 112.64474576 125.14659759 125.625 121.5625 C126.77349426 121.24733932 126.77349426 121.24733932 127.94519043 120.92581177 C137.25029621 118.35247508 146.44259525 115.50477153 155.56906128 112.35479736 C170.9096894 107.10054359 170.9096894 107.10054359 178.75 108.3125 C181.90237657 110.12343973 183.31641269 111.56357647 185.125 114.6875 C186.14808128 118.98444139 185.52983 121.96122432 183.33203125 125.76953125 C179.5989584 129.44612796 175.50374069 130.49256104 170.5625 132 C169.2002832 132.44182617 169.2002832 132.44182617 167.81054688 132.89257812 C163.44725404 134.28246024 159.12498452 135.48194979 154.63671875 136.39453125 C153.35410156 136.69746094 152.07148438 137.00039062 150.75 137.3125 C150.42 137.9725 150.09 138.6325 149.75 139.3125 C150.33265625 139.5909375 150.9153125 139.869375 151.515625 140.15625 C153.63247807 141.25168445 155.52909619 142.47684618 157.5 143.8125 C164.52925707 148.22531138 172.20949775 149.55390577 180.34765625 147.73046875 C188.62627476 145.18051452 195.39547451 140.36203705 200.2265625 133.08984375 C204.11348951 125.60960652 205.30746557 117.01727389 203.06640625 108.80859375 C198.83292837 98.70797226 192.76873553 92.66235105 183 88 C175.44665117 86.40217621 169.08690609 86.76393096 161.90194702 89.529953 C158.63728088 90.7171359 155.29487398 91.55274386 151.921875 92.36328125 C151.18740646 92.54271271 150.45293793 92.72214417 149.69621277 92.90701294 C147.29934842 93.48784581 144.90018324 94.05804514 142.5 94.625 C141.25695602 94.91988815 141.25695602 94.91988815 139.98880005 95.22073364 C127.62064106 98.13606323 115.22149733 100.66094369 102.6875 102.75 C101.98274536 102.86928864 101.27799072 102.98857727 100.55187988 103.11148071 C80.79296248 106.42075475 61.21073613 107.6685876 41.1875 107.5625 C40.13962311 107.55939819 39.09174622 107.55629639 38.01211548 107.55310059 C12.22345247 107.46386052 -12.78122925 105.51246292 -38.25 101.3125 C-36.94277132 98.43093045 -35.54829213 96.35888189 -33.31887817 94.12068176 C-32.71923752 93.5139563 -32.11959686 92.90723083 -31.50178528 92.28211975 C-30.84522446 91.62803635 -30.18866364 90.97395294 -29.51220703 90.30004883 C-28.81917984 89.60191071 -28.12615265 88.90377258 -27.41212463 88.18447876 C-25.11585007 85.87428978 -22.81220401 83.57162182 -20.5078125 81.26953125 C-18.90252041 79.66035033 -17.29745169 78.05094655 -15.69259644 76.44132996 C-12.3215841 73.06284928 -8.94671385 69.6882788 -5.56933594 66.31616211 C-1.26624445 62.01883464 3.02544467 57.71032233 7.31399345 53.39848804 C10.63069093 50.06696282 13.95439248 46.74249277 17.28006363 43.4199276 C18.86344755 41.83603397 20.44450227 40.24980802 22.02306747 38.66111183 C43.97037127 16.5904013 67.66014792 0.14536712 99.94013977 0.01922607 C101.38497937 0.01992485 102.82981887 0.02084777 104.2746582 0.02197266 C105.82152629 0.01597745 107.36839141 0.00916965 108.91525269 0.00161743 C113.09103627 -0.01594764 117.26673774 -0.02073388 121.44255471 -0.02201414 C124.05821525 -0.02344156 126.6738553 -0.02772225 129.28951073 -0.03300858 C138.43382453 -0.05147656 147.57808027 -0.05968314 156.72241211 -0.05810547 C165.21576099 -0.05690455 173.70885558 -0.07800554 182.20214015 -0.1095928 C189.52054314 -0.13583048 196.83886344 -0.14646965 204.15731305 -0.14519465 C208.51663664 -0.14468727 212.87573387 -0.15024568 217.23501015 -0.17155075 C221.33838257 -0.19106043 225.44131559 -0.19097175 229.54470444 -0.17651749 C231.04054985 -0.17444405 232.53642372 -0.17904166 234.03222084 -0.1912384 C251.08629371 -0.32116333 264.9687432 4.30617722 277.578125 15.9765625 C288.78982618 28.03519075 291.20268837 39.00337539 291.16992188 54.86352539 C291.17726924 56.54478517 291.18585741 58.22603992 291.19558716 59.9072876 C291.21774991 64.45937366 291.2207362 69.01127839 291.21883965 73.563411 C291.21871962 77.37490824 291.22729749 81.18636754 291.23561716 84.99785417 C291.25483516 94.00046713 291.25774206 103.00298739 291.25097656 112.00561523 C291.24434805 121.26124261 291.26715582 130.51647023 291.30429029 139.77201658 C291.3350972 147.74264558 291.34633513 155.71314676 291.34245348 163.68383402 C291.34039604 168.43340407 291.34570744 173.18266344 291.37034607 177.93217659 C291.39279096 182.40659149 291.39058986 186.88036291 291.37041855 191.3547821 C291.36703878 192.98523914 291.3719646 194.615741 291.38640213 196.24613762 C291.5549586 216.7143921 284.27262699 233.84725682 270.75 249.3125 C269.68265625 250.54419922 269.68265625 250.54419922 268.59375 251.80078125 C264.67155927 256.24086688 260.62119609 260.55678416 256.5 264.8125 C255.71109375 265.6271875 254.9221875 266.441875 254.109375 267.28125 C250.48469495 270.40183548 248.18750302 271.38736995 243.375 271.13671875 C239.53066015 270.26262855 236.2615474 268.84654496 232.75 267.125 C216.72710539 259.75381769 199.29286361 256.27126803 181.75 255.3125 C180.69039063 255.25320312 179.63078125 255.19390625 178.5390625 255.1328125 C142.35837403 254.24068594 107.22724878 268.36742496 80.89453125 292.85546875 C72.75160835 300.63182266 65.74107148 308.77832173 59.75 318.3125 C59.36118652 318.92673828 58.97237305 319.54097656 58.57177734 320.17382812 C44.7430697 342.39548441 38.52116331 367.16057709 38.5 393.1875 C38.49932526 393.92926483 38.49865051 394.67102966 38.49795532 395.43527222 C38.51375441 406.35008076 38.90587421 416.71270588 41.75 427.3125 C41.92160645 427.96347656 42.09321289 428.61445313 42.27001953 429.28515625 C44.57669444 437.84397146 47.6615482 445.9265791 51.51464844 453.91040039 C53.38234528 457.89817153 54.42683766 460.92188355 53.75 465.3125 C51.09153491 469.76098285 47.92786032 473.44218758 44.27734375 477.0859375 C43.75419083 477.61337555 43.2310379 478.1408136 42.69203186 478.68423462 C41.58767565 479.79430289 40.48073139 480.90180187 39.37133789 482.00683594 C37.70761197 483.66742594 36.0576064 485.34082353 34.40820312 487.015625 C20.41735531 501.0903891 5.00144837 512.4589325 -15.58300781 512.83178711 C-16.52499023 512.82542236 -17.46697266 512.81905762 -18.4375 512.8125 C-19.43491211 512.80677979 -20.43232422 512.80105957 -21.45996094 512.79516602 C-43.63842929 512.26549369 -57.34335493 500.82706617 -72.32495117 485.78686523 C-73.81030581 484.31021924 -75.29648942 482.8344067 -76.78343201 481.35935974 C-80.79685977 477.37258007 -84.79752062 473.37322323 -88.79510283 469.37056231 C-92.14367346 466.01984322 -95.49819892 462.67511662 -98.85261995 459.33025604 C-106.77160067 451.43342021 -114.6799344 443.52603239 -122.58178711 435.61206055 C-130.71064672 427.47112489 -138.85768139 419.34871037 -147.01384753 411.23514026 C-154.03733611 404.24697539 -161.04905628 397.2471518 -168.05165654 390.23805577 C-172.22464074 386.06146006 -176.40186509 381.88935141 -180.59059715 377.72854424 C-184.53172309 373.81271551 -188.45785206 369.88242619 -192.37334633 365.94097328 C-193.80478545 364.50483389 -195.24125634 363.07368768 -196.68333435 361.64823151 C-211.75318301 346.73949614 -221.52299978 331.75852535 -221.75 309.875 C-221.58528288 292.66136925 -216.73693223 278.93958865 -204.77836609 266.22587585 C-204.25389159 265.66344986 -203.72941709 265.10102386 -203.18904942 264.52155465 C-197.51840656 258.47456162 -191.67153399 252.60798732 -185.79614258 246.76098633 C-184.60366675 245.57043635 -183.41142333 244.37965356 -182.21939087 243.18865967 C-179.68207068 240.6544654 -177.14321544 238.12182347 -174.60309792 235.59043312 C-170.58746619 231.58846139 -166.57577527 227.5825543 -162.56462097 223.57609558 C-154.06690057 215.08940287 -145.56490464 206.60699939 -137.0625 198.125 C-127.84255347 188.92710906 -118.62337714 179.72845311 -109.40903205 170.52495021 C-105.4190995 166.54000274 -101.42674179 162.55750574 -97.43251479 158.57686293 C-94.95950758 156.11129062 -92.48855208 153.64367012 -90.01816177 151.17547607 C-88.86970021 150.02889284 -87.72037146 148.88317748 -86.5701313 147.73837852 C-85.00550046 146.18092 -83.44394222 144.62044519 -81.88313293 143.05915833 C-81.00734494 142.18559094 -80.13155695 141.31202356 -79.22922993 140.41198444 C-77.20941805 138.4714462 -77.20941805 138.4714462 -76.25 136.3125 C-76.85150879 136.20873047 -77.45301758 136.10496094 -78.07275391 135.99804688 C-84.49535894 134.81248781 -90.49968205 133.06430792 -96.625 130.8125 C-97.57036621 130.46501709 -98.51573242 130.11753418 -99.48974609 129.75952148 C-120.89644492 121.67630923 -145.32052431 109.94394137 -155.5234375 88.07421875 C-158.74182863 80.27048542 -158.64213299 68.8506619 -155.75 60.875 C-144.66411179 37.96416436 -118.53549994 26.50619929 -95.86987305 18.56689453 C-65.73440263 8.23738812 -32.01350895 0.46531263 0 0 Z M30.75 165.3125 C29.863125 165.89 28.97625 166.4675 28.0625 167.0625 C19.65924764 175.23863743 13.87645354 186.48385724 13.4375 198.3125 C13.67033884 213.8350894 22.560202 224.66281056 33.05273438 235.0612793 C34.49636446 236.49638593 35.92028658 237.94921727 37.34375 239.40429688 C47.24442403 249.29813342 56.53524418 255.7088601 70.9375 255.75 C82.72944498 255.73080738 92.21684853 251.48463352 100.75 243.3125 C110.11233733 233.1699679 113.28183532 222.9810475 113.0234375 209.4296875 C112.3517663 194.92557962 102.0666767 185.24168455 92.37182617 175.50878906 C90.9373205 174.062319 89.52260451 172.59816156 88.10742188 171.1328125 C78.89502103 161.85008799 69.96373365 157.06772407 56.9375 156 C47.06259006 156.33374447 38.78145217 159.76484878 30.75 165.3125 Z M-25.25 220.3125 C-26.95833333 222.02083333 -28.66666667 223.72916667 -30.375 225.4375 C-31.20386719 226.27667969 -32.03273437 227.11585938 -32.88671875 227.98046875 C-34.92871607 229.99546445 -37.00658286 231.88889148 -39.1875 233.75 C-43.58741599 237.50602585 -47.59681047 241.62826701 -51.63671875 245.76171875 C-54.25 248.3125 -54.25 248.3125 -56.95703125 250.4375 C-60.17142233 253.06596289 -61.16876753 255.32545526 -62.25 259.3125 C-60.42306423 264.97087254 -57.68487983 268.45789861 -53.49682617 272.58325195 C-52.92081161 273.16627579 -52.34479706 273.74929962 -51.75132751 274.34999084 C-49.85842849 276.26039049 -47.95139864 278.15590587 -46.04296875 280.05078125 C-44.71583031 281.3806165 -43.38928593 282.71104486 -42.06330872 284.04203796 C-39.28816215 286.82306855 -36.50594333 289.59676892 -33.71850586 292.36547852 C-30.15059198 295.91058186 -26.60096753 299.47337156 -23.05643749 303.04183674 C-20.32271072 305.79003176 -17.57951071 308.52861103 -14.8333683 311.26439476 C-13.52074048 312.57435932 -12.21106354 313.88728782 -10.90443993 315.20324135 C-9.07626451 317.0416011 -7.23570901 318.86660928 -5.39135742 320.6887207 C-4.8565979 321.23157715 -4.32183838 321.77443359 -3.77087402 322.33374023 C0.70995385 326.71522772 4.5292511 327.99013322 10.625 328.875 C14.24657384 328.7764841 15.85810379 327.70414257 18.49853516 325.27612305 C19.19489075 324.63895355 19.89124634 324.00178406 20.60870361 323.3453064 C24.08122031 320.04872672 27.51001424 316.71503793 30.8984375 313.33203125 C31.6370401 312.59675705 32.3756427 311.86148285 33.1366272 311.10392761 C34.68239413 309.56318545 36.22684383 308.02112069 37.77001953 306.4777832 C40.13424481 304.11576382 42.50638165 301.76188262 44.87890625 299.40820312 C46.38590519 297.90413515 47.89243259 296.39959453 49.3984375 294.89453125 C50.46087173 293.84287529 50.46087173 293.84287529 51.54476929 292.76997375 C52.52686874 291.78325935 52.52686874 291.78325935 53.52880859 290.77661133 C54.10424408 290.20260086 54.67967957 289.62859039 55.27255249 289.03718567 C57.93510137 285.92908209 58.7626267 284.00696846 58.6875 279.875 C57.56320243 275.60266924 56.22242251 273.99573558 52.75 271.3125 C49.52371214 269.98889472 48.26289672 270.10946503 45.01416016 271.39550781 C40.98944859 273.75916041 38.15684311 276.61986817 34.9609375 279.984375 C33.67732779 281.30101962 32.39346625 282.61741876 31.109375 283.93359375 C29.10587223 286.00568935 27.10663051 288.0816672 25.11230469 290.16259766 C23.17669354 292.17637225 21.22617154 294.17472123 19.2734375 296.171875 C18.67856537 296.80196472 18.08369324 297.43205444 17.47079468 298.08123779 C15.77099609 299.81152344 15.77099609 299.81152344 12.75 302.3125 C9.54131658 301.90175275 7.9619207 300.89002681 5.734375 298.58984375 C5.20585937 298.05166016 4.67734375 297.51347656 4.1328125 296.95898438 C3.59398437 296.39501953 3.05515625 295.83105469 2.5 295.25 C1.66855469 294.39825195 1.66855469 294.39825195 0.8203125 293.52929688 C-0.54334214 292.13037531 -1.89760417 290.72230886 -3.25 289.3125 C-1.67750282 285.48342494 0.74336659 283.11810127 3.6875 280.25 C4.16823975 279.7768335 4.64897949 279.30366699 5.14428711 278.81616211 C7.19193071 276.80108937 9.25126586 274.79811778 11.30957031 272.79394531 C12.81465049 271.32508619 14.31366324 269.85022512 15.8125 268.375 C16.71097656 267.49972656 17.60945313 266.62445313 18.53515625 265.72265625 C20.49997427 263.58457385 21.75992153 262.01682862 22.75 259.3125 C22.54240625 254.43404698 21.07268268 251.83655739 17.75 248.3125 C14.88391871 246.87945936 12.93699217 247.00605845 9.75 247.3125 C5.37974305 249.89637998 1.91071896 252.91459611 -1.6484375 256.515625 C-2.36817245 257.2396048 -2.36817245 257.2396048 -3.10244751 257.97821045 C-4.61478056 259.50162479 -6.11995915 261.03188455 -7.625 262.5625 C-8.65708452 263.60462993 -9.68963254 264.64630105 -10.72265625 265.6875 C-13.23714596 268.22388979 -15.74527439 270.76646326 -18.25 273.3125 C-22.20374187 269.98133385 -26.06041857 266.62821444 -29.6875 262.9375 C-30.36683594 262.24914062 -31.04617187 261.56078125 -31.74609375 260.8515625 C-32.49052734 260.08972656 -32.49052734 260.08972656 -33.25 259.3125 C-31.95665553 256.46351954 -30.60207334 254.42070567 -28.37670898 252.22802734 C-27.79948593 251.65418304 -27.22226288 251.08033875 -26.62754822 250.48910522 C-26.00666824 249.88168488 -25.38578827 249.27426453 -24.74609375 248.6484375 C-24.10761002 248.01515533 -23.46912628 247.38187317 -22.81129456 246.72940063 C-20.77472625 244.71062011 -18.73158925 242.69866271 -16.6875 240.6875 C-14.64072882 238.66833275 -12.59542734 236.64773099 -10.55299377 234.62417603 C-9.28256434 233.36601851 -8.00947158 232.11054361 -6.73350525 230.85800171 C-2.35044144 226.66582345 -2.35044144 226.66582345 -0.9375 221 C-1.29875942 216.73713889 -2.26992054 215.29257946 -5.25 212.3125 C-14.17664821 207.84917589 -19.35317948 214.27272626 -25.25 220.3125 Z M-117.5 308.625 C-126.09539278 319.22598442 -128.31678127 331.06334004 -127.25 344.3125 C-125.57786053 350.94682634 -122.19890492 355.74739937 -116.421875 359.5 C-108.92736018 363.49707457 -100.4524508 363.53579755 -92.29296875 361.6171875 C-83.08021184 358.48036898 -74.8708759 353.6648239 -67.1875 347.75 C-61.22599703 343.17255544 -55.32321763 338.74125975 -47.6875 337.9375 C-45.25 338.3125 -45.25 338.3125 -44.25 339.3125 C-43.15221747 347.07539078 -44.98449103 352.85271478 -49.25 359.3125 C-53.4545611 364.78860175 -57.70848241 370.24009727 -64.71484375 371.89453125 C-69.89657225 372.37750436 -73.29909351 372.07282231 -78.25 370.3125 C-81.78681364 370.49543864 -84.4253252 370.92186457 -87.625 372.4375 C-90.10919455 375.30387832 -90.18659296 377.57148437 -90.25 381.3125 C-88.49505344 386.47410753 -85.66189737 389.1982195 -81.25 392.3125 C-72.74426788 395.70769488 -63.24337079 395.34431436 -54.64453125 392.34375 C-40.47337354 386.24067392 -29.05192636 375.41956445 -22.90234375 361.1953125 C-19.50551499 351.62575191 -18.16258107 343.14525812 -21.25 333.3125 C-24.47616069 326.97966606 -29.15879762 323.49277727 -35.6875 321 C-49.39740569 318.35422873 -61.75122201 324.13277521 -73.25 331.3125 C-76.39101069 333.5801565 -79.46063322 335.92111372 -82.5234375 338.29296875 C-87.07444819 341.6638463 -92.43895286 345.15544467 -98.25 345.3125 C-101.0625 344.5625 -101.0625 344.5625 -103.25 342.3125 C-104.41122073 336.67361214 -103.96573833 331.76866903 -100.875 326.875 C-100.43414062 326.27816406 -99.99328125 325.68132812 -99.5390625 325.06640625 C-98.16907195 323.3377831 -98.16907195 323.3377831 -97.3359375 321.21484375 C-95.96428251 318.8119805 -94.76452011 318.38554613 -92.25 317.3125 C-90.86543619 316.47392456 -89.4903235 315.61955014 -88.125 314.75 C-84.43579703 312.40422377 -82.23767763 311.1729674 -77.8125 311.1875 C-76.63880859 311.18363281 -76.63880859 311.18363281 -75.44140625 311.1796875 C-73.25 311.3125 -73.25 311.3125 -70.25 312.3125 C-65.45880716 312.94055899 -62.27224261 313.00094911 -58.1875 310.25 C-55.75515951 306.56225797 -55.62929187 304.65745691 -56.25 300.3125 C-58.22001466 295.14121152 -62.47039986 292.69771312 -67.25 290.3125 C-84.79117977 284.71200284 -105.80143929 295.94161148 -117.5 308.625 Z " fill="#000000" transform="translate(221.25,-0.3125)"/>
<path d="M0 0 C21.80168921 18.76824053 36.46666647 45.62103614 39.6875 74.2890625 C39.9927952 79.16795422 40.06937798 84.02631704 40.0625 88.9140625 C40.06195618 89.57069885 40.06141235 90.22733521 40.06085205 90.90386963 C40.01928603 101.85834399 39.07928992 111.87270389 35.6875 122.2890625 C35.46787598 122.97597168 35.24825195 123.66288086 35.02197266 124.37060547 C24.78508185 155.55943414 3.07014205 179.75559328 -25.66796875 195.078125 C-42.10695366 203.04235372 -58.77515746 206.68326761 -77 206.6015625 C-77.66335358 206.59907501 -78.32670715 206.59658752 -79.01016235 206.59402466 C-107.26531489 206.4301835 -133.10664538 197.14972136 -154.3125 178.2890625 C-155.14007813 177.60457031 -155.96765625 176.92007813 -156.8203125 176.21484375 C-178.85009415 157.53441762 -192.15245662 129.75926465 -195.3125 101.2890625 C-197.10085293 68.57619962 -189.36133274 37.25486144 -167.3125 12.2890625 C-158.85568568 2.95840973 -150.13892732 -5.18682709 -139.3125 -11.7109375 C-138.74096191 -12.05705078 -138.16942383 -12.40316406 -137.58056641 -12.75976562 C-93.38817493 -39.09333882 -38.96933178 -32.32788391 0 0 Z M-85.3125 17.4765625 C-88.5066045 21.96827196 -88.4390745 26.20302381 -88.45776367 31.60473633 C-88.46414352 32.85986526 -88.47052338 34.1149942 -88.47709656 35.40815735 C-88.47862565 36.77080242 -88.47973939 38.13344801 -88.48046875 39.49609375 C-88.48368557 40.90467868 -88.48704996 42.31326329 -88.49055481 43.72184753 C-88.49653256 46.67142511 -88.49839614 49.62097344 -88.49780273 52.57055664 C-88.49770128 56.33290946 -88.51134197 60.09507285 -88.52857494 63.85738087 C-88.53974549 66.76662542 -88.54172038 69.67582494 -88.54119301 72.58508873 C-88.54236596 73.97123555 -88.54674888 75.35738379 -88.55452538 76.74350929 C-88.61751244 89.1318545 -88.5932783 95.62358796 -79.78637695 104.70016479 C-78.88749756 105.59317291 -77.98861816 106.48618103 -77.0625 107.40625 C-76.1346167 108.344617 -75.2067334 109.28298401 -74.25073242 110.24978638 C-72.29018113 112.22814066 -70.31877623 114.19482911 -68.33935547 116.15429688 C-65.81815191 118.65253698 -63.33003997 121.181051 -60.84970093 123.71978569 C-58.92311447 125.68327141 -56.97801347 127.62757821 -55.02722168 129.5669899 C-53.65667046 130.93708996 -52.30319311 132.32420228 -50.95019531 133.7116394 C-45.50356008 139.03857049 -41.10106471 142.11365525 -33.3125 142.2890625 C-29.91216601 141.68186 -28.16912996 141.30144337 -25.9375 138.6640625 C-24.77352681 134.2409644 -24.27214866 130.34269284 -26.36328125 126.21484375 C-27.80743778 124.03475979 -27.80743778 124.03475979 -30.3125 121.2890625 C-30.9725 121.2890625 -31.6325 121.2890625 -32.3125 121.2890625 C-32.6425 120.2990625 -32.9725 119.3090625 -33.3125 118.2890625 C-33.9725 118.2890625 -34.6325 118.2890625 -35.3125 118.2890625 C-35.580625 117.6496875 -35.84875 117.0103125 -36.125 116.3515625 C-37.19917752 113.95774564 -37.19917752 113.95774564 -40.3125 113.2890625 C-40.621875 112.6496875 -40.93125 112.0103125 -41.25 111.3515625 C-42.56304342 108.8027135 -43.79624915 108.50660323 -46.3125 107.2890625 C-46.6425 106.2990625 -46.9725 105.3090625 -47.3125 104.2890625 C-47.9725 104.2890625 -48.6325 104.2890625 -49.3125 104.2890625 C-49.6425 103.2990625 -49.9725 102.3090625 -50.3125 101.2890625 C-50.9725 101.2890625 -51.6325 101.2890625 -52.3125 101.2890625 C-52.6425 100.2990625 -52.9725 99.3090625 -53.3125 98.2890625 C-54.95889965 96.93078279 -56.62545807 95.59651999 -58.3125 94.2890625 C-58.8075 93.2990625 -58.8075 93.2990625 -59.3125 92.2890625 C-59.9725 92.2890625 -60.6325 92.2890625 -61.3125 92.2890625 C-61.6425 91.2990625 -61.9725 90.3090625 -62.3125 89.2890625 C-62.98317505 88.85841995 -63.6538501 88.4277774 -64.34484863 87.98408508 C-66.3125 86.2890625 -66.3125 86.2890625 -66.80456543 83.53898621 C-66.79979187 81.87069511 -66.79979187 81.87069511 -66.79492188 80.16870117 C-66.80172974 78.90696579 -66.8085376 77.64523041 -66.81555176 76.34526062 C-66.80987686 75.67122381 -66.80420197 74.997187 -66.7983551 74.30272484 C-66.78109037 72.18747356 -66.78860132 70.07358891 -66.8026123 67.95832825 C-66.83226576 62.70352992 -66.81909745 57.44899188 -66.80743408 52.19415283 C-66.79921334 47.75626116 -66.80724605 43.31896598 -66.83656311 38.88115883 C-66.84363396 36.80362488 -66.82700722 34.72715405 -66.80944824 32.64970398 C-66.8162561 31.37851212 -66.82306396 30.10732025 -66.83007812 28.79760742 C-66.82530457 27.12573616 -66.82530457 27.12573616 -66.82043457 25.42008972 C-67.43024363 21.5398562 -68.89822903 19.34972178 -71.3125 16.2890625 C-76.07028208 13.91017146 -81.12157253 14.42067789 -85.3125 17.4765625 Z " fill="#000000" transform="translate(472.3125,305.7109375)"/>
<path d="M0 0 C5.30336843 3.32024754 9.57678357 7.97515603 13.95703125 12.390625 C14.85421875 13.26783203 15.75140625 14.14503906 16.67578125 15.04882812 C22.78011701 21.15773299 27.13112446 25.99285237 27.14453125 35.015625 C26.93875209 41.27474117 25.3654947 45.74957029 21.05859375 50.33203125 C16.29419951 54.64911337 11.93042258 56.85853902 5.39453125 56.953125 C4.07001953 56.99566406 4.07001953 56.99566406 2.71875 57.0390625 C-6.2159915 55.67161828 -11.67687165 49.79803295 -17.75878906 43.57885742 C-19.1738151 42.13465812 -20.60683094 40.71028477 -22.04296875 39.28710938 C-28.33874446 32.93303945 -31.54873675 28.98682512 -31.79296875 19.828125 C-31.65682592 11.70209957 -29.2805444 7.49185665 -23.60546875 1.921875 C-17.02886484 -3.18066252 -7.42966975 -3.20806618 0 0 Z " fill="#000000" transform="translate(287.29296875,178.421875)"/>
</svg>
