<?xml version="1.0" encoding="UTF-8"?>
<svg version="1.1" xmlns="http://www.w3.org/2000/svg" width="512" height="512">
<path d="M0 0 C0.8976709 0.2475 1.7953418 0.495 2.72021484 0.75 C22.47659662 6.40496566 41.17620947 14.71151293 57 28 C58.17182237 28.95839768 59.34370044 29.91672727 60.515625 30.875 C90.12016943 55.37259291 108.16464422 89.97495848 113 128 C113.74633264 144.88747215 114.39723862 162.58141323 110 179 C109.71793701 180.12873535 109.71793701 180.12873535 109.43017578 181.28027344 C103.5183302 204.69249882 92.61490002 226.29541004 75.97265625 243.90625 C74.25182471 245.73271675 72.68830019 247.60280745 71.125 249.5625 C67.00870383 254.37609224 61.99893048 258.14981364 57 262 C55.9584375 262.80695313 54.916875 263.61390625 53.84375 264.4453125 C30.29816093 282.22071193 1.73707083 292.45772231 -27.76171875 293.4296875 C-29.69069573 293.501038 -31.61965009 293.57300184 -33.54858398 293.64550781 C-34.55090057 293.68244751 -35.55321716 293.71938721 -36.58590698 293.75744629 C-82.67273881 295.50418678 -127.35789871 301.38763807 -170 320 C-170.71236816 320.30341309 -171.42473633 320.60682617 -172.15869141 320.91943359 C-189.80077059 328.48149067 -206.20424182 338.79731284 -221 351 C-222.11181641 351.86625 -222.11181641 351.86625 -223.24609375 352.75 C-239.90897225 366.26219777 -247.38620913 386.5631308 -249.59863281 407.25854492 C-250.26393045 414.38063906 -250.29862743 421.50319712 -250.26074219 428.65112305 C-250.24986622 431.09252948 -250.26079916 433.53322276 -250.2734375 435.97460938 C-250.27211799 437.55729326 -250.26955993 439.13997671 -250.265625 440.72265625 C-250.26967346 441.43736588 -250.27372192 442.1520755 -250.27789307 442.88844299 C-250.20918648 450.35699128 -248.93774767 457.12808385 -244 463 C-237.89084148 467.65247352 -231.61287795 468.12420226 -224.16205025 468.12863445 C-223.49568147 468.13038749 -222.82931269 468.13214053 -222.14275092 468.13394669 C-219.91196966 468.13859508 -217.68125391 468.13614419 -215.45046997 468.13371277 C-213.8340709 468.13558132 -212.21767228 468.1378822 -210.60127437 468.14057809 C-206.16085328 468.14669694 -201.72045102 468.1465624 -197.28002667 468.14538372 C-192.49056536 468.14517973 -187.70111011 468.15069821 -182.91165161 468.15544128 C-173.52904656 468.16374867 -164.1464478 468.16649616 -154.76383938 468.16705366 C-147.13819136 468.16752874 -139.51254541 468.1695831 -131.88689804 468.17275429 C-110.27056005 468.1815608 -88.65422703 468.18617362 -67.03788723 468.18542381 C-65.28977514 468.18536388 -65.28977514 468.18536388 -63.50634766 468.18530273 C-62.33951816 468.18526185 -61.17268866 468.18522097 -59.97050069 468.18517885 C-41.0552217 468.1847723 -22.13996261 468.19434427 -3.22468938 468.2084411 C16.19367371 468.22279879 35.61202709 468.22971163 55.03039563 468.22884732 C65.93385542 468.22851516 76.83729435 468.23127067 87.74074936 468.24202538 C97.02305095 468.25112234 106.30532221 468.25331221 115.58762632 468.24651595 C120.32375352 468.2432468 125.05982252 468.24320836 129.79594421 468.2518692 C134.13231682 468.25971752 138.4685849 468.25831985 142.8049549 468.24958507 C144.37287568 468.24804641 145.9408042 468.24987999 147.50871585 468.25544515 C162.2137873 468.53101212 162.2137873 468.53101212 175 462 C179.91148279 455.55073665 180.15596172 448.74084874 180.16796875 440.91796875 C180.17129715 440.14552322 180.17462555 439.3730777 180.17805481 438.57722473 C180.18310143 436.94252106 180.18546384 435.30780716 180.18530273 433.6730957 C180.18745973 431.2330501 180.20555682 428.79347962 180.22460938 426.35351562 C180.32110854 399.73256785 175.58973244 375.27021286 156.55224609 355.515625 C142.73151798 342.02095999 124.47689221 331.25400067 107.05078125 323.125 C95.49669714 317.73437968 95.49669714 317.73437968 92 311 C89.95978672 304.87936017 89.90676986 297.50951962 92.5625 291.5625 C95.42009249 286.66377001 99.6928958 283.76903473 105 282 C124.27110894 278.39059035 144.89553406 294.82909252 160 305 C190.04889739 325.72781697 212.80117182 352.82651258 220.00514221 389.49043274 C221.93435224 400.97225671 221.48535746 412.79733005 221.44604492 424.40942383 C221.43451648 427.97956895 221.45487928 431.54873047 221.48396206 435.11874676 C221.50248117 437.91327427 221.50200165 440.70757216 221.49632454 443.50214577 C221.49610135 445.44552955 221.51282029 447.38889245 221.53013611 449.3321991 C221.40277907 465.74143263 215.64080458 479.83487772 204.33984375 491.71875 C193.47359087 502.31289304 179.97152336 509.23989451 164.586339 509.25726891 C163.88201629 509.26077498 163.17769359 509.26428105 162.45202777 509.26789337 C160.10407211 509.27715913 157.75636713 509.27229665 155.40840149 509.26742554 C153.70309266 509.27116424 151.99778554 509.27576664 150.29248112 509.28115618 C145.61538262 509.29337451 140.93835571 509.29312709 136.26124489 509.29076743 C131.21336208 509.29035897 126.16550214 509.30140127 121.11763 509.31088257 C111.23095941 509.32748736 101.34431267 509.33299189 91.4576293 509.33410732 C83.41969342 509.33505809 75.38176541 509.33916979 67.34383202 509.34550858 C44.54721007 509.36311989 21.75060695 509.37234767 -1.04602184 509.37084763 C-2.27469938 509.37076772 -3.50337692 509.3706878 -4.76928711 509.37060547 C-5.99946758 509.37052371 -7.22964804 509.37044195 -8.49710671 509.37035771 C-28.43061583 509.36954493 -48.36404937 509.38868073 -68.29753663 509.4168822 C-88.77255275 509.44562087 -109.24753202 509.45942194 -129.72256881 509.45769465 C-141.21471811 509.45703107 -152.70678818 509.46250939 -164.1989193 509.48405075 C-173.98427511 509.50227549 -183.76951578 509.50659924 -193.55488124 509.4930319 C-198.54485956 509.48650871 -203.53461706 509.48636167 -208.52457428 509.5037384 C-213.09869889 509.51950283 -217.67242821 509.51657113 -222.24654339 509.49917014 C-223.89524783 509.49610765 -225.54398202 509.49970413 -227.19265135 509.51089029 C-245.2400114 509.62516431 -260.42460473 504.98190278 -273.71875 492.33984375 C-286.78285799 478.94018504 -291.30451219 464.22850785 -291.3359375 445.88671875 C-291.34238486 444.50877248 -291.34911457 443.13082751 -291.35610962 441.75288391 C-291.36804279 438.86736901 -291.37179526 435.98197335 -291.37060547 433.09643555 C-291.37044391 430.17658446 -291.38417501 427.25736738 -291.41162109 424.33764648 C-291.77098008 385.53878242 -283.13243177 354.01650422 -255.875 325.4375 C-233.75350588 304.03872515 -205.40971108 288.34296931 -177 277 C-176.30084473 276.71850098 -175.60168945 276.43700195 -174.88134766 276.14697266 C-159.78951091 270.14298093 -143.97046597 265.04456104 -128 262 C-131.11713878 258.7789566 -134.36345362 255.81317186 -137.75 252.875 C-143.14281878 248.04226626 -147.60257988 242.73819431 -152 237 C-152.67933594 236.12472656 -153.35867187 235.24945313 -154.05859375 234.34765625 C-165.24652735 219.49583796 -173.13823104 203.11844905 -178.3125 185.3125 C-178.67625732 184.06714478 -178.67625732 184.06714478 -179.04736328 182.79663086 C-182.49034183 170.35932707 -183.37721324 158.08609313 -183.3125 145.25 C-183.31067719 144.49921173 -183.30885437 143.74842346 -183.30697632 142.97488403 C-183.26222857 132.03238453 -182.82734439 121.62808974 -180 111 C-179.82839355 110.31808594 -179.65678711 109.63617188 -179.47998047 108.93359375 C-173.73132949 86.28832697 -163.1270357 65.7722301 -148 48 C-147.16339844 47.01 -146.32679688 46.02 -145.46484375 45 C-139.84059034 38.58246837 -133.78959173 33.15506039 -127 28 C-125.96359375 27.19820312 -124.9271875 26.39640625 -123.859375 25.5703125 C-90.14225068 0.08186109 -41.31760004 -11.41025417 0 0 Z M-112 70 C-112.80179688 70.80179688 -113.60359375 71.60359375 -114.4296875 72.4296875 C-136.38511726 95.60064278 -142.99957973 124.44877476 -142.17919922 155.56201172 C-140.76750856 182.64570097 -125.89991967 206.87826834 -106.93359375 225.37109375 C-91.22591983 239.44734482 -69.98433894 249.46343156 -49 252 C-47.8965625 252.1340625 -46.793125 252.268125 -45.65625 252.40625 C-16.43156523 255.15386994 11.92139332 245.82837414 34.46484375 227.21484375 C54.99931216 209.27486904 70.31456895 183.49455918 72.22119141 155.78540039 C73.36388466 122.40660118 65.17694629 95.14843417 42.44140625 70.19140625 C26.01423229 53.00128662 2.73602312 40.86918961 -21 38 C-22.65515625 37.79890625 -22.65515625 37.79890625 -24.34375 37.59375 C-57.42319968 34.48371627 -88.72641494 46.72641494 -112 70 Z " fill="#000000" transform="translate(291,3)"/>
</svg>
