<?xml version="1.0" encoding="UTF-8"?>
<svg version="1.1" xmlns="http://www.w3.org/2000/svg" width="512" height="512">
<path d="M0 0 C27.04207358 25.15113155 44.36380322 61.82495461 46.45703125 98.71069336 C46.55218124 102.41386177 46.57906721 106.10816798 46.5625 109.8125 C46.55758545 111.12508789 46.5526709 112.43767578 46.54760742 113.79003906 C46.42681466 123.83751902 45.60438644 133.30199243 43.25 143.0625 C43.08371094 143.78759766 42.91742188 144.51269531 42.74609375 145.25976562 C36.52530179 171.87093122 22.98926128 195.27333104 4.25 215.0625 C3.09564453 216.29613281 3.09564453 216.29613281 1.91796875 217.5546875 C-2.68839334 222.33220683 -7.51118218 226.62864834 -12.75 230.6875 C-13.59643066 231.34492187 -13.59643066 231.34492187 -14.45996094 232.015625 C-18.492156 235.0625 -18.492156 235.0625 -20.75 235.0625 C-20.75 249.5825 -20.75 264.1025 -20.75 279.0625 C-16.79 279.0625 -12.83 279.0625 -8.75 279.0625 C-4.6426287 281.08015608 -2.21821414 283.26048769 0.25 287.0625 C1.47492931 291.69087215 1.84642202 296.40898638 0.125 300.9375 C-2.20634953 304.82308255 -4.71697235 307.04598617 -8.75 309.0625 C-10.78232634 309.14777628 -12.81747006 309.16966135 -14.8515625 309.16015625 C-16.06328125 309.15693359 -17.275 309.15371094 -18.5234375 309.15039062 C-20.42996094 309.13782227 -20.42996094 309.13782227 -22.375 309.125 C-23.65375 309.12048828 -24.9325 309.11597656 -26.25 309.11132812 C-29.41671292 309.09951203 -32.58333356 309.08303815 -35.75 309.0625 C-35.72905273 309.75698242 -35.70810547 310.45146484 -35.68652344 311.16699219 C-35.1956022 329.89035538 -35.30874948 343.65165197 -48.59375 358.0625 C-56.35777587 365.44468853 -65.85598712 369.15265748 -76.45532227 369.23950195 C-77.12098709 369.24607315 -77.78665192 369.25264435 -78.4724884 369.25941467 C-80.67046235 369.27908405 -82.86836797 369.29079968 -85.06640625 369.30078125 C-85.82128767 369.30485678 -86.57616909 369.3089323 -87.3539257 369.31313133 C-91.35419309 369.33397096 -95.35442646 369.34827841 -99.35473633 369.35766602 C-103.46113888 369.36869032 -107.56699357 369.40304946 -111.67320347 369.44283772 C-114.85193295 369.46915053 -118.03053516 369.47737102 -121.20936394 369.48094749 C-122.72145195 369.48578039 -124.23353556 369.4972988 -125.74551582 369.51598549 C-140.41672531 369.6859521 -151.61474062 366.55668854 -162.53125 356.40625 C-172.0060198 346.1580296 -174.07346822 334.55213838 -173.875 321.125 C-173.86597656 319.96419922 -173.85695313 318.80339844 -173.84765625 317.60742188 C-173.82421162 314.75889892 -173.79139522 311.91080922 -173.75 309.0625 C-174.92973389 309.0939209 -174.92973389 309.0939209 -176.13330078 309.12597656 C-179.71373598 309.20937753 -183.29396642 309.26123776 -186.875 309.3125 C-188.1125 309.34601563 -189.35 309.37953125 -190.625 309.4140625 C-202.12455831 309.53771366 -202.12455831 309.53771366 -206.75 305.0625 C-210.04603837 301.1210233 -211.07270945 297.0192374 -210.8125 291.9375 C-210.05720584 286.92789589 -208.43718029 284.49243516 -204.75 281.0625 C-200.75 279.0625 -200.75 279.0625 -188.75 279.0625 C-188.75 264.5425 -188.75 250.0225 -188.75 235.0625 C-190.07 234.4025 -191.39 233.7425 -192.75 233.0625 C-224.49820914 211.30146199 -246.3644993 176.75969939 -253.75 139.0625 C-255.49960035 129.28563329 -256.10524452 119.73604315 -256.0625 109.8125 C-256.06067719 109.13651764 -256.05885437 108.46053528 -256.05697632 107.7640686 C-256.00793855 96.92192974 -255.30203118 86.60768546 -252.75 76.0625 C-252.58902832 75.3494873 -252.42805664 74.63647461 -252.26220703 73.90185547 C-243.53476963 35.81468149 -218.70209804 2.40318121 -185.96679688 -18.56005859 C-126.1629944 -55.72008652 -51.3872749 -46.65443349 0 0 Z M-180.75 16.0625 C-181.52778809 16.69792725 -181.52778809 16.69792725 -182.32128906 17.34619141 C-202.74627588 34.32869295 -216.71930001 58.30322868 -222.75 84.0625 C-222.97558594 85.01382813 -223.20117188 85.96515625 -223.43359375 86.9453125 C-229.61969299 118.94237752 -221.51264939 151.49179945 -203.7109375 178.35546875 C-196.53615742 188.26009544 -188.32544823 197.41425239 -178.75 205.0625 C-178.13694504 205.57052658 -177.52389008 206.07855316 -176.89225769 206.60197449 C-170.59752205 211.34832535 -165.67371628 211.87731959 -157.93359375 211.6484375 C-156.83652603 211.63994781 -155.73945831 211.63145813 -154.60914612 211.62271118 C-151.13422917 211.58935109 -147.66170546 211.51409969 -144.1875 211.4375 C-141.81969517 211.40737814 -139.45185366 211.38000626 -137.08398438 211.35546875 C-131.30518472 211.28961716 -125.52776338 211.18944374 -119.75 211.0625 C-112.78086461 158.32623017 -112.78086461 158.32623017 -126.9921875 110.1875 C-132.75420773 103.6909461 -139.79672519 98.11594254 -147.37924194 93.86657715 C-152.1980378 91.09811223 -153.84784535 88.60864544 -155.4127655 83.27037048 C-156.18670243 78.20341406 -154.60870126 74.37917526 -151.875 70.1875 C-148.47787394 66.79037394 -145.65744994 65.76199299 -140.875 65.6875 C-140.05257812 65.65914063 -139.23015625 65.63078125 -138.3828125 65.6015625 C-132.36129537 66.6557747 -128.0479977 71.48280805 -123.9140625 75.703125 C-123.38984711 76.23017029 -122.86563171 76.75721558 -122.32553101 77.30023193 C-120.67055166 78.96630691 -119.02270711 80.63923583 -117.375 82.3125 C-116.24656019 83.45098335 -115.11765819 84.58900878 -113.98828125 85.7265625 C-111.23681792 88.49994512 -108.49172617 91.27949234 -105.75 94.0625 C-101.78096419 92.4711413 -99.16673127 89.70266617 -96.25 86.6875 C-95.73244141 86.16236816 -95.21488281 85.63723633 -94.68164062 85.09619141 C-93.03284859 83.42303544 -91.39067484 81.74361401 -89.75 80.0625 C-87.58913474 77.84837397 -85.42170824 75.64098603 -83.25 73.4375 C-82.75822266 72.92912598 -82.26644531 72.42075195 -81.75976562 71.89697266 C-77.65983787 67.73908041 -74.73452364 65.77876984 -68.875 65.6875 C-64.08646948 65.79328492 -61.38290473 66.784025 -57.75 70.0625 C-55.0584311 73.58938339 -53.92062775 76.62617861 -53.75 81.0625 C-54.45271922 84.9652571 -55.35446715 88.74001558 -58.2996521 91.53103638 C-60.24458725 92.79830127 -62.23682553 93.93162324 -64.26171875 95.06640625 C-75.54386194 102.49721542 -87.16290955 111.52172308 -90.26896667 125.37756348 C-94.90415587 153.17407605 -91.74045911 183.10730671 -89.75 211.0625 C-82.83116552 211.26668111 -75.91311762 211.4059923 -68.99194336 211.50195312 C-66.64171316 211.54198727 -64.29167971 211.59643363 -61.94213867 211.66601562 C-45.00714138 212.75386643 -45.00714138 212.75386643 -30.67553711 205.15234375 C-30.04010986 204.46269531 -29.40468262 203.77304687 -28.75 203.0625 C-27.64423701 202.1285075 -26.52966113 201.20473474 -25.40234375 200.296875 C-2.67003517 179.49435952 13.67295655 150.82099425 15.39086914 119.49365234 C16.53630435 85.62436752 7.71156975 54.48767727 -15.49511719 29.15771484 C-22.61271537 21.59271417 -29.79097229 14.42702419 -38.75 9.0625 C-39.80445313 8.41023438 -40.85890625 7.75796875 -41.9453125 7.0859375 C-85.28683895 -19.12442926 -141.29790698 -16.39322373 -180.75 16.0625 Z M-157.75 242.0625 C-157.75 254.2725 -157.75 266.4825 -157.75 279.0625 C-122.77 279.0625 -87.79 279.0625 -51.75 279.0625 C-51.75 266.8525 -51.75 254.6425 -51.75 242.0625 C-86.73 242.0625 -121.71 242.0625 -157.75 242.0625 Z M-142.75 309.0625 C-144.55073514 328.03310008 -144.55073514 328.03310008 -139.75 335.0625 C-135.01866892 338.54874395 -130.46718084 339.18209915 -124.70361328 339.20776367 C-123.72554718 339.21414352 -122.74748108 339.22052338 -121.73977661 339.22709656 C-120.69385345 339.22820938 -119.6479303 339.2293222 -118.5703125 339.23046875 C-117.48418671 339.23379715 -116.39806091 339.23712555 -115.27902222 339.24055481 C-112.98435895 339.24561104 -110.68968836 339.24796354 -108.39501953 339.24780273 C-104.89473283 339.24998768 -101.39476217 339.26815328 -97.89453125 339.28710938 C-95.66145941 339.29004391 -93.42838607 339.2920283 -91.1953125 339.29296875 C-89.63250046 339.30374702 -89.63250046 339.30374702 -88.03811646 339.31474304 C-78.21173117 339.29449288 -78.21173117 339.29449288 -69.875 334.5625 C-62.98385431 326.45526978 -66.75 324.85094155 -66.75 309.0625 C-91.83 309.0625 -116.91 309.0625 -142.75 309.0625 Z " fill="#000000" transform="translate(360.75,142.9375)"/>
<path d="M0 0 C4.85901474 2.29698879 7.66907123 5.15884024 10 10 C11.1247181 17.62092005 9.20672047 22.81060228 5.3125 29.25 C4.82499268 30.09046875 4.33748535 30.9309375 3.83520508 31.796875 C2.78884898 33.59449924 1.73313691 35.38670468 0.66894531 37.17382812 C-1.06514172 40.1103102 -2.74297227 43.07414355 -4.4140625 46.046875 C-5.54554881 48.03200649 -6.67833207 50.01639938 -7.8125 52 C-8.3386792 52.9374707 -8.8648584 53.87494141 -9.40698242 54.84082031 C-13.06566434 61.11745655 -15.9474928 64.64916427 -23 67 C-28.25765945 67.39680449 -31.56102842 66.89498146 -36 64 C-39.55433298 60.76160773 -41.30917883 58.23520736 -42.25 53.5 C-42.5680022 46.06532782 -38.59313264 40.20679617 -35 34 C-34.46761719 33.06091797 -33.93523437 32.12183594 -33.38671875 31.15429688 C-14.75298054 -1.71297307 -14.75298054 -1.71297307 0 0 Z " fill="#000000" transform="translate(381,32)"/>
<path d="M0 0 C4.44022709 2.42798935 6.91203229 4.77659276 9.4375 9.125 C10.09878906 10.25164063 10.76007813 11.37828125 11.44140625 12.5390625 C12.01979248 13.54888184 12.01979248 13.54888184 12.60986328 14.57910156 C14.31559889 17.54960986 16.04719878 20.50458154 17.77734375 23.4609375 C19.1450985 25.80620625 20.51033878 28.15293016 21.875 30.5 C22.21159637 31.07784241 22.54819275 31.65568481 22.89498901 32.2510376 C23.86860787 33.92561811 24.83672989 35.60339076 25.8046875 37.28125 C26.37171387 38.26158203 26.93874023 39.24191406 27.52294922 40.25195312 C30.87503586 46.48849647 31.85373387 51.08083056 30 58 C27.84023194 61.73175113 25.26377819 64.25469491 21.5625 66.4375 C15.91174195 67.6779103 11.0704375 67.51089817 6.0078125 64.65234375 C2.02596922 61.37545716 -0.17180831 56.88247049 -2.64208984 52.42529297 C-4.31811731 49.43182716 -6.04329007 46.4686947 -7.76953125 43.50390625 C-10.45790505 38.88200653 -13.1392174 34.25624905 -15.8046875 29.62109375 C-16.37171387 28.6355249 -16.93874023 27.64995605 -17.52294922 26.63452148 C-20.79436091 20.79951263 -21.8542212 16.7483475 -21 10 C-16.73258268 1.13690249 -9.42645555 -1.80055893 0 0 Z " fill="#000000" transform="translate(142,32)"/>
<path d="M0 0 C1.09787842 0.63349365 2.19575684 1.2669873 3.3269043 1.91967773 C5.51332859 3.18512973 7.69566252 4.45767941 9.87353516 5.73779297 C12.47144627 7.26306728 15.08076562 8.76431987 17.69921875 10.25390625 C29.72377149 17.19754299 29.72377149 17.19754299 32.875 23.5 C33.27935212 28.32889743 33.5190172 32.90690481 31.6875 37.4375 C27.9705624 41.66711865 24.72605477 44.2531927 19.125 45 C4.53016187 44.67822404 -12.05053181 30.67597477 -24.125 23.5 C-25.01179443 22.99500977 -25.89858887 22.49001953 -26.81225586 21.96972656 C-30.55134514 19.59357144 -32.55007466 16.64717016 -33.69921875 12.35546875 C-34.5534116 6.96395041 -33.98272203 3.29359825 -31.125 -1.5 C-21.37289961 -12.0148345 -10.47879625 -6.18283314 0 0 Z " fill="#000000" transform="translate(67.125,126.5)"/>
<path d="M0 0 C3.95548798 2.20872139 6.37797627 4.83370551 8.5 8.8125 C9.42725106 14.72372553 9.19372961 20.32009503 5.62841797 25.36230469 C1.70787723 29.30518134 -3.54594246 31.71785175 -8.375 34.375 C-9.55680874 35.0379117 -10.73787874 35.70214208 -11.91821289 36.36767578 C-14.22940428 37.66867636 -16.54461967 38.96135575 -18.86279297 40.25 C-22.74598356 42.4161253 -26.59294893 44.64133612 -30.4375 46.875 C-36.42932237 50.33960818 -41.07041212 51.87656325 -48 51 C-52.64425866 48.50586109 -56.31375022 46.05874933 -58 41 C-58.48917765 35.89170222 -58.62406819 31.43807019 -56.5625 26.6875 C-49.70432039 19.49477504 -40.23809066 15.27501838 -31.609375 10.54296875 C-26.26602235 7.60903514 -20.99258202 4.55943072 -15.72265625 1.49609375 C-10.33585906 -1.46393971 -5.89072773 -1.4459059 0 0 Z " fill="#000000" transform="translate(470,120)"/>
<path d="M0 0 C1.10927856 -0.00145523 2.21855713 -0.00291046 3.3614502 -0.00440979 C5.7014428 -0.00275342 8.04144658 0.00877838 10.38134766 0.02954102 C13.95652699 0.05849476 17.53022254 0.05014336 21.10546875 0.03710938 C23.38281968 0.04334724 25.66016595 0.05173855 27.9375 0.0625 C29.00327271 0.05956436 30.06904541 0.05662872 31.16711426 0.05360413 C36.66147941 0.12320937 40.76394321 0.32622544 45.46875 3.49609375 C50.1368249 8.6688254 50.83666117 11.89249902 50.73828125 18.734375 C50.35013989 22.71141766 49.25258547 24.64266239 46.46875 27.49609375 C40.32754678 31.74737581 34.50526266 32.08587239 27.21484375 32.02734375 C26.15515884 32.03117065 25.09547394 32.03499756 24.00367737 32.03894043 C21.77400761 32.04165051 19.54430557 32.03435301 17.31469727 32.01757812 C13.91285045 31.99613535 10.51311033 32.01742284 7.11132812 32.04296875 C4.93749537 32.04032573 2.76366391 32.03520129 0.58984375 32.02734375 C-0.420746 32.03544067 -1.43133575 32.0435376 -2.47254944 32.05187988 C-8.70591517 31.96955347 -12.43961687 31.15813518 -17.53125 27.49609375 C-21.01939876 23.82906557 -21.82404901 20.92213024 -22.03125 15.99609375 C-21.83094749 11.07532865 -20.96042072 8.19598848 -17.53125 4.49609375 C-12.05507505 -0.30657336 -7.08032619 -0.07463151 0 0 Z " fill="#000000" transform="translate(21.53125,238.50390625)"/>
<path d="M0 0 C1.50219841 -0.01925285 1.50219841 -0.01925285 3.03474426 -0.03889465 C4.6566291 -0.04997505 4.6566291 -0.04997505 6.3112793 -0.0612793 C7.4248027 -0.06935104 8.53832611 -0.07742279 9.68559265 -0.08573914 C12.04347173 -0.09957533 14.40137079 -0.11029956 16.75927734 -0.11816406 C20.36098239 -0.13538086 23.96177052 -0.17927304 27.56323242 -0.22338867 C29.8542413 -0.23351538 32.14525798 -0.24203155 34.4362793 -0.2487793 C35.51146317 -0.26628738 36.58664703 -0.28379547 37.69441223 -0.30183411 C43.83009507 -0.28407769 47.41071975 0.06853669 52.07299805 4.17700195 C55.50216877 7.87689668 56.37269553 10.75623685 56.57299805 15.67700195 C56.38660108 20.57657949 55.42512493 23.45241653 52.07299805 27.17700195 C48.14026536 30.74104095 44.52891686 31.29168288 39.33959961 31.35400391 C38.40472717 31.36683914 37.46985474 31.37967438 36.50665283 31.39289856 C35.502453 31.40028549 34.49825317 31.40767242 33.46362305 31.4152832 C32.42284607 31.42335495 31.38206909 31.4314267 30.30975342 31.43974304 C28.10747942 31.45356523 25.90518416 31.46429571 23.70288086 31.47216797 C21.45672303 31.48368756 19.21059256 31.50413887 16.96459961 31.53369141 C13.71408536 31.57646133 10.46438411 31.59255073 7.21362305 31.6027832 C6.21752014 31.62029129 5.22141724 31.63779938 4.19512939 31.65583801 C-2.02739362 31.63662453 -6.7473894 30.76569123 -11.92700195 27.17700195 C-15.47411897 23.54120701 -16.21278422 20.6107041 -16.42700195 15.67700195 C-16.24060498 10.77742442 -15.27912883 7.90158737 -11.92700195 4.17700195 C-8.14257618 0.85129446 -4.9650025 0.05546268 0 0 Z " fill="#000000" transform="translate(455.927001953125,238.822998046875)"/>
<path d="M0 0 C4.62297771 2.18983154 6.70349799 4.50538111 9 9 C9.40786743 11.5974884 9.40786743 11.5974884 9.45166016 14.39770508 C9.4740274 15.4526265 9.49639465 16.50754791 9.5194397 17.59443665 C9.52591522 18.72471786 9.53239075 19.85499908 9.5390625 21.01953125 C9.55141937 22.19206955 9.56377625 23.36460785 9.57650757 24.57267761 C9.59606029 27.05141211 9.60730351 29.53022411 9.61083984 32.0090332 C9.62491344 35.78925025 9.69225166 39.56615151 9.76171875 43.34570312 C9.77411924 45.75779785 9.78333779 48.16991145 9.7890625 50.58203125 C9.81578033 51.70623978 9.84249817 52.8304483 9.87002563 53.98872375 C9.81056142 60.90263273 8.68280852 64.61347756 3.79647827 69.58891296 C-0.47319793 72.94263276 -5.84190628 72.44708999 -11 72 C-15.34938617 70.26024553 -18.78654841 67.14916472 -21 63 C-21.73250302 58.93694757 -21.67717866 54.9318436 -21.62890625 50.8125 C-21.63131821 49.6366333 -21.63373016 48.4607666 -21.63621521 47.24926758 C-21.63523755 44.76803203 -21.62186365 42.28677446 -21.59692383 39.80566406 C-21.56261683 36.01291626 -21.57627173 32.22249914 -21.59570312 28.4296875 C-21.58880446 26.0156151 -21.5791319 23.60154871 -21.56640625 21.1875 C-21.57136612 20.05610596 -21.57632599 18.92471191 -21.58143616 17.7590332 C-21.48880091 11.55091071 -21.21440494 7.69397851 -17 3 C-11.77740143 -1.05630398 -6.34659858 -0.77397544 0 0 Z " fill="#000000" transform="translate(262,0)"/>
</svg>
