<?xml version="1.0" encoding="UTF-8"?>
<svg version="1.1" xmlns="http://www.w3.org/2000/svg" width="512" height="512">
<path d="M0 0 C1.4219165 0.85319824 1.4219165 0.85319824 2.87255859 1.72363281 C8.04760639 4.83997917 13.20957693 7.97695993 18.3625946 11.12953186 C28.4277874 17.28538555 38.57149098 23.30589426 48.72436523 29.31567383 C60.74275295 36.43015261 72.72426243 43.60199298 84.64990234 50.87109375 C93.55055248 56.29635265 102.46350659 61.69791895 111.43359375 67.0078125 C112.13880661 67.42537811 112.84401947 67.84294373 113.57060242 68.27316284 C116.98193292 70.29178241 120.39552451 72.30645435 123.81225586 74.31591797 C146.21517791 87.52228826 165.70994135 100.16125333 173.421875 126.48046875 C174.85297013 132.71733603 175.14708318 138.77622979 175.14044189 145.1375885 C175.14489858 146.48544069 175.14489858 146.48544069 175.1494453 147.86052221 C175.15809081 150.86023074 175.15963703 153.85989916 175.16113281 156.85961914 C175.16576398 159.01524948 175.17078904 161.17087899 175.17617798 163.32650757 C175.18927649 169.17601977 175.19574213 175.0255205 175.20018864 180.87504506 C175.20312389 184.53377323 175.20722958 188.1924983 175.21169281 191.8512249 C175.22536194 203.31056359 175.23503107 214.76989515 175.2388947 226.22924143 C175.24337209 239.43466471 175.26090771 252.63998431 175.2898953 265.84537607 C175.31155085 276.06730963 175.32160107 286.28921409 175.32293582 296.51117033 C175.3239812 302.60929985 175.32983203 308.70733183 175.34775543 314.80543709 C175.3643028 320.54695201 175.36635934 326.28829677 175.35761642 332.02982712 C175.35684957 334.12834442 175.36114192 336.22687113 175.37107468 338.32536507 C175.47626905 361.94950042 171.36923339 380.78297899 154.875 398.6875 C140.35517939 412.63252564 122.16484755 416.18998075 102.71459961 416.24023438 C100.46754946 416.24987113 98.22144301 416.28092048 95.97460938 416.3125 C75.38841401 416.46368138 58.09913556 411.16673181 42.75 396.91015625 C28.53698418 382.00314552 24.39417098 364.48804864 24.4609375 344.5703125 C24.45099442 342.92470006 24.43903975 341.2790987 24.42520142 339.6335144 C24.39312485 335.33582773 24.38247533 331.03839512 24.37835693 326.74060059 C24.3695431 319.87318515 24.33342489 313.00597556 24.2861824 306.1387291 C24.27384142 303.77275089 24.27433356 301.40704912 24.27645874 299.04104614 C24.22183755 278.02570781 21.76602095 256.90494336 6.8359375 240.7109375 C-6.3270467 228.44415648 -21.69609041 221.3652062 -39.671875 220.90625 C-56.44084764 221.65153767 -71.88395307 228.39368967 -84 240 C-100.01335341 257.82716367 -102.11439055 277.95535819 -102.16866493 300.91573715 C-102.17596206 303.36538441 -102.19172041 305.81484604 -102.21000671 308.26443481 C-102.26187748 315.22037276 -102.31039994 322.17619677 -102.32592773 329.13232422 C-102.33610014 333.41282723 -102.36564001 337.69284039 -102.40724754 341.97314835 C-102.41941557 343.58595169 -102.42470531 345.19882454 -102.42244911 346.81167221 C-102.40157898 366.58873207 -107.61999125 383.83841934 -121.91015625 398.203125 C-137.04257793 412.44886221 -155.39287804 416.37568985 -175.5871582 416.31567383 C-177.79884479 416.31251948 -180.00918124 416.33603816 -182.22070312 416.36132812 C-194.32071194 416.41717951 -206.23707671 415.20919908 -217.125 409.5 C-218.11765869 408.99049805 -218.11765869 408.99049805 -219.13037109 408.47070312 C-234.70310053 400.0481423 -245.55381314 385.45913723 -250.8125 368.6875 C-252.7950141 361.8027692 -253.14786572 354.97332552 -253.14044189 347.8624115 C-253.14341302 346.96384337 -253.14638414 346.06527525 -253.1494453 345.13947779 C-253.15809081 342.13976926 -253.15963703 339.14010084 -253.16113281 336.14038086 C-253.16576398 333.98475052 -253.17078904 331.82912101 -253.17617798 329.67349243 C-253.18927649 323.82398023 -253.19574213 317.9744795 -253.20018864 312.12495494 C-253.20312389 308.46622677 -253.20722958 304.8075017 -253.21169281 301.1487751 C-253.22536194 289.68943641 -253.23503107 278.23010485 -253.2388947 266.77075857 C-253.24337209 253.56533529 -253.26090771 240.36001569 -253.2898953 227.15462393 C-253.31155085 216.93269037 -253.32160107 206.71078591 -253.32293582 196.48882967 C-253.3239812 190.39070015 -253.32983203 184.29266817 -253.34775543 178.19456291 C-253.3643028 172.45304799 -253.36635934 166.71170323 -253.35761642 160.97017288 C-253.35684957 158.87165558 -253.36114192 156.77312887 -253.37107468 154.67463493 C-253.47291487 131.80376825 -249.70341088 112.63320454 -233.8125 95.25 C-230.69245446 92.3969406 -227.26416877 90.12167154 -223.70703125 87.859375 C-222.78659531 87.27119995 -222.78659531 87.27119995 -221.8475647 86.67114258 C-215.60137046 82.70502847 -209.24876713 78.92513953 -202.87158203 75.17456055 C-199.36628212 73.11244293 -195.86665324 71.04074848 -192.3671875 68.96875 C-191.65923035 68.54968384 -190.95127319 68.13061768 -190.22186279 67.69885254 C-183.44948791 63.68433758 -176.72117441 59.59948089 -170 55.5 C-159.36879701 49.0170858 -148.6797672 42.63708473 -137.96401978 36.29501343 C-129.08357338 31.03762158 -120.23180192 25.73725878 -111.41894531 20.36730957 C-106.86401986 17.59241456 -102.30469073 14.82475418 -97.74456787 12.05841064 C-96.56052009 11.34006153 -95.37664734 10.62142385 -94.19293213 9.90252686 C-90.54862958 7.69024793 -86.89890676 5.48737229 -83.24185181 3.29623413 C-81.56766423 2.29064217 -79.89834609 1.27695669 -78.22924805 0.26293945 C-51.64637022 -15.61061735 -26.41491865 -15.87582293 0 0 Z " fill="#000000" transform="translate(295,54)"/>
</svg>
