<?xml version="1.0" encoding="UTF-8"?>
<svg version="1.1" xmlns="http://www.w3.org/2000/svg" width="512" height="512">
<path d="M0 0 C11.50278922 8.8046041 18.572596 19.71238525 21 34 C21.92637618 47.27212032 19.81209256 59.91896916 11.0607233 70.30051994 C5.90160124 75.99092925 0.61929309 81.51990175 -4.82446289 86.93798828 C-6.0700145 88.18375893 -6.0700145 88.18375893 -7.34072876 89.45469666 C-10.04900418 92.16228294 -12.76078968 94.86632347 -15.47265625 97.5703125 C-17.36573366 99.46152218 -19.25861201 101.35292902 -21.15122986 103.24459839 C-25.60070629 107.69098619 -30.05272193 112.13482225 -34.50569195 116.57771099 C-39.58156717 121.64234773 -44.65454972 126.70987782 -49.7273103 131.77763391 C-60.14836031 142.18827552 -70.57297667 152.59534103 -81 163 C-76.3607323 168.57907556 -71.40467995 173.70900116 -66.24414062 178.8059082 C-65.38483444 179.65893524 -64.52552826 180.51196228 -63.6401825 181.39083862 C-61.78333615 183.23388874 -59.92543023 185.07587184 -58.0665741 186.91689491 C-55.11990053 189.83550293 -52.17883499 192.75971897 -49.2388916 195.68510437 C-48.22805714 196.69079617 -47.21721572 197.69648097 -46.20636749 198.70215893 C-45.70045861 199.20548225 -45.19454973 199.70880557 -44.67331028 200.22738111 C-37.83812335 207.02666054 -30.9981931 213.82111416 -24.14794922 220.60522461 C-19.51259729 225.19591598 -14.88453989 229.7938302 -10.26444197 234.39987439 C-7.82613923 236.83015111 -5.38433399 239.25664994 -2.9334259 241.67421913 C-0.19819935 244.37553972 2.5242028 247.08920588 5.24414062 249.8059082 C6.04535843 250.59117386 6.84657623 251.37643951 7.67207336 252.1855011 C18.13051755 262.70058772 24.29893889 274.9724769 24.5 290 C24.34671715 301.44557544 20.98353722 311.00021844 14 320 C12.88625 321.546875 12.88625 321.546875 11.75 323.125 C2.73388492 332.55093849 -8.79415087 337.95068215 -21.82397461 338.29272461 C-37.93801829 338.43916661 -49.32262764 333.64591069 -60.95855713 322.38201904 C-62.72001266 320.62012343 -64.47332825 318.85006369 -66.21972656 317.07324219 C-67.19599974 316.09119572 -68.17296985 315.10984167 -69.15057373 314.12911987 C-71.23592408 312.034366 -73.31654174 309.93506643 -75.39350128 307.8319931 C-78.6808421 304.50374303 -81.97990282 301.18727246 -85.28070068 297.87237549 C-92.27945147 290.84048582 -99.26535941 283.79590097 -106.25 276.75 C-113.80656799 269.12725074 -121.3653721 261.5067966 -128.93887687 253.90086865 C-132.21727632 250.60756268 -135.48823256 247.30709327 -138.75359392 244.00086164 C-140.78571344 241.94632046 -142.82406876 239.8980531 -144.86414337 237.85141373 C-146.25404706 236.45324468 -147.63637073 235.04755309 -149.01843262 233.64163208 C-149.85364441 232.8062088 -150.6888562 231.97078552 -151.54937744 231.11004639 C-152.26829288 230.38446911 -152.98720833 229.65889183 -153.72790909 228.91132736 C-156.31053092 226.73877531 -158.95794246 225.43828001 -162 224 C-164.01229858 222.34846497 -164.01229858 222.34846497 -165.80224609 220.53833008 C-166.48249847 219.8578511 -167.16275085 219.17737213 -167.86361694 218.47627258 C-168.57635773 217.74804794 -169.28909851 217.0198233 -170.0234375 216.26953125 C-170.76961334 215.51911057 -171.51578918 214.76868988 -172.28457642 213.99552917 C-174.65521369 211.60816226 -177.01517855 209.21055373 -179.375 206.8125 C-180.98498289 205.18746298 -182.59565261 203.56310613 -184.20703125 201.93945312 C-188.14601108 197.96747983 -192.07629112 193.98705629 -196 190 C-199.2109766 191.41587988 -201.36715466 193.11428779 -203.84634399 195.58564758 C-204.59781204 196.33003082 -205.34928009 197.07441406 -206.1235199 197.84135437 C-206.93821243 198.65852432 -207.75290497 199.47569427 -208.59228516 200.31762695 C-209.45772446 201.17795532 -210.32316376 202.03828369 -211.21482849 202.92468262 C-213.58423365 205.28257199 -215.94902034 207.64490446 -218.31140184 210.00981927 C-220.28528382 211.98477167 -222.26213587 213.95673785 -224.23894632 215.92875832 C-228.9028672 220.58158817 -233.56144427 225.23972152 -238.21679688 229.90112305 C-243.01712058 234.70748805 -247.82655044 239.50460048 -252.64052927 244.29728538 C-256.77596449 248.41510028 -260.90556445 252.53870385 -265.03057134 256.66696519 C-267.49316389 259.13136993 -269.95792496 261.5935017 -272.4283638 264.05004311 C-275.18289963 266.78966116 -277.92522667 269.54130172 -280.66650391 272.29418945 C-281.4852449 273.10528671 -282.3039859 273.91638397 -283.14753723 274.75205994 C-283.89336563 275.50490265 -284.63919403 276.25774536 -285.40762329 277.03340149 C-286.05690104 277.68251149 -286.70617878 278.33162149 -287.37513161 279.0004015 C-290.91092165 283.35162188 -291.48277511 287.4963637 -291 293 C-289.25583626 297.68170268 -287.12964161 300.21249191 -283 303 C-278.43974136 304.52008621 -274.61475856 304.6610821 -270.12744141 302.82397461 C-266.66895748 300.80693062 -264.03559984 298.41546846 -261.2734375 295.56640625 C-260.73599915 295.0245871 -260.19856079 294.48276794 -259.64483643 293.92453003 C-258.48586473 292.75419506 -257.33036985 291.58040871 -256.17803955 290.40353394 C-254.35158949 288.53859617 -252.51575805 286.68336541 -250.67724609 284.83032227 C-246.77634083 280.89522497 -242.88733278 276.94849962 -239 273 C-234.49343678 268.4225264 -229.98206994 263.85001241 -225.45782471 259.29000854 C-223.65359975 257.4664069 -221.85868602 255.63397389 -220.06396484 253.80102539 C-218.95194606 252.67810369 -217.83950091 251.55560401 -216.7265625 250.43359375 C-216.23391907 249.92545135 -215.74127563 249.41730896 -215.23370361 248.89376831 C-210.84481419 244.50290724 -206.38444315 241.57274626 -200.0625 241.5625 C-193.64510359 241.78445506 -190.0771993 243.86953918 -185.5625 248.5 C-183.29953629 253.56903871 -183.03284568 258.53842268 -184 264 C-186.69252058 268.51126047 -189.92030806 272.21738094 -193.61962891 275.91015625 C-194.16985718 276.46710175 -194.72008545 277.02404724 -195.2869873 277.59786987 C-197.09493437 279.42470448 -198.91022626 281.24400864 -200.7265625 283.0625 C-201.99740836 284.3397811 -203.26810704 285.61720867 -204.53866577 286.89477539 C-207.19979829 289.56785828 -209.86500724 292.23680008 -212.53271484 294.90332031 C-215.93197253 298.30237515 -219.31728033 301.71496024 -222.69915199 305.13130188 C-225.3192783 307.77378873 -227.94857029 310.40701047 -230.58042526 313.03781128 C-231.83142905 314.29115821 -233.07923107 315.54771019 -234.32359695 316.80764771 C-246.28974866 328.90942311 -258.33542317 337.98640034 -276.0625 338.25 C-289.69468612 338.08113283 -301.36235189 333.59101362 -311.375 324.1875 C-321.31032113 313.4879234 -325.36115645 300.86788464 -325.21484375 286.48046875 C-324.01984748 267.12152923 -311.94426756 255.77141672 -298.90014648 242.78662109 C-298.04051804 241.92684662 -297.18088959 241.06707214 -296.29521179 240.1812439 C-293.97117649 237.85777975 -291.6449609 235.5365273 -289.31769443 233.21630049 C-286.87355632 230.77847748 -284.43231104 228.33776082 -281.99073792 225.89736938 C-277.38188929 221.29161029 -272.77050104 216.68840289 -268.15816027 212.08614123 C-262.90091142 206.84012798 -257.64655275 201.59122394 -252.39241683 196.34209323 C-241.59812312 185.55820997 -230.80026429 174.77790381 -220 164 C-224.57379985 158.49881955 -229.45215688 153.4500249 -234.55639648 148.44116211 C-236.29256037 146.72798576 -238.02867782 145.01476237 -239.76475525 143.30149841 C-241.13477345 141.9522569 -241.13477345 141.9522569 -242.5324688 140.57575798 C-245.40845875 137.74050804 -248.2788813 134.89975417 -251.14674377 132.05628967 C-251.6332569 131.57396486 -252.11977003 131.09164004 -252.62102598 130.59469932 C-253.61525965 129.60896814 -254.60946979 128.62321323 -255.60365689 127.63743508 C-262.26922315 121.02852205 -268.93865783 114.42374659 -275.63110352 107.84204102 C-280.16052632 103.38745929 -284.67705041 98.9202261 -289.17953545 94.43841368 C-291.55438572 92.07544167 -293.93660307 89.72132901 -296.33123589 87.37830925 C-310.61626595 73.39230437 -321.69709159 61.5888815 -322.05859375 40.59765625 C-321.64915421 28.64466324 -318.03999596 17.95093146 -310 9 C-309.47664063 8.39671875 -308.95328125 7.7934375 -308.4140625 7.171875 C-299.55168398 -2.3978295 -288.73116284 -6.93808524 -275.8737793 -7.45336914 C-260.29031032 -7.73032481 -249.30594694 -3.56302851 -237.76061821 7.060606 C-235.41807313 9.33805977 -233.10821648 11.64405743 -230.80834961 13.96459961 C-229.93896759 14.83368958 -229.06958557 15.70277954 -228.17385864 16.59820557 C-225.81750672 18.95570265 -223.46564783 21.31751219 -221.11576533 23.68144679 C-218.6490471 26.16076539 -216.17656954 28.63432772 -213.70472717 31.10853577 C-209.03670996 35.78274063 -204.37380947 40.46201476 -199.71277767 45.14318424 C-194.40106511 50.47734087 -189.08359414 55.8057415 -183.76565921 61.13369358 C-172.8374048 72.08278841 -161.91631504 83.0390007 -151 94 C-145.52319811 89.44042546 -140.47425135 84.5890785 -135.46948242 79.51953125 C-134.64571609 78.68948578 -133.82194977 77.85944031 -132.97322083 77.00424194 C-131.19401145 75.21124009 -129.41587064 73.41717739 -127.63869286 71.62216187 C-124.82024989 68.7769466 -121.99750045 65.93605048 -119.17292786 63.09692383 C-118.20168274 62.12053612 -117.23044466 61.14414141 -116.25921345 60.16773987 C-115.77314424 59.6790851 -115.28707504 59.19043034 -114.78627646 58.68696785 C-108.22186005 52.08665165 -101.66227646 45.48158812 -95.11303711 38.86621094 C-90.68056404 34.38906731 -86.24086097 29.91922795 -81.79302675 25.4573431 C-79.44657554 23.10286861 -77.10508139 20.74378743 -74.7701931 18.37783813 C-72.16227729 15.7360004 -69.5420089 13.10701101 -66.91870117 10.48046875 C-66.16148773 9.70730316 -65.40427429 8.93413757 -64.62411499 8.13754272 C-47.52072838 -8.87051389 -20.7364357 -14.60312373 0 0 Z M-45.94287109 36.60229492 C-46.8215686 37.48055435 -47.70026611 38.35881378 -48.60559082 39.26368713 C-51.00322137 41.6630448 -53.39401709 44.06884598 -55.78198195 46.47780013 C-58.28298589 48.99760713 -60.79253568 51.50887396 -63.30117798 54.02107239 C-68.04567939 58.77488362 -72.78248399 63.53628759 -77.5165478 68.30049068 C-82.90845951 73.72597952 -88.30893171 79.14291294 -93.71012759 84.55915678 C-104.81628116 95.69663527 -115.91167545 106.84476933 -127 118 C-126.04359074 119.12203297 -125.08629732 120.24331233 -124.12863159 121.36427307 C-123.59563383 121.98876626 -123.06263607 122.61325945 -122.51348686 123.25667667 C-120.79249612 125.23901519 -118.99709481 127.1169148 -117.1328125 128.96484375 C-116.47539062 129.61904297 -115.81796875 130.27324219 -115.140625 130.94726562 C-114.47546875 131.60404297 -113.8103125 132.26082031 -113.125 132.9375 C-112.43664062 133.62134766 -111.74828125 134.30519531 -111.0390625 135.00976562 C-109.36166359 136.67551593 -107.68151054 138.33840361 -106 140 C-100.54205854 135.44402304 -95.46373068 130.61752868 -90.43432617 125.59545898 C-89.60746307 124.77356079 -88.78059998 123.9516626 -87.92868042 123.1048584 C-85.2140049 120.40470415 -82.50316339 117.70074509 -79.79296875 114.99609375 C-78.38029819 113.58772329 -76.96762735 112.1793531 -75.55492002 110.77101952 C-71.62660284 106.8544716 -67.70039104 102.93582532 -63.77622432 99.01511902 C-58.7113036 93.95469085 -53.63988559 88.90089416 -48.56278819 83.85268348 C-44.62698534 79.93849548 -40.69696458 76.0185632 -36.77128583 72.09422165 C-34.43082596 69.75480846 -32.08730087 67.41861615 -29.73915672 65.08691216 C-27.12522801 62.48999573 -24.52088058 59.88382854 -21.91870117 57.27514648 C-21.14207626 56.50773636 -20.36545135 55.74032623 -19.56529236 54.94966125 C-18.85745605 54.2362558 -18.14961975 53.52285034 -17.42033386 52.78782654 C-16.49650799 51.86620051 -16.49650799 51.86620051 -15.55401897 50.92595577 C-12.06901532 46.60685605 -11.52275028 42.44064684 -12 37 C-13.89327496 31.7409029 -16.59783215 29.20991406 -21 26 C-32.25541556 22.24819481 -38.59515497 29.15793038 -45.94287109 36.60229492 Z M-286.3125 32.3125 C-288.98036877 36.56132803 -289.22639958 40.15099206 -288.62383842 45.0721159 C-286.76734126 51.08262791 -281.49848556 55.17681924 -277.14358521 59.47114563 C-276.09594488 60.52239997 -275.04940129 61.57474822 -274.00386131 62.62809151 C-271.1312662 65.51573803 -268.24331066 68.38757915 -265.35258555 71.25706065 C-262.23646968 74.35569465 -259.13480169 77.46873223 -256.03131104 80.58000183 C-249.95117568 86.67081163 -243.85781261 92.74822076 -237.75992383 98.82125077 C-230.66181179 105.89144599 -223.57699766 112.974904 -216.49274753 120.05898406 C-203.85477786 132.69576623 -191.20495272 145.32061342 -178.54833984 157.9387207 C-166.26126443 170.18843884 -153.98227703 182.44618718 -141.71240234 194.71313477 C-140.95649253 195.46886177 -140.20058271 196.22458878 -139.42176653 197.0032166 C-138.66717681 197.75762736 -137.91258708 198.51203811 -137.135131 199.2893098 C-135.61587881 200.80819658 -134.09662314 202.32707987 -132.57736397 203.84595966 C-131.82815562 204.5949825 -131.07894727 205.34400534 -130.30703563 206.11572583 C-118.62050092 217.79869201 -106.92653028 229.47421332 -95.23182777 241.14900262 C-90.99041884 245.38338499 -86.75013405 249.61888937 -82.51066007 253.85520897 C-75.78740817 260.57341593 -69.06099687 267.28842321 -62.32785214 273.9967166 C-59.25050967 277.06282281 -56.17475549 280.13047768 -53.10326004 283.20244217 C-50.29354949 286.01246029 -47.47928332 288.81782892 -44.66124223 291.61949196 C-43.64066134 292.63574303 -42.62176522 293.65368932 -41.6047007 294.67345957 C-40.22552915 296.05578271 -38.83964735 297.43140129 -37.45341682 298.80664539 C-36.68442814 299.57368316 -35.91543946 300.34072092 -35.12314808 301.13100225 C-31.00101663 304.75969611 -27.68365639 305.45877411 -22.3125 305.30859375 C-17.82402781 304.70962533 -14.61803566 302.89089966 -11.6796875 299.45703125 C-8.72709899 294.94555859 -8.41004197 291.30962227 -9 286 C-11.34642204 279.45503187 -16.46183643 275.11746047 -21.28564453 270.32617188 C-22.24746331 269.36028378 -23.20864363 268.39375955 -24.16923523 267.426651 C-26.77210152 264.81014278 -29.38432731 262.20317257 -31.99877787 259.59824562 C-34.74171729 256.86292552 -37.47730202 254.12026555 -40.21408081 251.37878418 C-44.81376957 246.77364172 -49.41973643 242.17484964 -54.02929688 237.57958984 C-59.34317119 232.28201215 -64.64619136 226.97375352 -69.94364655 221.65976095 C-74.50387285 217.08587399 -79.06997822 212.51791794 -83.64095199 207.95477152 C-86.36565453 205.23472414 -89.08834224 202.51274302 -91.80572891 199.78538513 C-94.36476896 197.21761189 -96.93116542 194.65741573 -99.50316811 192.10262871 C-100.88402914 190.72756089 -102.25760733 189.34519133 -103.63087463 187.96253967 C-108.16522456 183.47379793 -112.64484365 179.68423195 -118.04090118 176.27903938 C-120.63421186 174.58594128 -122.77541665 172.60573679 -124.96557617 170.42260742 C-125.82644333 169.57119675 -126.68731049 168.71978607 -127.57426453 167.84257507 C-128.92002312 166.48770744 -128.92002312 166.48770744 -130.29296875 165.10546875 C-131.25178746 164.14867761 -132.21105054 163.19233161 -133.17073059 162.23640442 C-135.16812194 160.24340433 -137.16006868 158.24516282 -139.14819336 156.24291992 C-141.6761662 153.69785725 -144.21737498 151.16650697 -146.76285839 148.63897228 C-148.74250802 146.67024764 -150.71485364 144.69432892 -152.68517494 142.71627235 C-154.06694712 141.33157201 -155.45468036 139.95282815 -156.84257507 138.57426453 C-157.69398575 137.71339737 -158.54539642 136.85253021 -159.42260742 135.96557617 C-160.16379318 135.22200363 -160.90497894 134.47843109 -161.66862488 133.71232605 C-163.61701882 131.44556099 -165.11916844 129.30167435 -166.70817566 126.79083252 C-170.2678986 121.34651492 -174.64040469 116.9459134 -179.24658203 112.38110352 C-180.15786865 111.46616623 -181.06915527 110.55122894 -182.00805664 109.60856628 C-184.48451394 107.12278537 -186.97016512 104.64639851 -189.45797205 102.171983 C-192.06875217 99.57259665 -194.67173482 96.96542154 -197.27584839 94.35935974 C-201.64338812 89.99094023 -206.01683703 85.62850797 -210.39404297 81.26977539 C-215.45149379 76.23354704 -220.49999673 71.18848458 -225.54373276 66.13852364 C-230.40745781 61.26910412 -235.27683192 56.40537363 -240.14901352 51.54441643 C-242.21844801 49.47962072 -244.28599299 47.41295999 -246.3520546 45.34478951 C-249.23293595 42.46167447 -252.12208424 39.58698579 -255.01220703 36.71313477 C-256.2949501 35.42667557 -256.2949501 35.42667557 -257.60360718 34.11422729 C-258.39136536 33.33355392 -259.17912354 32.55288055 -259.99075317 31.74855042 C-260.67246141 31.06889504 -261.35416965 30.38923967 -262.05653572 29.68898869 C-266.34858754 25.95893456 -269.99080037 25.56137795 -275.53125 25.68359375 C-280.34305841 26.30029704 -283.00659371 29.00659371 -286.3125 32.3125 Z " fill="#000000" transform="translate(408,91)"/>
</svg>
