<?xml version="1.0" encoding="UTF-8"?>
<svg version="1.1" xmlns="http://www.w3.org/2000/svg" width="512" height="512">
<path d="M0 0 C2.11356789 -0.00270302 4.22713455 -0.00659212 6.34069824 -0.01159668 C10.74466938 -0.01745364 15.14831336 -0.0090525 19.55224609 0.00976562 C25.15324713 0.03255253 30.75348104 0.01940888 36.35445404 -0.00452423 C40.71121844 -0.01908571 45.06780561 -0.01432914 49.42457581 -0.00401306 C51.48792109 -0.00137427 53.55128329 -0.00451328 55.61460876 -0.01393127 C70.86242343 -0.06828246 85.42170324 0.89698419 99.15625 8.28125 C99.81488037 8.62341553 100.47351074 8.96558105 101.15209961 9.31811523 C106.91502545 12.40895293 111.95729279 16.11078363 116.78125 20.53125 C117.41289062 21.09457031 118.04453125 21.65789062 118.6953125 22.23828125 C133.30243278 35.97669614 141.57996556 55.7026936 142.24694061 75.57106018 C142.33848328 80.66264143 142.33453207 85.75156622 142.3125 90.84375 C142.31520243 93.06941903 142.31909104 95.29508691 142.32409668 97.52075195 C142.32995641 102.16010909 142.32154327 106.79915583 142.30273438 111.43847656 C142.2799474 117.3421348 142.29308952 123.24506526 142.31702423 129.1486969 C142.33157803 133.73707418 142.32683257 138.32528302 142.31651306 142.91366577 C142.31387217 145.08865447 142.31702095 147.2636592 142.32643127 149.43862915 C142.37907257 165.0190899 141.583115 179.86162303 134.03125 193.90625 C133.68835938 194.56560547 133.34546875 195.22496094 132.9921875 195.90429688 C129.89674769 201.67153053 126.20203465 206.69983911 121.78125 211.53125 C121.19085938 212.21316406 120.60046875 212.89507812 119.9921875 213.59765625 C107.73785617 226.92098244 88.90928517 236.02447156 70.8616333 236.818573 C64.9628762 236.98087495 59.06459722 236.97570695 53.1640625 236.96484375 C50.9765507 236.96941488 48.78904032 236.9747232 46.60153198 236.98072815 C42.03426246 236.98962186 37.46716815 236.98727908 32.89990234 236.97729492 C27.08464077 236.96581315 21.26998718 236.9860244 15.45480537 237.01521206 C10.9419682 237.03367296 6.42927405 237.03326192 1.91640854 237.02757454 C-0.2259214 237.02742252 -2.36826179 237.03336683 -4.51055527 237.04586601 C-27.04576546 237.15884795 -45.95148551 233.15401311 -63.21875 217.53125 C-63.97671875 216.86609375 -64.7346875 216.2009375 -65.515625 215.515625 C-79.43670582 202.55461872 -88.68109683 183.58768895 -89.506073 164.54281616 C-89.66860367 158.53288431 -89.66319829 152.52339952 -89.65234375 146.51171875 C-89.65691486 144.28176211 -89.66222317 142.05180688 -89.66822815 139.82185364 C-89.67712372 135.16462455 -89.67477736 130.50756726 -89.66479492 125.8503418 C-89.6533196 119.9230826 -89.67351362 113.99642047 -89.70271206 108.06923962 C-89.72118262 103.46800556 -89.72075991 98.86691167 -89.71507454 94.2656498 C-89.7149226 92.08228023 -89.72085994 89.89890039 -89.73336601 87.71556664 C-89.81025089 72.09342384 -89.04289215 57.24065302 -81.46875 43.15625 C-81.12513428 42.49616943 -80.78151855 41.83608887 -80.42749023 41.15600586 C-77.32969895 35.38865361 -73.65334353 30.35365969 -69.21875 25.53125 C-68.52007812 24.75265625 -67.82140625 23.9740625 -67.1015625 23.171875 C-48.9079686 3.87760104 -25.23787795 -0.11519767 0 0 Z M-38.53125 55.90625 C-45.23194546 64.35172489 -47.52761231 73.64942673 -47.4934082 84.26708984 C-47.49851913 85.10075577 -47.50363007 85.93442169 -47.50889587 86.79335022 C-47.52270083 89.52637072 -47.52184194 92.25913645 -47.51953125 94.9921875 C-47.52342328 96.90735974 -47.52775899 98.82253113 -47.53251648 100.73770142 C-47.53995923 104.74378258 -47.53970162 108.74977559 -47.53442383 112.75585938 C-47.52863295 117.86880021 -47.54556055 122.98137834 -47.5687685 128.09425926 C-47.58355898 132.04757773 -47.58437031 136.00080992 -47.58125877 139.95415115 C-47.58176935 141.83825015 -47.58695719 143.72235432 -47.59707069 145.60642624 C-47.66637501 160.32225812 -46.91268496 172.25038273 -36.3671875 183.5078125 C-28.01890189 191.32393648 -19.23746118 193.67588885 -8.00708008 193.69238281 C-7.19335938 193.69734772 -6.37963867 193.70231262 -5.54125977 193.70742798 C-2.85692488 193.72199726 -0.17264913 193.72884368 2.51171875 193.734375 C4.38633728 193.74013176 6.26095581 193.74588942 8.13557434 193.75164795 C12.06540195 193.76214376 15.99520919 193.76799538 19.92504883 193.77148438 C24.94052714 193.77695912 29.95573263 193.80097138 34.9711256 193.82945633 C38.84465805 193.84815814 42.71812584 193.85329236 46.5916996 193.85482025 C48.4395223 193.85783145 50.28734428 193.8658077 52.1351223 193.87900543 C66.52730131 193.97444525 78.54841455 193.29113397 89.53515625 182.8671875 C97.58309704 174.03260589 100.09532795 163.68129084 100.0559082 151.97314453 C100.06101913 151.17019958 100.06613007 150.36725464 100.07139587 149.53997803 C100.08517091 146.91459468 100.08434426 144.28947744 100.08203125 141.6640625 C100.08592488 139.81997584 100.09026091 137.97589006 100.09501648 136.13180542 C100.10245277 132.277131 100.10220632 128.42254821 100.09692383 124.56787109 C100.09113333 119.65346938 100.10806274 114.73944506 100.1312685 109.82510567 C100.14607423 106.01929571 100.14686826 102.21357521 100.14375877 98.40774155 C100.14426857 96.59703703 100.14944146 94.78632705 100.15957069 92.97565079 C100.23082775 78.45798965 99.46151058 65.00618232 89.1171875 53.71484375 C80.65726907 46.00820572 70.56161639 43.21900936 59.32080078 43.2565918 C58.51639557 43.25148087 57.71199036 43.24636993 56.88320923 43.24110413 C54.24758274 43.22730553 51.61222062 43.22815757 48.9765625 43.23046875 C47.12865097 43.22657636 45.28074032 43.22224058 43.43283081 43.21748352 C39.56798395 43.21004213 35.70322847 43.21029737 31.83837891 43.21557617 C26.90703535 43.22136676 21.97606789 43.20443955 17.04478645 43.1812315 C13.23043666 43.16643704 9.41617624 43.16563023 5.60180283 43.16874123 C3.78468964 43.16823084 1.96757108 43.16304673 0.15048599 43.15292931 C-14.89464582 43.07943315 -27.76657962 44.08939379 -38.53125 55.90625 Z " fill="#000000" transform="translate(370.21875,275.46875)"/>
<path d="M0 0 C2.21136128 -0.00457006 4.42272114 -0.00987806 6.63407898 -0.0158844 C11.25440259 -0.02478445 15.87455307 -0.02242848 20.49487305 -0.01245117 C26.3785421 -0.00097589 32.26160966 -0.02116743 38.14519978 -0.05036831 C42.70865089 -0.06882894 47.27196055 -0.0684181 51.83543968 -0.06273079 C54.0028893 -0.06257873 56.17034923 -0.06852666 58.33776283 -0.08102226 C83.83985545 -0.20734272 103.0745945 5.71380343 121.88671875 23.68359375 C137.50636629 39.65228369 144.41992125 61.15343289 144.40698242 83.19775391 C144.41034103 84.03474823 144.41369965 84.87174255 144.41716003 85.73410034 C144.42659866 88.48030108 144.42860981 91.22644034 144.4296875 93.97265625 C144.43290588 95.90066553 144.43627038 97.82867457 144.43977356 99.75668335 C144.44574778 103.79303553 144.44761531 107.82936637 144.44702148 111.86572266 C144.44692016 117.00284779 144.46054891 122.13983378 144.47779369 127.27692604 C144.48899075 131.25955822 144.49093831 135.24215763 144.49041176 139.22480392 C144.4915812 141.11675875 144.49594375 143.00871473 144.50374413 144.90065384 C144.60162202 171.09995634 140.10507257 194.68864405 121.26171875 214.43359375 C105.89057011 228.67947529 87.5328062 236.74668228 66.47607422 236.72412109 C65.55421829 236.73083832 64.63236237 236.73755554 63.68257141 236.74447632 C60.66462666 236.76331973 57.64690601 236.76737392 54.62890625 236.76953125 C52.50676384 236.77596985 50.3846223 236.78269897 48.26248169 236.78970337 C43.82275335 236.80164295 39.38310262 236.80538774 34.94335938 236.80419922 C29.2951604 236.8039965 23.64746721 236.83126516 17.99938774 236.86574364 C13.61691062 236.88814517 9.23455255 236.89203268 4.85202408 236.89097977 C2.77191556 236.89331712 0.69180281 236.90203342 -1.38824844 236.9176445 C-16.72102938 237.02192794 -31.29692423 236.11184418 -45.11328125 228.68359375 C-46.10122681 228.17034546 -46.10122681 228.17034546 -47.10913086 227.64672852 C-52.8720567 224.55589082 -57.91432404 220.85406012 -62.73828125 216.43359375 C-63.36992188 215.87027344 -64.0015625 215.30695313 -64.65234375 214.7265625 C-79.25946403 200.98814761 -87.53699681 181.26215015 -88.20397186 161.39378357 C-88.29551453 156.30220232 -88.29156332 151.21327753 -88.26953125 146.12109375 C-88.27223368 143.89542472 -88.27612229 141.66975684 -88.28112793 139.4440918 C-88.28698766 134.80473466 -88.27857452 130.16568792 -88.25976562 125.52636719 C-88.23697865 119.62270895 -88.25012077 113.71977849 -88.27405548 107.81614685 C-88.28860928 103.22776957 -88.28386382 98.63956073 -88.27354431 94.05117798 C-88.27090342 91.87618928 -88.2740522 89.70118455 -88.28346252 87.5262146 C-88.33610382 71.94575385 -87.54014625 57.10322072 -79.98828125 43.05859375 C-79.64539063 42.39923828 -79.3025 41.73988281 -78.94921875 41.06054688 C-75.85533204 35.29620685 -72.1678609 30.25401866 -67.73828125 25.43359375 C-67.10148437 24.72847656 -66.4646875 24.02335937 -65.80859375 23.296875 C-47.57997139 4.07995384 -25.36626334 -0.04609753 0 0 Z M-37.671875 55.7265625 C-43.78584418 63.92512824 -46.19804131 71.66715334 -46.14233398 81.83374023 C-46.14919724 82.72607361 -46.15606049 83.61840698 -46.16313171 84.53778076 C-46.18129394 87.46024916 -46.17757746 90.38217529 -46.171875 93.3046875 C-46.17644177 95.3529528 -46.18174882 97.40121657 -46.1877594 99.44947815 C-46.19666968 103.73208867 -46.19429098 108.01451249 -46.18432617 112.29711914 C-46.17283757 117.76549185 -46.1930573 123.23321869 -46.22224331 128.70150661 C-46.24065258 132.92849267 -46.24030345 137.15532527 -46.23460579 141.38234138 C-46.23445316 143.39762338 -46.24044863 145.41291616 -46.25289726 147.42815971 C-46.33414658 162.73559364 -45.01798097 173.5838879 -34.1484375 185.12109375 C-25.39185787 193.36258046 -14.46900047 194.5455075 -2.92041016 194.57885742 C-1.81621483 194.58389534 -1.81621483 194.58389534 -0.68971252 194.58903503 C1.71859472 194.59845285 4.12683179 194.60048338 6.53515625 194.6015625 C8.22612536 194.60478108 9.9170942 194.6081456 11.60806274 194.61164856 C15.14333745 194.61761664 18.6785878 194.61949082 22.21386719 194.61889648 C26.72139056 194.61879491 31.22875625 194.63245266 35.73624229 194.64966869 C39.22631535 194.66084073 42.71635087 194.66281411 46.20643997 194.66228676 C47.86725025 194.66345882 49.52806176 194.66783664 51.18885422 194.67561913 C65.52493779 194.73652026 76.69925987 193.51879485 89.01171875 185.68359375 C97.93401146 176.76130104 101.39574965 166.47294572 101.4387207 154.0859375 C101.4485775 152.84332405 101.4485775 152.84332405 101.45863342 151.5756073 C101.47830045 148.84076838 101.49001742 146.10598435 101.5 143.37109375 C101.50407553 142.43207214 101.50815105 141.49305054 101.51235008 140.52557373 C101.53318777 135.55041731 101.54749662 130.57528823 101.55688477 125.60009766 C101.56791412 120.49067203 101.60228044 115.38168609 101.64205647 110.27241516 C101.6683544 106.31898251 101.67658847 102.36565229 101.68016624 98.41213989 C101.68500216 96.53049772 101.69652934 94.64885918 101.71520424 92.76730347 C101.84109742 79.23680335 101.64229944 66.24590416 92.30078125 55.43359375 C79.98991519 43.35856803 66.57277079 42.96423446 50.26953125 43 C48.43309335 42.99542863 46.59665716 42.99012025 44.76022339 42.9841156 C40.92585263 42.97522211 37.09169056 42.97756413 33.25732422 42.98754883 C28.37668051 42.99902815 23.49676148 42.97882355 18.61621284 42.94963169 C14.82745898 42.93116444 11.03887538 42.93158307 7.25008774 42.93726921 C5.45219787 42.93742117 3.65429552 42.93148211 1.85644913 42.91897774 C-12.92795904 42.8306202 -27.44917754 43.60388895 -37.671875 55.7265625 Z " fill="#000000" transform="translate(87.73828125,-0.43359375)"/>
<path d="M0 0 C3.39231374 0.02162588 6.78255124 0.00000488 10.17480469 -0.02539062 C12.35449681 -0.02275013 14.53418766 -0.01763092 16.71386719 -0.00976562 C18.2171759 -0.02191101 18.2171759 -0.02191101 19.75085449 -0.03430176 C26.95753502 0.0614691 32.68734891 1.37495255 37.92871094 6.55664062 C38.38375 7.22566406 38.83878906 7.8946875 39.30761719 8.58398438 C39.78070313 9.25558594 40.25378906 9.9271875 40.74121094 10.61914062 C44.18830546 16.42791236 43.87627097 24.54813822 42.25683594 30.94335938 C39.89592511 36.31001129 35.84389231 39.56990119 30.87011719 42.52148438 C28.15947144 43.42503296 26.57360876 43.64983401 23.78857422 43.66333008 C22.56051559 43.67388176 22.56051559 43.67388176 21.30764771 43.68464661 C20.42334076 43.68881088 19.53903381 43.69297516 18.62792969 43.69726562 C16.7372939 43.72049239 14.84666891 43.74461082 12.95605469 43.76953125 C9.98983849 43.80440209 7.02401182 43.83385229 4.05761719 43.84741211 C-16.98196192 43.84897685 -16.98196192 43.84897685 -35.19628906 53.54492188 C-46.62607186 65.22869985 -46.58658376 78.57403149 -46.52832031 93.95898438 C-46.53034491 95.84887809 -46.53325956 97.73877104 -46.53701782 99.62866211 C-46.541423 103.57575979 -46.5350686 107.52265281 -46.52099609 111.46972656 C-46.50390536 116.50640661 -46.51375627 121.54260692 -46.53171349 126.57926941 C-46.54260032 130.47769731 -46.53908259 134.37601314 -46.53133011 138.27444458 C-46.52934162 140.130626 -46.53173938 141.98681789 -46.53876877 143.84298706 C-46.58163756 158.34147809 -45.63221342 169.80255961 -35.81738281 181.20898438 C-23.76791766 191.57712881 -11.44652805 191.98834733 3.76464844 191.95507812 C5.60251558 191.9596484 7.44038101 191.96495646 9.27824402 191.97096252 C13.11859099 191.97986286 16.95872967 191.97750667 20.79907227 191.9675293 C25.68759162 191.95605795 30.57538662 191.97623878 35.46381092 192.00544643 C39.25685594 192.02391553 43.04973091 192.02349455 46.84280968 192.01780891 C48.64349062 192.01765693 50.444184 192.02359815 52.24482155 192.03610039 C65.46146033 192.11493909 78.40932243 191.65446021 88.93652344 182.55664062 C98.62561843 172.35862347 100.3534546 159.4572585 100.16308594 145.91918945 C100.15651474 144.1240818 100.15651474 144.1240818 100.14981079 142.29270935 C100.1355304 139.04892651 100.10808888 135.80557302 100.0755043 132.56193376 C100.04527832 129.14694819 100.03497043 125.73190868 100.02319336 122.31681824 C99.99008613 113.65574009 99.93144371 104.99490173 99.87011719 96.33398438 C99.80386633 86.96946077 99.74220168 77.60503492 99.70986271 68.24032325 C99.69742862 64.85026036 99.67857663 61.46048713 99.6446228 58.07056618 C99.60863566 54.29218578 99.59104116 50.51411265 99.57714844 46.7355957 C99.56164948 45.62731415 99.54615051 44.51903259 99.53018188 43.37716675 C99.52868891 36.04677074 100.29036983 29.46462153 104.37792969 23.21679688 C109.4395175 18.30192175 114.25046512 15.81976112 121.35058594 15.36132812 C128.10203982 15.62301238 132.95306792 17.9478888 137.87011719 22.52148438 C143.19317093 29.92019169 143.56215416 37.1244821 143.40942383 45.97900391 C143.40682556 47.29100266 143.40422729 48.6030014 143.40155029 49.95475769 C143.39339071 53.52788429 143.35365795 57.10000026 143.30688405 60.67280436 C143.26201409 64.43547527 143.24311951 68.19829393 143.22032166 71.96115112 C143.17794486 78.28425229 143.11509369 84.60689795 143.03979492 90.9296875 C142.95345656 98.19928164 142.89875151 105.46858068 142.86141497 112.73857987 C142.82458441 119.77388537 142.76551946 126.80884084 142.69650078 133.84389877 C142.66766977 136.81713415 142.64622806 139.79027916 142.63105965 142.76361465 C142.43024274 178.44167771 142.43024274 178.44167771 134.12011719 193.89648438 C133.77722656 194.55583984 133.43433594 195.21519531 133.08105469 195.89453125 C129.98561488 201.66176491 126.29090183 206.69007349 121.87011719 211.52148438 C121.27972656 212.20339844 120.68933594 212.8853125 120.08105469 213.58789062 C107.63192813 227.12300482 88.41892955 235.97352661 70.11459351 236.80880737 C64.4645194 236.97052467 58.81500437 236.9659583 53.16308594 236.95507812 C51.06765068 236.95965028 48.97221692 236.96495889 46.87678528 236.97096252 C42.5020231 236.97985409 38.12744384 236.97751646 33.75268555 236.9675293 C28.18861656 236.95605531 22.62518376 236.97624786 17.06119823 237.00544643 C12.73790069 237.02392908 8.41475215 237.02349192 4.09142494 237.01780891 C2.04202699 237.01765712 -0.00738199 237.02358235 -2.05674171 237.03610039 C-17.27903688 237.11599258 -31.79338345 236.14509085 -45.50488281 228.77148438 C-46.16496338 228.42786865 -46.82504395 228.08425293 -47.50512695 227.73022461 C-53.27396822 224.63163354 -58.30174334 220.9515141 -63.12988281 216.52148438 C-63.88527344 215.85761719 -64.64066406 215.19375 -65.41894531 214.50976562 C-79.35197481 201.55827257 -88.59352725 182.56944393 -89.41720581 163.52618408 C-89.57973469 157.50682186 -89.57433276 151.48790523 -89.56347656 145.46679688 C-89.56804737 143.23444461 -89.57335559 141.00209374 -89.57936096 138.76974487 C-89.58825597 134.10831966 -89.58591038 129.44706611 -89.57592773 124.78564453 C-89.56444568 118.84931932 -89.58465704 112.91358967 -89.61384487 106.97734261 C-89.63230219 102.37185989 -89.63189544 97.76651739 -89.62620735 93.16100693 C-89.62605529 90.97401978 -89.63200323 88.78702241 -89.64449883 86.60007095 C-89.72074974 71.06956674 -88.77671722 57.13320423 -81.31738281 43.14648438 C-80.97046387 42.47858887 -80.62354492 41.81069336 -80.26611328 41.12255859 C-77.41691367 35.77657065 -74.22504117 31.00425031 -70.12988281 26.52148438 C-69.37964844 25.69132812 -68.62941406 24.86117188 -67.85644531 24.00585938 C-49.19791235 4.34671108 -25.99905201 -0.19759584 0 0 Z " fill="#000000" transform="translate(89.1298828125,275.478515625)"/>
<path d="M0 0 C0.94223923 -0.0065712 1.88447845 -0.0131424 2.85527039 -0.01991272 C5.97008352 -0.03960078 9.08484837 -0.05130228 12.19970703 -0.0612793 C13.26862309 -0.06535482 14.33753914 -0.06943035 15.43884659 -0.07362938 C21.10359756 -0.09447733 26.76832445 -0.10878102 32.43310547 -0.11816406 C38.25078398 -0.12918756 44.0680757 -0.16354432 49.88561821 -0.20333576 C54.38643037 -0.2296392 58.88715258 -0.23786834 63.38803482 -0.24144554 C65.53038247 -0.24628107 67.67272693 -0.25780704 69.81499863 -0.27648354 C85.25112792 -0.40262427 99.05540074 0.57528661 112.95751953 7.98950195 C113.62541504 8.3364209 114.29331055 8.68333984 114.98144531 9.04077148 C120.32885691 11.89072984 125.09441727 15.08615168 129.58251953 19.17700195 C130.40107422 19.9040332 131.21962891 20.63106445 132.06298828 21.38012695 C147.31007741 35.68148135 156.35097613 56.24603807 157.05054474 77.09263611 C157.13797578 82.07979948 157.13580899 87.06427648 157.11376953 92.05200195 C157.11647219 94.23283053 157.12036099 96.41365792 157.12536621 98.59448242 C157.13122487 103.13968508 157.12281638 107.68457085 157.10400391 112.22973633 C157.08121696 118.01233151 157.09435967 123.79418368 157.11829376 129.57675171 C157.13285054 134.0724838 157.12810077 138.56804405 157.11778259 143.06378174 C157.11514252 145.19411307 157.11828751 147.32446078 157.12770081 149.45477295 C157.18091157 164.87532861 156.34496944 179.60817456 148.83251953 193.48950195 C148.490354 194.1455542 148.14818848 194.80160645 147.7956543 195.47753906 C144.59851487 201.45035356 140.89414441 206.9465062 136.58251953 212.17700195 C136.07720703 212.79575195 135.57189453 213.41450195 135.05126953 214.05200195 C122.79943319 227.55402567 103.41979531 236.27840239 85.35150146 237.30358887 C79.98398143 237.50722449 74.61875761 237.54853449 69.24780273 237.54760742 C66.39068175 237.55200864 63.53507446 237.58850487 60.67822266 237.6262207 C58.84033724 237.63208554 57.00244459 237.63605716 55.16455078 237.63793945 C54.32164993 237.65231049 53.47874908 237.66668152 52.61030579 237.68148804 C45.89909188 237.63017373 40.67911871 235.84916379 35.55908203 231.4309082 C35.11306641 230.87274414 34.66705078 230.31458008 34.20751953 229.73950195 C33.74603516 229.18391602 33.28455078 228.62833008 32.80908203 228.0559082 C28.915501 222.09153726 28.88089864 216.09426431 29.58251953 209.17700195 C31.36775684 202.38632078 35.79615717 198.79660958 41.58251953 195.17700195 C44.66182056 193.63735144 47.91908774 193.97824833 51.30126953 193.9309082 C52.88981586 193.89792911 54.4783574 193.86471825 56.06689453 193.83129883 C58.56360063 193.78420498 61.06029333 193.73985499 63.55712891 193.70019531 C85.05322641 193.40754528 85.05322641 193.40754528 103.39501953 182.98950195 C111.41338946 174.27141578 113.89657886 163.25547695 113.85717773 151.7265625 C113.86228867 150.93497742 113.8673996 150.14339233 113.87266541 149.32781982 C113.88643922 146.73970746 113.88561369 144.15186512 113.88330078 141.5637207 C113.88719487 139.74444991 113.89153099 137.92518001 113.89628601 136.10591125 C113.90372235 132.30251105 113.90347611 128.49920372 113.89819336 124.69580078 C113.89240713 119.8509975 113.90932193 115.00657757 113.93253803 110.16183758 C113.94735829 106.40659915 113.94813577 102.65145124 113.94502831 98.89618874 C113.94553752 97.11143041 113.95069911 95.32666647 113.96084023 93.54193687 C114.0348457 78.69605784 113.41941986 65.57319977 102.73095703 54.20825195 C94.43372292 46.40686849 85.64499127 44.03249683 74.46264648 44.01586914 C73.25669579 44.00842178 73.25669579 44.00842178 72.02638245 44.00082397 C69.37451307 43.98625604 66.72270355 43.97940849 64.07080078 43.97387695 C62.2186025 43.96812006 60.36640421 43.9623624 58.51420593 43.956604 C54.63145674 43.94610856 50.74872817 43.94025671 46.8659668 43.93676758 C41.91102117 43.93129306 36.95635173 43.90728115 32.0014925 43.87879562 C28.17428311 43.86009203 24.34713914 43.8549595 20.51988792 43.8534317 C18.69439373 43.85042087 16.86890026 43.84244591 15.04345131 43.82924652 C0.59694988 43.73226284 -11.51630357 44.4693289 -22.39404297 55.1105957 C-30.47360383 64.47944819 -32.02203628 76.02369896 -31.89990234 88.00048828 C-31.90381485 89.2087326 -31.90772736 90.41697693 -31.91175842 91.66183472 C-31.91922905 94.93237137 -31.90960303 98.202322 -31.89325905 101.47280717 C-31.88137264 104.91637869 -31.89544433 108.35983432 -31.90759277 111.8033905 C-31.93418081 120.53213252 -31.92764016 129.26073692 -31.91748047 137.98950195 C-31.9065031 147.43438113 -31.90137885 156.87904606 -31.93477488 166.32388896 C-31.94591253 169.74241232 -31.94862604 173.16051132 -31.93162537 176.57901955 C-31.91511989 180.38641532 -31.92263953 184.19309292 -31.93505859 188.00048828 C-31.92374405 189.12014481 -31.9124295 190.23980133 -31.90077209 191.39338684 C-31.95956416 198.94090439 -33.05986877 204.36287287 -38.19873047 210.20043945 C-38.76591797 210.64645508 -39.33310547 211.0924707 -39.91748047 211.55200195 C-40.48466797 212.01348633 -41.05185547 212.4749707 -41.63623047 212.95043945 C-47.35205474 216.88633599 -52.60508456 216.87660615 -59.41748047 216.17700195 C-65.37332799 214.46140594 -68.9382129 211.1912405 -72.41748047 206.17700195 C-74.16862977 202.50585105 -74.67092087 199.60496092 -74.68490601 195.55154419 C-74.69343597 194.43043747 -74.70196594 193.30933075 -74.71075439 192.1542511 C-74.70984802 190.93344345 -74.70894165 189.7126358 -74.70800781 188.45483398 C-74.71472504 187.16146622 -74.72144226 185.86809845 -74.72836304 184.53553772 C-74.74600956 180.99153225 -74.75071822 177.44762344 -74.75199461 173.90357828 C-74.75341908 171.68308295 -74.75769457 169.46261193 -74.76298904 167.24212265 C-74.7814944 159.47658489 -74.78966021 151.71111571 -74.78808594 143.94555664 C-74.78688876 136.74007257 -74.80790598 129.5348901 -74.83957326 122.3294822 C-74.86587265 116.12111622 -74.87644735 109.91284778 -74.87517512 103.70442665 C-74.87466889 100.00670198 -74.88015988 96.30924461 -74.90153122 92.61157608 C-75.08393466 58.71388861 -75.08393466 58.71388861 -66.60498047 42.80200195 C-66.09112793 41.80559692 -66.09112793 41.80559692 -65.56689453 40.7890625 C-62.73368679 35.44448374 -59.37727481 30.74962161 -55.41748047 26.17700195 C-54.78326172 25.35329102 -54.14904297 24.52958008 -53.49560547 23.6809082 C-40.70396768 8.26842734 -19.605153 0.05962169 0 0 Z " fill="#000000" transform="translate(355.41748046875,-0.177001953125)"/>
</svg>
