<svg width="1332" height="360" viewBox="0 0 1332 360" fill="none" xmlns="http://www.w3.org/2000/svg">
<mask id="mask0_4_66" style="mask-type:luminance" maskUnits="userSpaceOnUse" x="0" y="0" width="259" height="322">
<path d="M149.358 1.70001C143.758 2.50001 139.958 6.80001 139.758 12.7C139.458 19.8 139.157 27 138.957 34.2C138.857 38.8 136.658 41.9 132.158 43.2C122.458 46.1 113.257 50 104.457 54.8C99.3575 57.6 96.6576 57.1 92.5576 53.1C87.8576 48.4 83.1575 43.6999 78.4575 38.9999C73.2575 33.7999 68.2575 33.6 62.7575 38.4C53.0575 46.9 44.0575 56.2 35.9575 66.3C32.3575 70.7 32.4576 75.8 36.1576 80.2C40.5576 85.3 44.9575 90.4 49.3575 95.4C52.4575 99 53.1575 101.7 50.9575 105.7C46.3575 114.2 42.4575 123.1 39.3575 132.4C38.2575 135.9 35.5576 138 31.6576 138.2C25.2576 138.4 18.9576 138.7 12.5576 138.8C5.15759 139 1.55749 142.1 0.957495 149.5C-0.242505 163.1 -0.242408 176.7 0.557592 190.2C0.957592 196.4 5.05757 200.7 10.6576 201.1C17.0576 201.5 23.4575 201.9 29.8575 202.4C34.7575 202.7 36.8575 204.8 38.4575 209.4C41.4575 218.1 44.6576 226.7 48.1576 235.1C50.1576 239.9 50.2575 242.6 46.7575 246.6C43.1575 250.8 39.4575 254.9 35.8575 259C31.8575 263.4 31.3576 268.8 35.0576 273.5C43.5576 284.3 52.8576 294.5 63.5576 303.3C67.8576 306.9 73.0576 307 77.6576 303.8C81.1576 301.4 84.5575 298.9 87.9575 296.5C92.9575 293.1 97.0575 293.1 101.957 296.5C111.457 303 121.458 308.6 132.158 312.8C142.558 316.9 153.157 319.9 164.157 321.1C165.557 321.3 167.958 322.2 168.258 319.9C168.558 317.8 166.258 318 164.858 317.7C151.058 314.9 138.258 309.6 126.158 302.6C106.958 291.3 91.5575 276.1 79.4575 257.4C65.6575 235.9 58.2576 212.5 58.0576 193.5C58.2576 172.7 60.0575 160.4 64.4575 147.4C78.7575 106.2 106.158 77.6 147.558 63.1C173.458 54 199.757 53.5 226.157 60.8C235.757 63.5 244.958 67.1999 253.758 71.9999C255.058 72.6999 256.557 73.7 257.957 72.3C259.457 70.8 259.058 68.9 258.058 67.4C257.258 66.2 256.158 64.9 254.858 64.1C249.458 60.6 244.158 56.7 238.258 53.9C229.758 49.8 220.857 46.6 211.957 43.2C207.157 41.4 205.358 39.3 205.058 34.3C204.658 26.9 204.358 19.5 204.058 12.1C203.758 6.29998 200.257 2.49998 194.457 1.59998C187.057 0.499976 179.657 0 172.157 0C164.557 0 156.958 0.600012 149.358 1.70001Z" fill="white"/>
</mask>
<g mask="url(#mask0_4_66)">
<path d="M-714.707 -2643.32L3192.37 190.836L358.222 4097.92L-3548.86 1263.76L-714.707 -2643.32Z" fill="url(#paint0_linear_4_66)"/>
</g>
<path fill-rule="evenodd" clip-rule="evenodd" d="M377.647 332.87C377.597 353.511 356.3 366.384 339.667 356.711C335.198 354.112 331.588 349.931 327.84 346.218C315.608 334.102 303.505 321.855 291.329 309.683C286.32 304.677 286.143 300.44 291.03 295.432C298.351 287.93 305.756 280.509 313.13 273.059C317.133 269.016 321.334 268.83 325.606 272.767C329.418 276.28 333.034 280.008 336.73 283.648C348.21 294.954 359.686 306.266 371.168 317.572C375.784 322.119 377.293 327.879 377.647 332.87Z" fill="#0C1B2D"/>
<path fill-rule="evenodd" clip-rule="evenodd" d="M295.681 119.045C293.802 117.087 292.174 115.465 290.633 113.766C288.322 111.217 288.726 109.253 291.95 108.43C301.68 105.947 311.439 103.573 321.216 101.277C324.303 100.552 326.023 102.345 325.099 105.397C322.124 115.216 319.034 125.002 315.864 134.76C314.99 137.451 313.157 137.682 311.16 135.574C309.732 134.065 308.371 132.491 306.616 130.539C303.13 133.332 299.75 135.92 296.501 138.663C277.867 154.398 259.263 170.169 240.649 185.928C240.311 186.214 239.979 186.505 239.641 186.789C233.3 192.102 231.596 192.263 224.324 188.172C215.377 183.14 206.417 178.132 197.519 173.02C195.663 171.954 194.212 171.763 192.434 173.192C175.146 187.089 157.808 200.925 140.495 214.792C138.256 216.585 136.115 218.501 133.864 220.279C131.343 222.27 128.395 222.224 126.716 220.277C124.964 218.244 125.438 215.851 128.097 213.414C147.947 195.218 167.796 177.021 187.656 158.836C191.714 155.119 195.091 154.886 199.916 157.702C209.163 163.097 218.442 168.437 227.725 173.77C230.844 175.562 231.631 175.371 234.443 172.911C251.966 157.579 269.517 142.276 287.038 126.941C289.853 124.478 292.566 121.897 295.681 119.045Z" fill="#FF772D"/>
<mask id="mask1_4_66" style="mask-type:luminance" maskUnits="userSpaceOnUse" x="187" y="206" width="39" height="75">
<path d="M195.258 206.4C189.758 206.4 187.958 208.1 187.958 213.7C187.858 234.3 187.757 255 187.657 275.6C187.657 277 187.858 278.4 188.058 280C201.358 280.5 213.758 278.1 225.958 273.2C225.958 271.8 225.958 270.6 225.958 269.4C225.858 250.8 225.858 232.3 225.858 213.7C225.858 208.3 223.958 206.3 218.458 206.3C217.158 206.3 215.758 206.3 214.458 206.3C208.058 206.3 201.658 206.3 195.258 206.4Z" fill="white"/>
</mask>
<g mask="url(#mask1_4_66)">
<path d="M486.373 -2595.78L3144.83 1391.92L-842.858 4050.38L-3501.32 62.6848L486.373 -2595.78Z" fill="url(#paint1_linear_4_66)"/>
</g>
<mask id="mask2_4_66" style="mask-type:luminance" maskUnits="userSpaceOnUse" x="240" y="171" width="40" height="94">
<path d="M273.058 173C263.358 181 253.857 189.2 244.157 197.2C241.757 199.2 240.958 201.4 240.958 204.4C241.058 223.4 240.958 242.4 240.858 261.4C240.858 262.4 240.958 263.4 241.058 265C242.258 264.3 243.058 263.9 243.758 263.5C259.158 252.9 269.958 238.7 276.858 221.4C277.858 218.9 278.858 216.1 278.958 213.5C279.158 200.9 279.058 188.3 278.858 175.7C278.858 174.4 278.058 172.4 277.058 171.9C276.858 171.8 276.658 171.7 276.358 171.7C275.258 171.7 273.858 172.3 273.058 173Z" fill="white"/>
</mask>
<g mask="url(#mask2_4_66)">
<path d="M486.373 -2595.78L3144.83 1391.92L-842.858 4050.38L-3501.32 62.6847L486.373 -2595.78Z" fill="url(#paint2_linear_4_66)"/>
</g>
<mask id="mask3_4_66" style="mask-type:luminance" maskUnits="userSpaceOnUse" x="136" y="231" width="38" height="47">
<path d="M165.958 231.8C158.458 231.8 150.958 232 143.458 232.1C138.358 232.2 136.558 234 136.558 239.1C136.458 245.7 136.658 252.2 136.458 258.7C136.458 261.1 137.358 262.5 139.258 263.8C148.458 269.8 158.158 274.4 168.758 277C170.258 277.4 171.758 277.5 173.558 277.8C173.658 276.2 173.758 274.9 173.758 273.6C173.758 262.2 173.758 250.8 173.758 239.5C173.758 233.7 171.957 231.8 166.157 231.8C166.157 231.8 166.058 231.8 165.958 231.8Z" fill="white"/>
</mask>
<g mask="url(#mask3_4_66)">
<path d="M486.373 -2595.78L3144.83 1391.92L-842.858 4050.38L-3501.32 62.6848L486.373 -2595.78Z" fill="url(#paint3_linear_4_66)"/>
</g>
<path fill-rule="evenodd" clip-rule="evenodd" d="M312.842 188.112C312.842 212.737 305.532 235.653 292.968 254.811C286.99 263.923 279.827 272.18 271.702 279.37C250.218 298.369 221.982 309.9 191.047 309.9C123.785 309.9 69.2595 255.374 69.2595 188.112C69.2595 120.85 123.785 66.324 191.047 66.324C226.262 66.324 257.991 81.275 280.232 105.171C277.58 107.868 277.382 112.155 279.801 115.098L282.047 117.835L272.273 125.794C253.558 101.44 224.135 85.741 191.047 85.741C134.514 85.741 88.6755 131.572 88.6755 188.112C88.6755 244.652 134.514 290.483 191.047 290.483C247.587 290.483 293.418 244.652 293.418 188.112C293.418 177.807 291.895 167.861 289.065 158.477L305.135 145.396C310.118 158.689 312.842 173.082 312.842 188.112Z" fill="#0C1C2D"/>
<mask id="mask4_4_66" style="mask-type:luminance" maskUnits="userSpaceOnUse" x="271" y="254" width="35" height="36">
<path d="M271.657 279.4L283.057 290L305.457 267.2L292.957 254.8C286.957 263.9 279.857 272.2 271.657 279.4Z" fill="white"/>
</mask>
<g mask="url(#mask4_4_66)">
<path d="M-714.707 -2643.32L3192.37 190.836L358.222 4097.92L-3548.86 1263.76L-714.707 -2643.32Z" fill="url(#paint4_linear_4_66)"/>
</g>
<mask id="mask5_4_66" style="mask-type:luminance" maskUnits="userSpaceOnUse" x="431" y="34" width="177" height="160">
<path d="M598.865 34.5715C592.544 34.5715 586.103 34.9294 579.783 34.9294C574.654 34.9294 571.195 37.076 568.572 41.2502C555.453 61.8828 542.214 82.3961 528.976 103.029C526.114 107.561 523.013 111.973 519.674 116.982C518.243 115.313 517.288 114.239 516.454 113.047C500.949 89.0749 485.207 65.103 469.822 41.0118C467.198 36.9568 463.978 35.0486 459.207 35.0486C456.106 35.0486 453.006 35.0486 449.905 35.0486C446.565 35.0486 443.345 35.0486 440.006 35.0486C433.685 35.1679 432.015 36.8375 432.015 43.1584C431.896 90.3867 431.777 137.615 431.657 184.843C431.657 190.687 433.446 192.715 439.29 192.834C445.134 193.072 450.978 193.072 456.822 192.953C465.29 192.834 466.959 191.164 466.959 182.577C466.959 157.174 466.84 131.771 466.84 106.368C466.84 104.102 467.079 101.717 467.198 99.4508C469.225 100.643 470.299 101.836 471.134 103.267C483.775 122.349 496.417 141.551 509.178 160.633C514.545 168.743 524.206 168.623 529.573 160.633C536.371 150.615 542.811 140.477 549.37 130.34C556.407 119.964 563.324 109.469 570.361 99.0929C570.838 99.2122 571.195 99.3315 571.673 99.4508C571.792 101.24 571.911 103.029 571.911 104.818C571.911 131.175 571.911 157.532 571.911 183.889C571.911 190.21 573.819 192.834 579.305 192.953C586.223 193.192 593.14 193.072 600.176 192.834C605.424 192.595 607.452 190.329 607.452 184.843C607.452 137.496 607.332 90.029 607.213 42.6815C607.094 36.7183 604.947 34.5715 598.984 34.5715C598.984 34.5715 598.984 34.5715 598.865 34.5715Z" fill="white"/>
</mask>
<g mask="url(#mask5_4_66)">
<path d="M-879.48 -3197.6L3780.23 182.5L400.13 4842.21L-4259.58 1462.11L-879.48 -3197.6Z" fill="url(#paint5_linear_4_66)"/>
</g>
<path fill-rule="evenodd" clip-rule="evenodd" d="M1295.68 113.659C1295.63 86.8208 1273.95 64.9837 1247.46 65.0839C1220.35 65.1853 1198.86 86.847 1198.95 113.989C1199.03 140.564 1220.67 162.592 1246.64 162.534C1274.29 162.474 1295.74 141.093 1295.68 113.659ZM1331.39 113.941C1332.08 157.11 1296.78 197.812 1242.94 195.898C1197.91 194.296 1161.59 156.686 1162.84 112.648C1164.2 64.9944 1202.4 29.9692 1251.4 31.4695C1296.33 32.847 1332.74 70.3804 1331.39 113.941Z" fill="#0C1B2D"/>
<path fill-rule="evenodd" clip-rule="evenodd" d="M1053.53 65.6149V98.2441C1055.84 98.2441 1057.84 98.2441 1059.84 98.2441C1079.79 98.2417 1099.73 98.2143 1119.67 98.2489C1126.78 98.262 1127.9 99.4021 1127.99 106.396C1128.05 110.911 1128.08 115.428 1128.03 119.942C1127.96 127.188 1127.02 128.192 1119.94 128.199C1100.18 128.217 1080.43 128.171 1060.67 128.151C1058.45 128.149 1056.23 128.151 1053.62 128.151V162.16C1055.59 162.253 1057.41 162.412 1059.22 162.414C1083.12 162.427 1107.01 162.411 1130.91 162.416C1137.98 162.417 1139.19 163.59 1139.24 170.507C1139.27 175.585 1139.3 180.667 1139.19 185.745C1139.08 191.36 1137.4 193.162 1131.67 193.215C1116.62 193.354 1101.57 193.318 1086.52 193.328C1067.32 193.341 1048.14 193.34 1028.94 193.324C1019.47 193.316 1017.92 191.721 1017.92 182.072C1017.92 135.978 1017.92 89.8826 1017.93 43.7885C1017.93 36.0948 1019.86 34.0638 1027.57 34.059C1061.62 34.0364 1095.67 34.0531 1129.73 34.0817C1136.5 34.0865 1138.1 35.6691 1138.18 42.3192C1138.23 47.3986 1138.26 52.4792 1138.2 57.5575C1138.12 63.8438 1136.45 65.5696 1130.09 65.5851C1107.14 65.6399 1084.18 65.6125 1061.23 65.6149C1058.83 65.6149 1056.42 65.6149 1053.53 65.6149Z" fill="#0C1B2D"/>
<mask id="mask6_4_66" style="mask-type:luminance" maskUnits="userSpaceOnUse" x="649" y="34" width="135" height="160">
<path d="M659.45 34.5715C651.817 34.5715 649.909 36.7182 649.909 44.3511C649.79 75.9558 649.671 107.561 649.671 139.165C649.551 153.835 649.551 168.504 649.671 183.173C649.671 191.283 651.34 192.953 659.689 193.072C661.836 193.072 664.101 193.072 666.367 193.072C668.037 193.072 669.826 193.072 671.496 193.072C684.853 193.072 685.33 192.595 685.211 178.999C685.211 168.385 685.211 157.651 685.211 145.963C688.312 145.963 690.459 146.083 692.725 145.963C707.036 145.606 721.348 146.202 735.54 144.771C760.108 142.147 778.833 124.138 782.649 100.643C786.108 79.2953 781.218 60.6902 763.448 46.8557C751.641 37.6724 737.687 34.8101 723.137 34.5715C715.027 34.4523 706.798 34.3331 698.569 34.3331C685.569 34.3331 672.45 34.4523 659.45 34.5715ZM698.33 65.2221C707.752 65.1029 717.054 64.9837 726.238 66.0571C741.145 67.846 749.017 79.2952 747.228 93.6068C745.916 103.983 740.072 110.781 730.054 113.762C723.972 115.671 692.844 116.267 685.569 114.597V65.9378C685.808 65.6993 686.165 65.2221 686.404 65.2221C687.358 65.3414 688.431 65.3415 689.385 65.3415C692.367 65.3415 695.349 65.2221 698.33 65.2221Z" fill="white"/>
</mask>
<g mask="url(#mask6_4_66)">
<path d="M-879.48 -3197.6L3780.23 182.5L400.13 4842.21L-4259.58 1462.11L-879.48 -3197.6Z" fill="url(#paint6_linear_4_66)"/>
</g>
<path fill-rule="evenodd" clip-rule="evenodd" d="M927.777 196.012C905.188 195.441 884.445 189.395 866.472 175.174C861.224 171.021 861 169.327 864.981 164.051C868.379 159.546 871.785 155.047 875.256 150.599C879.166 145.586 880.864 145.329 885.932 149.143C896.648 157.207 908.407 163.051 921.871 164.139C927.905 164.627 934.234 163.898 940.169 162.563C946.426 161.157 950.763 156.919 951.325 149.979C951.895 142.937 948.11 138.383 942.018 136.073C933.253 132.749 924.198 130.199 915.348 127.087C906.858 124.103 898.158 121.47 890.093 117.562C857.038 101.541 860.761 57.1299 887.751 40.7216C903.319 31.2581 920.301 29.6456 937.858 31.9105C951.477 33.6672 964.13 38.2791 975.511 46.1493C982.889 51.2514 983.25 52.9139 978.134 60.0769C975.292 64.0567 972.453 68.0377 969.594 72.0044C965.944 77.0683 964.792 77.2973 959.484 74.0223C948.268 67.1038 936.447 61.8312 922.938 62.5826C918.367 62.8366 913.479 63.805 909.433 65.8373C899.387 70.8797 899.177 82.7226 909.036 88.1013C914.418 91.0388 920.479 92.7812 926.316 94.8278C937.653 98.8016 949.411 101.795 960.339 106.665C979.288 115.107 988.461 130.293 987.407 148.813C986.278 168.673 974.559 184.75 955.414 191.062C946.593 193.971 937.206 195.158 928.075 197.126C927.976 196.755 927.876 196.384 927.777 196.012Z" fill="#0C1B2D"/>
<path d="M445.879 319.854L442.654 310.529L439.429 319.854H445.879ZM447.048 323.3H438.259L436.807 327.505H432.159L440.092 305.408H445.247L453.18 327.505H448.501L447.048 323.3Z" fill="#162837"/>
<path d="M466.204 305.439V319.063C466.204 320.56 466.594 321.704 467.374 322.493C468.154 323.284 469.25 323.679 470.662 323.679C472.094 323.679 473.201 323.284 473.981 322.493C474.761 321.704 475.151 320.56 475.151 319.063V305.439H479.608V319.063C479.608 320.939 479.201 322.526 478.391 323.822C477.579 325.117 476.494 326.093 475.134 326.745C473.776 327.399 472.262 327.725 470.598 327.725C468.955 327.725 467.464 327.399 466.126 326.745C464.787 326.093 463.728 325.117 462.949 323.822C462.168 322.526 461.779 320.939 461.779 319.063V305.439H466.204Z" fill="#162837"/>
<path d="M502.48 321.941C503.754 320.633 504.393 318.822 504.393 316.503C504.393 314.206 503.76 312.404 502.495 311.097C501.23 309.791 499.439 309.138 497.121 309.138H493.992V323.901H497.121C499.418 323.901 501.204 323.248 502.48 321.941ZM503.397 306.798C505.155 307.704 506.515 308.996 507.473 310.67C508.432 312.346 508.913 314.29 508.913 316.503C508.913 318.716 508.432 320.65 507.473 322.304C506.515 323.959 505.155 325.239 503.397 326.145C501.637 327.051 499.597 327.504 497.28 327.504H489.566V305.439H497.28C499.597 305.439 501.637 305.893 503.397 306.798Z" fill="#162837"/>
<path d="M522.348 327.505H517.922V305.44H522.348V327.505Z" fill="#162837"/>
<path d="M547.415 305.439V308.916H541.536V327.504H537.11V308.916H531.231V305.439H547.415Z" fill="#162837"/>
<path d="M556.314 326.982C555.797 326.488 555.54 325.871 555.54 325.134C555.54 324.396 555.797 323.779 556.314 323.284C556.83 322.789 557.488 322.541 558.29 322.541C559.07 322.541 559.713 322.789 560.217 323.284C560.724 323.779 560.977 324.396 560.977 325.134C560.977 325.871 560.724 326.488 560.217 326.982C559.713 327.479 559.07 327.725 558.29 327.725C557.488 327.725 556.83 327.479 556.314 326.982Z" fill="#162837"/>
<path d="M608.127 319.854L604.902 310.529L601.677 319.854H608.127ZM609.296 323.3H600.507L599.055 327.505H594.407L602.34 305.408H607.495L615.428 327.505H610.749L609.296 323.3Z" fill="#162837"/>
<path d="M642.962 327.504H638.537L628.516 312.363V327.504H624.09V305.407H628.516L638.537 320.581V305.407H642.962V327.504Z" fill="#162837"/>
<path d="M665.375 319.854L662.151 310.529L658.926 319.854H665.375ZM666.544 323.3H657.756L656.303 327.505H651.655L659.589 305.408H664.743L672.677 327.505H667.998L666.544 323.3Z" fill="#162837"/>
<path d="M685.764 324.122H693.036V327.504H681.339V305.438H685.764V324.122Z" fill="#162837"/>
<path d="M719.083 305.439L711.622 319.823V327.504H707.196V319.823L699.705 305.439H704.699L709.41 315.491L714.089 305.439H719.083Z" fill="#162837"/>
<path d="M731.854 323.774H741.78V327.504H726.733V324.09L736.597 309.169H726.733V305.438H741.78V308.853L731.854 323.774Z" fill="#162837"/>
<path d="M755.659 308.885V314.607H763.088V318.021H755.659V323.995H764.036V327.504H751.233V305.407H764.036V308.885H755.659Z" fill="#162837"/>
<path d="M773.725 326.982C773.208 326.488 772.951 325.871 772.951 325.134C772.951 324.396 773.208 323.779 773.725 323.284C774.241 322.789 774.899 322.541 775.701 322.541C776.481 322.541 777.124 322.789 777.628 323.284C778.135 323.779 778.388 324.396 778.388 325.134C778.388 325.871 778.135 326.488 777.628 326.982C777.124 327.479 776.481 327.725 775.701 327.725C774.899 327.725 774.241 327.479 773.725 326.982Z" fill="#162837"/>
<path d="M816.243 327.505H811.817V305.44H816.243V327.505Z" fill="#162837"/>
<path d="M850.352 305.439V327.504H845.927V313.153L840.016 327.504H836.665L830.722 313.153V327.504H826.296V305.439H831.322L838.34 321.846L845.359 305.439H850.352Z" fill="#162837"/>
<path d="M871.042 314.669C871.643 314.08 871.943 313.279 871.943 312.267C871.943 311.214 871.648 310.396 871.058 309.818C870.468 309.238 869.562 308.948 868.339 308.948H864.831V315.554H868.339C869.54 315.554 870.442 315.26 871.042 314.669ZM875.657 315.587C875.098 316.619 874.224 317.452 873.033 318.084C871.843 318.716 870.34 319.032 868.529 319.032H864.831V327.505H860.405V305.438H868.529C870.236 305.438 871.691 305.734 872.892 306.323C874.093 306.915 874.993 307.726 875.594 308.758C876.194 309.792 876.494 310.96 876.494 312.267C876.494 313.448 876.215 314.554 875.657 315.587Z" fill="#162837"/>
<path d="M889.741 315.618H893.439C894.64 315.618 895.536 315.323 896.126 314.733C896.716 314.143 897.012 313.332 897.012 312.299C897.012 311.266 896.716 310.46 896.126 309.88C895.536 309.301 894.64 309.011 893.439 309.011H889.741V315.618ZM896.695 327.504L891.827 318.906H889.741V327.504H885.315V305.439H893.596C895.304 305.439 896.758 305.739 897.96 306.339C899.16 306.94 900.062 307.751 900.662 308.773C901.263 309.797 901.563 310.939 901.563 312.204C901.563 313.657 901.142 314.97 900.299 316.139C899.456 317.309 898.202 318.115 896.536 318.558L901.816 327.504H896.695Z" fill="#162837"/>
<path d="M925.02 322.747C926.031 322.147 926.822 321.303 927.39 320.217C927.96 319.133 928.244 317.863 928.244 316.409C928.244 314.954 927.96 313.685 927.39 312.6C926.822 311.514 926.031 310.676 925.02 310.086C924.007 309.496 922.839 309.201 921.511 309.201C920.183 309.201 919.008 309.496 917.987 310.086C916.964 310.676 916.168 311.514 915.599 312.6C915.031 313.685 914.746 314.954 914.746 316.409C914.746 317.863 915.031 319.133 915.599 320.217C916.168 321.303 916.964 322.147 917.987 322.747C919.008 323.348 920.183 323.647 921.511 323.647C922.839 323.647 924.007 323.348 925.02 322.747ZM915.82 326.272C914.092 325.302 912.722 323.959 911.711 322.241C910.699 320.523 910.193 318.579 910.193 316.409C910.193 314.259 910.699 312.325 911.711 310.608C912.722 308.891 914.092 307.546 915.82 306.577C917.548 305.607 919.444 305.123 921.511 305.123C923.597 305.123 925.498 305.607 927.217 306.577C928.934 307.546 930.294 308.891 931.296 310.608C932.296 312.325 932.797 314.259 932.797 316.409C932.797 318.579 932.296 320.523 931.296 322.241C930.294 323.959 928.928 325.302 927.201 326.272C925.473 327.242 923.576 327.726 921.511 327.726C919.444 327.726 917.548 327.242 915.82 326.272Z" fill="#162837"/>
<path d="M944.776 305.439L950.815 322.984L956.884 305.439H961.595L953.502 327.504H948.128L940.034 305.439H944.776Z" fill="#162837"/>
<path d="M974.366 308.885V314.607H981.795V318.021H974.366V323.995H982.743V327.504H969.94V305.407H982.743V308.885H974.366Z" fill="#162837"/>
<path d="M992.432 326.982C991.915 326.488 991.658 325.871 991.658 325.134C991.658 324.396 991.915 323.779 992.432 323.284C992.948 322.789 993.606 322.541 994.408 322.541C995.188 322.541 995.831 322.789 996.335 323.284C996.842 323.779 997.095 324.396 997.095 325.134C997.095 325.871 996.842 326.488 996.335 326.982C995.831 327.479 995.188 327.725 994.408 327.725C993.606 327.725 992.948 327.479 992.432 326.982Z" fill="#162837"/>
<path d="M1138.55 326.982C1138.03 326.488 1137.78 325.871 1137.78 325.134C1137.78 324.396 1138.03 323.779 1138.55 323.284C1139.07 322.789 1139.72 322.541 1140.53 322.541C1141.31 322.541 1141.95 322.789 1142.45 323.284C1142.96 323.779 1143.21 324.396 1143.21 325.134C1143.21 325.871 1142.96 326.488 1142.45 326.982C1141.95 327.479 1141.31 327.725 1140.53 327.725C1139.72 327.725 1139.07 327.479 1138.55 326.982Z" fill="#162837"/>
<path d="M1034.95 315.618H1038.65C1039.85 315.618 1040.74 315.323 1041.33 314.733C1041.93 314.143 1042.22 313.332 1042.22 312.299C1042.22 311.266 1041.93 310.46 1041.33 309.88C1040.74 309.301 1039.85 309.011 1038.65 309.011H1034.95V315.618ZM1041.9 327.504L1037.04 318.906H1034.95V327.504H1030.52V305.439H1038.81C1040.51 305.439 1041.97 305.739 1043.17 306.339C1044.37 306.94 1045.27 307.751 1045.87 308.773C1046.47 309.797 1046.77 310.939 1046.77 312.204C1046.77 313.657 1046.35 314.97 1045.51 316.139C1044.66 317.309 1043.41 318.115 1041.75 318.558L1047.02 327.504H1041.9Z" fill="#162837"/>
<path d="M1068.84 319.854L1065.61 310.529L1062.39 319.854H1068.84ZM1070.01 323.3H1061.22L1059.77 327.505H1055.12L1063.05 305.408H1068.21L1076.14 327.505H1071.46L1070.01 323.3Z" fill="#162837"/>
<path d="M1103.67 327.504H1099.25L1089.23 312.363V327.504H1084.8V305.407H1089.23L1099.25 320.581V305.407H1103.67V327.504Z" fill="#162837"/>
<path d="M1126.18 327.504L1118.15 317.672V327.504H1113.73V305.439H1118.15V315.333L1126.18 305.439H1131.52L1122.42 316.377L1131.78 327.504H1126.18Z" fill="#162837"/>
<path d="M1194.95 305.439V327.504H1190.52V318.052H1181.07V327.504H1176.64V305.439H1181.07V314.575H1190.52V305.439H1194.95Z" fill="#162837"/>
<path d="M1209.43 327.505H1205V305.44H1209.43V327.505Z" fill="#162837"/>
<path d="M1219.87 310.608C1220.85 308.89 1222.2 307.552 1223.92 306.593C1225.64 305.634 1227.55 305.155 1229.66 305.155C1232.14 305.155 1234.3 305.761 1236.14 306.972C1237.97 308.184 1239.23 309.886 1239.93 312.077H1234.84C1234.34 311.15 1233.64 310.444 1232.76 309.96C1231.87 309.475 1230.84 309.233 1229.66 309.233C1228.35 309.233 1227.19 309.528 1226.18 310.117C1225.17 310.708 1224.38 311.551 1223.81 312.646C1223.24 313.742 1222.95 315.007 1222.95 316.44C1222.95 317.915 1223.24 319.202 1223.82 320.297C1224.4 321.393 1225.21 322.236 1226.24 322.826C1227.28 323.415 1228.48 323.711 1229.85 323.711C1231.53 323.711 1232.92 323.258 1234 322.351C1235.09 321.445 1235.79 320.192 1236.11 318.59H1228.52V315.239H1240.47V319.096C1240.17 320.634 1239.54 322.057 1238.57 323.363C1237.6 324.67 1236.35 325.718 1234.82 326.509C1233.3 327.299 1231.58 327.694 1229.69 327.694C1227.56 327.694 1225.64 327.215 1223.92 326.256C1222.2 325.296 1220.85 323.964 1219.87 322.257C1218.89 320.549 1218.4 318.61 1218.4 316.44C1218.4 314.269 1218.89 312.325 1219.87 310.608Z" fill="#162837"/>
<path d="M1267.75 305.439V327.504H1263.32V318.052H1253.87V327.504H1249.45V305.439H1253.87V314.575H1263.32V305.439H1267.75Z" fill="#162837"/>
<path d="M1282.23 308.885V314.607H1289.66V318.021H1282.23V323.995H1290.61V327.504H1277.8V305.407H1290.61V308.885H1282.23Z" fill="#162837"/>
<path d="M1304.74 315.618H1308.43C1309.64 315.618 1310.53 315.323 1311.12 314.733C1311.71 314.143 1312.01 313.332 1312.01 312.299C1312.01 311.266 1311.71 310.46 1311.12 309.88C1310.53 309.301 1309.64 309.011 1308.43 309.011H1304.74V315.618ZM1311.69 327.504L1306.82 318.906H1304.74V327.504H1300.31V305.439H1308.59C1310.3 305.439 1311.75 305.739 1312.96 306.339C1314.16 306.94 1315.06 307.751 1315.66 308.773C1316.26 309.797 1316.56 310.939 1316.56 312.204C1316.56 313.657 1316.14 314.97 1315.29 316.139C1314.45 317.309 1313.2 318.115 1311.53 318.558L1316.81 327.504H1311.69Z" fill="#162837"/>
<path d="M1326.25 326.982C1325.73 326.488 1325.47 325.871 1325.47 325.134C1325.47 324.396 1325.73 323.779 1326.25 323.284C1326.76 322.789 1327.42 322.541 1328.22 322.541C1329 322.541 1329.65 322.789 1330.15 323.284C1330.66 323.779 1330.91 324.396 1330.91 325.134C1330.91 325.871 1330.66 326.488 1330.15 326.982C1329.65 327.479 1329 327.725 1328.22 327.725C1327.42 327.725 1326.76 327.479 1326.25 326.982Z" fill="#162837"/>
<path d="M633.035 259.751L624.925 236.296L616.814 259.751H633.035ZM635.977 268.418H613.874L610.215 278.992H598.527L618.484 223.415H631.445L651.401 278.992H639.633L635.977 268.418Z" fill="#FF772D"/>
<path d="M707.439 223.495V257.763C707.439 261.528 708.419 264.402 710.381 266.39C712.341 268.378 715.098 269.372 718.65 269.372C722.254 269.372 725.038 268.378 726.998 266.39C728.959 264.402 729.94 261.528 729.94 257.763V223.495H741.152V257.763C741.152 262.482 740.13 266.47 738.09 269.73C736.049 272.989 733.319 275.442 729.901 277.085C726.482 278.728 722.677 279.549 718.491 279.549C714.358 279.549 710.606 278.728 707.241 277.085C703.874 275.442 701.21 272.989 699.25 269.73C697.289 266.47 696.308 262.482 696.308 257.763V223.495H707.439Z" fill="#FF772D"/>
<path d="M818.54 264.999C821.746 261.713 823.35 257.155 823.35 251.323C823.35 245.546 821.759 241.014 818.58 237.727C815.399 234.441 810.893 232.798 805.062 232.798H797.192V269.928H805.062C810.839 269.928 815.332 268.286 818.54 264.999ZM820.846 226.913C825.272 229.194 828.69 232.44 831.102 236.653C833.514 240.868 834.72 245.758 834.72 251.323C834.72 256.889 833.514 261.752 831.102 265.914C828.69 270.075 825.272 273.295 820.846 275.574C816.42 277.853 811.292 278.992 805.461 278.992H786.06V223.495H805.461C811.292 223.495 816.42 224.635 820.846 226.913Z" fill="#FF772D"/>
<path d="M890.759 278.992H879.627V223.494H890.759V278.992Z" fill="#FF772D"/>
<path d="M976.374 223.495V232.24H961.587V278.993H950.455V232.24H935.666V223.495H976.374Z" fill="#FF772D"/>
<path d="M1058.57 267.026C1061.12 265.515 1063.1 263.396 1064.53 260.666C1065.97 257.936 1066.68 254.742 1066.68 251.085C1066.68 247.427 1065.97 244.234 1064.53 241.504C1063.1 238.774 1061.12 236.667 1058.57 235.183C1056.03 233.7 1053.08 232.957 1049.75 232.957C1046.41 232.957 1043.45 233.7 1040.88 235.183C1038.31 236.667 1036.31 238.774 1034.88 241.504C1033.45 244.234 1032.73 247.427 1032.73 251.085C1032.73 254.742 1033.45 257.936 1034.88 260.666C1036.31 263.396 1038.31 265.515 1040.88 267.026C1043.45 268.537 1046.41 269.292 1049.75 269.292C1053.08 269.292 1056.03 268.537 1058.57 267.026ZM1035.43 275.891C1031.09 273.455 1027.64 270.075 1025.1 265.754C1022.55 261.434 1021.28 256.544 1021.28 251.085C1021.28 245.678 1022.55 240.815 1025.1 236.494C1027.64 232.175 1031.09 228.795 1035.43 226.356C1039.78 223.92 1044.55 222.7 1049.75 222.7C1054.99 222.7 1059.78 223.92 1064.1 226.356C1068.42 228.795 1071.84 232.175 1074.35 236.494C1076.87 240.815 1078.13 245.678 1078.13 251.085C1078.13 256.544 1076.87 261.434 1074.35 265.754C1071.84 270.075 1068.4 273.455 1064.06 275.891C1059.71 278.33 1054.94 279.549 1049.75 279.549C1044.55 279.549 1039.78 278.33 1035.43 275.891Z" fill="#FF772D"/>
<path d="M1134.17 249.097H1143.47C1146.49 249.097 1148.75 248.355 1150.23 246.87C1151.71 245.388 1152.46 243.346 1152.46 240.748C1152.46 238.152 1151.71 236.125 1150.23 234.666C1148.75 233.209 1146.49 232.479 1143.47 232.479H1134.17V249.097ZM1151.66 278.992L1139.42 257.366H1134.17V278.992H1123.04V223.495H1143.87C1148.16 223.495 1151.82 224.251 1154.84 225.761C1157.86 227.272 1160.13 229.312 1161.64 231.882C1163.15 234.455 1163.91 237.329 1163.91 240.51C1163.91 244.168 1162.85 247.466 1160.73 250.409C1158.6 253.351 1155.45 255.378 1151.26 256.491L1164.54 278.992H1151.66Z" fill="#FF772D"/>
<mask id="mask7_4_66" style="mask-type:luminance" maskUnits="userSpaceOnUse" x="431" y="246" width="118" height="10">
<path d="M435.832 246.86C433.566 246.86 431.657 248.768 431.657 251.153C431.657 253.419 433.566 255.328 435.832 255.328H543.884C546.269 255.328 548.178 253.419 548.178 251.153C548.178 248.768 546.269 246.86 543.884 246.86H435.832Z" fill="white"/>
</mask>
<g mask="url(#mask7_4_66)">
<path d="M-2300.54 -1238.56H1821.19V2883.17H-2300.54V-1238.56Z" fill="url(#paint7_linear_4_66)"/>
</g>
<mask id="mask8_4_66" style="mask-type:luminance" maskUnits="userSpaceOnUse" x="1213" y="246" width="118" height="10">
<path d="M1218.2 246.86C1215.81 246.86 1213.91 248.768 1213.91 251.153C1213.91 253.419 1215.81 255.328 1218.2 255.328H1326.13C1328.52 255.328 1330.43 253.419 1330.43 251.153C1330.43 248.768 1328.52 246.86 1326.13 246.86H1218.2Z" fill="white"/>
</mask>
<g mask="url(#mask8_4_66)">
<path d="M-2300.54 -1238.56H1821.19V2883.17H-2300.54V-1238.56Z" fill="url(#paint8_linear_4_66)"/>
</g>
<defs>
<linearGradient id="paint0_linear_4_66" x1="29.9078" y1="79.6824" x2="300.75" y2="276.148" gradientUnits="userSpaceOnUse">
<stop stop-color="#1E78C2"/>
<stop offset="0.686905" stop-color="#1440A2"/>
<stop offset="1" stop-color="#102794"/>
</linearGradient>
<linearGradient id="paint1_linear_4_66" x1="187.089" y1="215.398" x2="227.006" y2="275.273" gradientUnits="userSpaceOnUse">
<stop stop-color="#1E78C2"/>
<stop offset="0.686905" stop-color="#1440A2"/>
<stop offset="1" stop-color="#102794"/>
</linearGradient>
<linearGradient id="paint2_linear_4_66" x1="235.611" y1="183.05" x2="275.528" y2="242.925" gradientUnits="userSpaceOnUse">
<stop stop-color="#1E78C2"/>
<stop offset="0.686905" stop-color="#1440A2"/>
<stop offset="1" stop-color="#102794"/>
</linearGradient>
<linearGradient id="paint3_linear_4_66" x1="149.802" y1="240.257" x2="189.719" y2="300.132" gradientUnits="userSpaceOnUse">
<stop stop-color="#1E78C2"/>
<stop offset="0.686905" stop-color="#1440A2"/>
<stop offset="1" stop-color="#102794"/>
</linearGradient>
<linearGradient id="paint4_linear_4_66" x1="280.839" y1="267.18" x2="294.346" y2="276.978" gradientUnits="userSpaceOnUse">
<stop stop-color="#1E78C2"/>
<stop offset="0.686905" stop-color="#1440A2"/>
<stop offset="1" stop-color="#102794"/>
</linearGradient>
<linearGradient id="paint5_linear_4_66" x1="428.804" y1="48.0227" x2="671.638" y2="224.172" gradientUnits="userSpaceOnUse">
<stop stop-color="#1E78C2"/>
<stop offset="0.686905" stop-color="#1440A2"/>
<stop offset="1" stop-color="#102794"/>
</linearGradient>
<linearGradient id="paint6_linear_4_66" x1="633.23" y1="65.1328" x2="790.928" y2="179.525" gradientUnits="userSpaceOnUse">
<stop stop-color="#1E78C2"/>
<stop offset="0.686905" stop-color="#1440A2"/>
<stop offset="1" stop-color="#102794"/>
</linearGradient>
<linearGradient id="paint7_linear_4_66" x1="431.645" y1="251.124" x2="548.127" y2="251.124" gradientUnits="userSpaceOnUse">
<stop stop-color="#1E78C2"/>
<stop offset="0.686905" stop-color="#1440A2"/>
<stop offset="1" stop-color="#102794"/>
</linearGradient>
<linearGradient id="paint8_linear_4_66" x1="1213.91" y1="251.124" x2="1330.4" y2="251.124" gradientUnits="userSpaceOnUse">
<stop stop-color="#102694"/>
<stop offset="0.904762" stop-color="#1C70BD"/>
<stop offset="1" stop-color="#1E78C1"/>
</linearGradient>
</defs>
</svg>
