<svg width="900" height="297" viewBox="0 0 900 297" fill="none" xmlns="http://www.w3.org/2000/svg">
<mask id="mask0_2_59" style="mask-type:luminance" maskUnits="userSpaceOnUse" x="0" y="3" width="176" height="160">
<path d="M167.207 3.57153C160.886 3.57153 154.446 3.92938 148.125 3.92938C142.997 3.92938 139.538 6.07603 136.914 10.2502C123.795 30.8828 110.557 51.3961 97.3189 72.0287C94.4566 76.5607 91.3557 80.9733 88.0163 85.9824C86.5852 84.3127 85.6311 83.2394 84.7963 82.0468C69.292 58.0749 53.5492 34.103 38.1642 10.0118C35.5404 5.95683 32.3204 4.04862 27.5499 4.04862C24.4491 4.04862 21.3482 4.04862 18.2473 4.04862C14.908 4.04862 11.6878 4.04862 8.34843 4.04862C2.02747 4.16788 0.357848 5.83748 0.357848 12.1584C0.238585 59.3867 0.119263 106.615 0 153.843C0 159.687 1.78912 161.715 7.63302 161.834C13.4769 162.072 19.3208 162.072 25.1647 161.953C33.6323 161.834 35.302 160.164 35.302 151.577C35.302 126.174 35.1826 100.771 35.1826 75.3679C35.1826 73.1019 35.4212 70.7168 35.5405 68.4508C37.568 69.6434 38.6414 70.836 39.4762 72.2671C52.1181 91.3492 64.7599 110.551 77.5211 129.633C82.8879 137.743 92.5484 137.623 97.9152 129.633C104.713 119.615 111.154 109.477 117.713 99.34C124.75 88.9641 131.667 78.4688 138.703 68.0929C139.18 68.2122 139.538 68.3315 140.015 68.4508C140.134 70.2397 140.254 72.0287 140.254 73.8176C140.254 100.175 140.254 126.532 140.254 152.889C140.254 159.21 142.162 161.834 147.648 161.953C154.565 162.192 161.482 162.072 168.519 161.834C173.767 161.595 175.794 159.329 175.794 153.843C175.794 106.496 175.675 59.029 175.556 11.6815C175.436 5.71833 173.29 3.57153 167.326 3.57153C167.326 3.57153 167.327 3.57153 167.207 3.57153Z" fill="white"/>
</mask>
<g mask="url(#mask0_2_59)">
<path d="M-1311.14 -3228.6L3348.57 151.5L-31.5276 4811.21L-4691.24 1431.11L-1311.14 -3228.6Z" fill="url(#paint0_linear_2_59)"/>
</g>
<path fill-rule="evenodd" clip-rule="evenodd" d="M864.024 82.6586C863.969 55.8208 842.291 33.9837 815.804 34.0839C788.692 34.1853 767.204 55.847 767.291 82.989C767.375 109.564 789.016 131.592 814.984 131.534C842.63 131.474 864.082 110.093 864.024 82.6586ZM899.731 82.9413C900.421 126.11 865.122 166.812 811.284 164.898C766.249 163.296 729.934 125.686 731.184 81.6484C732.538 33.9944 770.746 -1.03078 819.741 0.469547C864.675 1.84704 901.079 39.3804 899.731 82.9413Z" fill="#0C1B2D"/>
<path fill-rule="evenodd" clip-rule="evenodd" d="M621.872 34.6149V67.2441C624.179 67.2441 626.181 67.2441 628.186 67.2441C648.129 67.2417 668.071 67.2143 688.014 67.2489C695.122 67.262 696.239 68.4021 696.332 75.3957C696.391 79.911 696.419 84.4275 696.376 88.9417C696.305 96.1881 695.36 97.1923 688.28 97.1994C668.524 97.2173 648.771 97.1708 629.015 97.1505C626.793 97.1493 624.571 97.1505 621.963 97.1505V131.16C623.93 131.253 625.748 131.412 627.566 131.414C651.461 131.427 675.356 131.411 699.25 131.416C706.321 131.417 707.536 132.59 707.58 139.507C707.613 144.585 707.64 149.667 707.535 154.745C707.419 160.36 705.74 162.162 700.011 162.215C684.96 162.354 669.909 162.318 654.858 162.328C635.667 162.341 616.478 162.34 597.287 162.324C587.812 162.316 586.259 160.721 586.259 151.072C586.259 104.978 586.266 58.8826 586.271 12.7885C586.271 5.09484 588.206 3.06379 595.908 3.05902C629.963 3.03636 664.017 3.05306 698.07 3.08168C704.843 3.08645 706.445 4.66907 706.52 11.3192C706.577 16.3986 706.599 21.4792 706.539 26.5575C706.467 32.8438 704.793 34.5696 698.432 34.5851C675.478 34.6399 652.525 34.6125 629.572 34.6149C627.168 34.6149 624.765 34.6149 621.872 34.6149Z" fill="#0C1B2D"/>
<mask id="mask1_2_59" style="mask-type:luminance" maskUnits="userSpaceOnUse" x="217" y="3" width="136" height="160">
<path d="M227.793 3.57154C220.16 3.57154 218.252 5.71822 218.252 13.3511C218.132 44.9558 218.013 76.5606 218.013 108.165C217.894 122.835 217.894 137.504 218.013 152.173C218.013 160.283 219.683 161.953 228.032 162.072C230.178 162.072 232.444 162.072 234.71 162.072C236.38 162.072 238.169 162.072 239.839 162.072C253.196 162.072 253.673 161.595 253.554 147.999C253.554 137.385 253.554 126.651 253.554 114.963C256.655 114.963 258.801 115.083 261.067 114.963C275.379 114.606 289.69 115.202 303.883 113.771C328.451 111.147 347.175 93.1382 350.992 69.6434C354.45 48.2953 349.561 29.6902 331.791 15.8557C319.984 6.67244 306.03 3.81006 291.48 3.57154C283.37 3.45227 275.14 3.33307 266.911 3.33307C253.912 3.33307 240.792 3.45227 227.793 3.57154ZM266.673 34.2221C276.095 34.1029 285.397 33.9837 294.58 35.0571C309.488 36.846 317.36 48.2952 315.571 62.6068C314.259 72.9827 308.415 79.7808 298.397 82.7623C292.314 84.6706 261.187 85.2668 253.912 83.5971V34.9378C254.15 34.6993 254.508 34.2221 254.746 34.2221C255.701 34.3414 256.774 34.3415 257.728 34.3415C260.71 34.3415 263.691 34.2221 266.673 34.2221Z" fill="white"/>
</mask>
<g mask="url(#mask1_2_59)">
<path d="M-1311.14 -3228.6L3348.57 151.5L-31.5276 4811.21L-4691.24 1431.11L-1311.14 -3228.6Z" fill="url(#paint1_linear_2_59)"/>
</g>
<path fill-rule="evenodd" clip-rule="evenodd" d="M496.119 165.012C473.531 164.441 452.787 158.395 434.814 144.174C429.567 140.021 429.343 138.327 433.324 133.051C436.721 128.546 440.128 124.047 443.598 119.599C447.509 114.586 449.207 114.329 454.275 118.143C464.99 126.207 476.75 132.051 490.213 133.139C496.248 133.627 502.576 132.898 508.512 131.563C514.769 130.157 519.106 125.919 519.668 118.979C520.238 111.937 516.453 107.383 510.361 105.073C501.596 101.749 492.54 99.1989 483.691 96.0873C475.201 93.1033 466.5 90.47 458.436 86.5617C425.381 70.5411 429.104 26.1299 456.093 9.72162C471.662 0.258072 488.644 -1.35435 506.201 0.910456C519.819 2.66719 532.473 7.27912 543.853 15.1493C551.232 20.2514 551.592 21.9139 546.477 29.0769C543.635 33.0567 540.795 37.0377 537.937 41.0044C534.287 46.0683 533.135 46.2973 527.827 43.0223C516.611 36.1038 504.79 30.8312 491.281 31.5826C486.709 31.8366 481.822 32.805 477.775 34.8373C467.73 39.8797 467.52 51.7226 477.378 57.1013C482.761 60.0388 488.822 61.7812 494.658 63.8278C505.996 67.8016 517.754 70.7951 528.682 75.6646C547.63 84.1073 556.804 99.2931 555.75 117.813C554.62 137.673 542.902 153.75 523.756 160.062C514.935 162.971 505.548 164.158 496.417 166.126C496.318 165.755 496.218 165.384 496.119 165.012Z" fill="#0C1B2D"/>
<path d="M14.2215 288.854L10.9966 279.529L7.77175 288.854H14.2215ZM15.3903 292.3H6.60178L5.14915 296.505H0.501465L8.43485 274.408H13.5894L21.5228 296.505H16.8441L15.3903 292.3Z" fill="#162837"/>
<path d="M34.5462 274.439V288.063C34.5462 289.56 34.9362 290.704 35.7162 291.493C36.4962 292.284 37.5922 292.679 39.0043 292.679C40.4367 292.679 41.5434 292.284 42.3234 291.493C43.1034 290.704 43.4934 289.56 43.4934 288.063V274.439H47.9502V288.063C47.9502 289.939 47.5436 291.526 46.7338 292.822C45.9216 294.117 44.8363 295.093 43.4767 295.745C42.1183 296.399 40.6048 296.725 38.9411 296.725C37.2976 296.725 35.8069 296.399 34.4687 295.745C33.1294 295.093 32.0703 294.117 31.2916 292.822C30.5104 291.526 30.1216 289.939 30.1216 288.063V274.439H34.5462Z" fill="#162837"/>
<path d="M70.8225 290.941C72.0962 289.633 72.7355 287.822 72.7355 285.503C72.7355 283.206 72.1022 281.404 70.838 280.097C69.5726 278.791 67.7813 278.138 65.464 278.138H62.3345V292.901H65.464C67.761 292.901 69.5464 292.248 70.8225 290.941ZM71.7396 275.798C73.4976 276.704 74.8572 277.996 75.8161 279.67C76.7749 281.346 77.2556 283.29 77.2556 285.503C77.2556 287.716 76.7749 289.65 75.8161 291.304C74.8572 292.959 73.4976 294.239 71.7396 295.145C69.9793 296.051 67.9399 296.504 65.6226 296.504H57.9087V274.439H65.6226C67.9399 274.439 69.9793 274.893 71.7396 275.798Z" fill="#162837"/>
<path d="M90.6902 296.505H86.2644V274.44H90.6902V296.505Z" fill="#162837"/>
<path d="M115.758 274.439V277.916H109.878V296.504H105.452V277.916H99.574V274.439H115.758Z" fill="#162837"/>
<path d="M124.656 295.982C124.14 295.488 123.882 294.871 123.882 294.134C123.882 293.396 124.14 292.779 124.656 292.284C125.173 291.789 125.831 291.541 126.633 291.541C127.413 291.541 128.055 291.789 128.56 292.284C129.067 292.779 129.32 293.396 129.32 294.134C129.32 294.871 129.067 295.488 128.56 295.982C128.055 296.479 127.413 296.725 126.633 296.725C125.831 296.725 125.173 296.479 124.656 295.982Z" fill="#162837"/>
<path d="M176.47 288.854L173.245 279.529L170.02 288.854H176.47ZM177.638 292.3H168.85L167.397 296.505H162.75L170.683 274.408H175.837L183.771 296.505H179.092L177.638 292.3Z" fill="#162837"/>
<path d="M211.305 296.504H206.879L196.859 281.363V296.504H192.433V274.407H196.859L206.879 289.581V274.407H211.305V296.504Z" fill="#162837"/>
<path d="M233.718 288.854L230.493 279.529L227.268 288.854H233.718ZM234.887 292.3H226.098L224.646 296.505H219.998L227.931 274.408H233.086L241.019 296.505H236.341L234.887 292.3Z" fill="#162837"/>
<path d="M254.107 293.122H261.378V296.504H249.681V274.438H254.107V293.122Z" fill="#162837"/>
<path d="M287.426 274.439L279.965 288.823V296.504H275.539V288.823L268.048 274.439H273.042L277.753 284.491L282.431 274.439H287.426Z" fill="#162837"/>
<path d="M300.197 292.774H310.123V296.504H295.076V293.09L304.94 278.169H295.076V274.438H310.123V277.853L300.197 292.774Z" fill="#162837"/>
<path d="M324.002 277.885V283.607H331.431V287.021H324.002V292.995H332.379V296.504H319.576V274.407H332.379V277.885H324.002Z" fill="#162837"/>
<path d="M342.067 295.982C341.551 295.488 341.293 294.871 341.293 294.134C341.293 293.396 341.551 292.779 342.067 292.284C342.584 291.789 343.242 291.541 344.043 291.541C344.823 291.541 345.466 291.789 345.971 292.284C346.478 292.779 346.73 293.396 346.73 294.134C346.73 294.871 346.478 295.488 345.971 295.982C345.466 296.479 344.823 296.725 344.043 296.725C343.242 296.725 342.584 296.479 342.067 295.982Z" fill="#162837"/>
<path d="M384.586 296.505H380.16V274.44H384.586V296.505Z" fill="#162837"/>
<path d="M418.695 274.439V296.504H414.269V282.153L408.358 296.504H405.007L399.064 282.153V296.504H394.638V274.439H399.664L406.683 290.846L413.701 274.439H418.695Z" fill="#162837"/>
<path d="M439.384 283.669C439.985 283.08 440.286 282.279 440.286 281.267C440.286 280.214 439.99 279.396 439.401 278.818C438.811 278.238 437.904 277.948 436.682 277.948H433.173V284.554H436.682C437.883 284.554 438.785 284.26 439.384 283.669ZM444 284.587C443.441 285.619 442.566 286.452 441.376 287.084C440.186 287.716 438.683 288.032 436.872 288.032H433.173V296.505H428.747V274.438H436.872C438.578 274.438 440.033 274.734 441.234 275.323C442.435 275.915 443.336 276.726 443.937 277.758C444.537 278.792 444.837 279.96 444.837 281.267C444.837 282.448 444.558 283.554 444 284.587Z" fill="#162837"/>
<path d="M458.083 284.618H461.782C462.983 284.618 463.878 284.323 464.469 283.733C465.059 283.143 465.355 282.332 465.355 281.299C465.355 280.266 465.059 279.46 464.469 278.88C463.878 278.301 462.983 278.011 461.782 278.011H458.083V284.618ZM465.038 296.504L460.169 287.906H458.083V296.504H453.657V274.439H461.939C463.647 274.439 465.101 274.739 466.303 275.339C467.503 275.94 468.404 276.751 469.004 277.773C469.605 278.797 469.906 279.939 469.906 281.204C469.906 282.657 469.485 283.97 468.642 285.139C467.799 286.309 466.545 287.115 464.879 287.558L470.159 296.504H465.038Z" fill="#162837"/>
<path d="M493.363 291.747C494.374 291.147 495.165 290.303 495.732 289.217C496.303 288.133 496.586 286.863 496.586 285.409C496.586 283.954 496.303 282.685 495.732 281.6C495.165 280.514 494.374 279.676 493.363 279.086C492.35 278.496 491.181 278.201 489.854 278.201C488.525 278.201 487.351 278.496 486.33 279.086C485.306 279.676 484.511 280.514 483.942 281.6C483.373 282.685 483.088 283.954 483.088 285.409C483.088 286.863 483.373 288.133 483.942 289.217C484.511 290.303 485.306 291.147 486.33 291.747C487.351 292.348 488.525 292.647 489.854 292.647C491.181 292.647 492.35 292.348 493.363 291.747ZM484.163 295.272C482.435 294.302 481.064 292.959 480.054 291.241C479.042 289.523 478.536 287.579 478.536 285.409C478.536 283.259 479.042 281.325 480.054 279.608C481.064 277.891 482.435 276.546 484.163 275.577C485.891 274.607 487.787 274.123 489.854 274.123C491.94 274.123 493.841 274.607 495.56 275.577C497.277 276.546 498.637 277.891 499.638 279.608C500.639 281.325 501.14 283.259 501.14 285.409C501.14 287.579 500.639 289.523 499.638 291.241C498.637 292.959 497.271 294.302 495.544 295.272C493.816 296.242 491.918 296.726 489.854 296.726C487.787 296.726 485.891 296.242 484.163 295.272Z" fill="#162837"/>
<path d="M513.119 274.439L519.157 291.984L525.226 274.439H529.937L521.844 296.504H516.47L508.377 274.439H513.119Z" fill="#162837"/>
<path d="M542.709 277.885V283.607H550.138V287.021H542.709V292.995H551.086V296.504H538.283V274.407H551.086V277.885H542.709Z" fill="#162837"/>
<path d="M560.774 295.982C560.258 295.488 560 294.871 560 294.134C560 293.396 560.258 292.779 560.774 292.284C561.291 291.789 561.949 291.541 562.75 291.541C563.53 291.541 564.173 291.789 564.678 292.284C565.185 292.779 565.437 293.396 565.437 294.134C565.437 294.871 565.185 295.488 564.678 295.982C564.173 296.479 563.53 296.725 562.75 296.725C561.949 296.725 561.291 296.479 560.774 295.982Z" fill="#162837"/>
<path d="M706.893 295.982C706.376 295.488 706.119 294.871 706.119 294.134C706.119 293.396 706.376 292.779 706.893 292.284C707.409 291.789 708.067 291.541 708.869 291.541C709.649 291.541 710.292 291.789 710.796 292.284C711.303 292.779 711.556 293.396 711.556 294.134C711.556 294.871 711.303 295.488 710.796 295.982C710.292 296.479 709.649 296.725 708.869 296.725C708.067 296.725 707.409 296.479 706.893 295.982Z" fill="#162837"/>
<path d="M603.292 284.618H606.99C608.191 284.618 609.087 284.323 609.677 283.733C610.268 283.143 610.564 282.332 610.564 281.299C610.564 280.266 610.268 279.46 609.677 278.88C609.087 278.301 608.191 278.011 606.99 278.011H603.292V284.618ZM610.246 296.504L605.378 287.906H603.292V296.504H598.866V274.439H607.148C608.856 274.439 610.31 274.739 611.512 275.339C612.711 275.94 613.613 276.751 614.213 277.773C614.814 278.797 615.115 279.939 615.115 281.204C615.115 282.657 614.694 283.97 613.85 285.139C613.007 286.309 611.754 287.115 610.088 287.558L615.367 296.504H610.246Z" fill="#162837"/>
<path d="M637.181 288.854L633.956 279.529L630.731 288.854H637.181ZM638.35 292.3H629.561L628.108 296.505H623.461L631.394 274.408H636.549L644.482 296.505H639.803L638.35 292.3Z" fill="#162837"/>
<path d="M672.017 296.504H667.592L657.571 281.363V296.504H653.145V274.407H657.571L667.592 289.581V274.407H672.017V296.504Z" fill="#162837"/>
<path d="M694.524 296.504L686.495 286.672V296.504H682.069V274.439H686.495V284.333L694.524 274.439H699.865L690.762 285.377L700.118 296.504H694.524Z" fill="#162837"/>
<path d="M763.289 274.439V296.504H758.863V287.052H749.411V296.504H744.986V274.439H749.411V283.575H758.863V274.439H763.289Z" fill="#162837"/>
<path d="M777.768 296.505H773.342V274.44H777.768V296.505Z" fill="#162837"/>
<path d="M788.215 279.608C789.196 277.89 790.543 276.552 792.262 275.593C793.979 274.634 795.892 274.155 798 274.155C800.486 274.155 802.647 274.761 804.48 275.972C806.313 277.184 807.578 278.886 808.273 281.077H803.184C802.678 280.15 801.983 279.444 801.098 278.96C800.213 278.475 799.179 278.233 798 278.233C796.692 278.233 795.534 278.528 794.522 279.117C793.509 279.708 792.72 280.551 792.151 281.646C791.582 282.742 791.297 284.007 791.297 285.44C791.297 286.915 791.587 288.202 792.166 289.297C792.746 290.393 793.553 291.236 794.585 291.826C795.618 292.415 796.819 292.711 798.189 292.711C799.874 292.711 801.26 292.258 802.347 291.351C803.432 290.445 804.132 289.192 804.448 287.59H796.862V284.239H808.811V288.096C808.515 289.634 807.883 291.057 806.914 292.363C805.944 293.67 804.695 294.718 803.167 295.509C801.639 296.299 799.927 296.694 798.031 296.694C795.902 296.694 793.979 296.215 792.262 295.256C790.543 294.296 789.196 292.964 788.215 291.257C787.236 289.549 786.746 287.61 786.746 285.44C786.746 283.269 787.236 281.325 788.215 279.608Z" fill="#162837"/>
<path d="M836.092 274.439V296.504H831.666V287.052H822.214V296.504H817.788V274.439H822.214V283.575H831.666V274.439H836.092Z" fill="#162837"/>
<path d="M850.571 277.885V283.607H858V287.021H850.571V292.995H858.948V296.504H846.145V274.407H858.948V277.885H850.571Z" fill="#162837"/>
<path d="M873.078 284.618H876.777C877.978 284.618 878.873 284.323 879.464 283.733C880.054 283.143 880.35 282.332 880.35 281.299C880.35 280.266 880.054 279.46 879.464 278.88C878.873 278.301 877.978 278.011 876.777 278.011H873.078V284.618ZM880.033 296.504L875.164 287.906H873.078V296.504H868.653V274.439H876.934C878.642 274.439 880.096 274.739 881.298 275.339C882.498 275.94 883.399 276.751 883.999 277.773C884.6 278.797 884.901 279.939 884.901 281.204C884.901 282.657 884.48 283.97 883.637 285.139C882.794 286.309 881.54 287.115 879.874 287.558L885.154 296.504H880.033Z" fill="#162837"/>
<path d="M894.59 295.982C894.074 295.488 893.816 294.871 893.816 294.134C893.816 293.396 894.074 292.779 894.59 292.284C895.107 291.789 895.765 291.541 896.566 291.541C897.346 291.541 897.989 291.789 898.494 292.284C899.001 292.779 899.253 293.396 899.253 294.134C899.253 294.871 899.001 295.488 898.494 295.982C897.989 296.479 897.346 296.725 896.566 296.725C895.765 296.725 895.107 296.479 894.59 295.982Z" fill="#162837"/>
<path d="M201.377 228.751L193.267 205.296L185.156 228.751H201.377ZM204.319 237.418H182.216L178.557 247.992H166.87L186.827 192.415H199.787L219.744 247.992H207.976L204.319 237.418Z" fill="#FF772D"/>
<path d="M275.782 192.495V226.763C275.782 230.528 276.762 233.402 278.724 235.39C280.683 237.378 283.441 238.372 286.992 238.372C290.597 238.372 293.38 237.378 295.341 235.39C297.302 233.402 298.283 230.528 298.283 226.763V192.495H309.495V226.763C309.495 231.482 308.473 235.47 306.432 238.73C304.392 241.989 301.662 244.442 298.244 246.085C294.824 247.728 291.02 248.549 286.834 248.549C282.7 248.549 278.948 247.728 275.584 246.085C272.217 244.442 269.553 241.989 267.593 238.73C265.631 235.47 264.651 231.482 264.651 226.763V192.495H275.782Z" fill="#FF772D"/>
<path d="M386.883 233.999C390.089 230.713 391.693 226.155 391.693 220.323C391.693 214.546 390.102 210.014 386.922 206.727C383.742 203.441 379.236 201.798 373.405 201.798H365.535V238.928H373.405C379.182 238.928 383.675 237.286 386.883 233.999ZM389.188 195.913C393.614 198.194 397.032 201.44 399.445 205.653C401.856 209.868 403.062 214.758 403.062 220.323C403.062 225.889 401.856 230.752 399.445 234.914C397.032 239.075 393.614 242.295 389.188 244.574C384.762 246.853 379.634 247.992 373.803 247.992H354.403V192.495H373.803C379.634 192.495 384.762 193.635 389.188 195.913Z" fill="#FF772D"/>
<path d="M459.101 247.992H447.969V192.494H459.101V247.992Z" fill="#FF772D"/>
<path d="M544.717 192.495V201.24H529.929V247.993H518.797V201.24H504.009V192.495H544.717Z" fill="#FF772D"/>
<path d="M626.914 236.026C629.458 234.515 631.446 232.396 632.877 229.666C634.308 226.936 635.024 223.742 635.024 220.085C635.024 216.427 634.308 213.234 632.877 210.504C631.446 207.774 629.458 205.667 626.914 204.183C624.369 202.7 621.427 201.957 618.089 201.957C614.749 201.957 611.793 202.7 609.223 204.183C606.651 205.667 604.651 207.774 603.22 210.504C601.789 213.234 601.073 216.427 601.073 220.085C601.073 223.742 601.789 226.936 603.22 229.666C604.651 232.396 606.651 234.515 609.223 236.026C611.793 237.537 614.749 238.292 618.089 238.292C621.427 238.292 624.369 237.537 626.914 236.026ZM603.777 244.891C599.43 242.455 595.984 239.075 593.44 234.754C590.897 230.434 589.623 225.544 589.623 220.085C589.623 214.678 590.897 209.815 593.44 205.494C595.984 201.175 599.43 197.795 603.777 195.356C608.122 192.92 612.892 191.7 618.089 191.7C623.336 191.7 628.119 192.92 632.439 195.356C636.759 197.795 640.178 201.175 642.696 205.494C645.214 209.815 646.472 214.678 646.472 220.085C646.472 225.544 645.214 230.434 642.696 234.754C640.178 239.075 636.745 242.455 632.4 244.891C628.053 247.33 623.282 248.549 618.089 248.549C612.892 248.549 608.122 247.33 603.777 244.891Z" fill="#FF772D"/>
<path d="M702.512 218.097H711.815C714.836 218.097 717.089 217.355 718.573 215.87C720.056 214.388 720.799 212.346 720.799 209.748C720.799 207.152 720.056 205.125 718.573 203.666C717.089 202.209 714.836 201.479 711.815 201.479H702.512V218.097ZM720.004 247.992L707.759 226.366H702.512V247.992H691.38V192.495H712.212C716.505 192.495 720.163 193.251 723.184 194.761C726.205 196.272 728.472 198.312 729.982 200.882C731.493 203.455 732.249 206.329 732.249 209.51C732.249 213.168 731.188 216.466 729.068 219.409C726.947 222.351 723.793 224.378 719.606 225.491L732.885 247.992H720.004Z" fill="#FF772D"/>
<mask id="mask2_2_59" style="mask-type:luminance" maskUnits="userSpaceOnUse" x="0" y="215" width="117" height="10">
<path d="M4.17421 215.86C1.90821 215.86 0 217.768 0 220.153C0 222.419 1.90821 224.328 4.17421 224.328H112.227C114.612 224.328 116.52 222.419 116.52 220.153C116.52 217.768 114.612 215.86 112.227 215.86H4.17421Z" fill="white"/>
</mask>
<g mask="url(#mask2_2_59)">
<path d="M-2732.2 -1269.56H1389.54V2852.17H-2732.2V-1269.56Z" fill="url(#paint2_linear_2_59)"/>
</g>
<mask id="mask3_2_59" style="mask-type:luminance" maskUnits="userSpaceOnUse" x="782" y="215" width="117" height="10">
<path d="M786.541 215.86C784.156 215.86 782.248 217.768 782.248 220.153C782.248 222.419 784.156 224.328 786.541 224.328H894.474C896.86 224.328 898.768 222.419 898.768 220.153C898.768 217.768 896.86 215.86 894.474 215.86H786.541Z" fill="white"/>
</mask>
<g mask="url(#mask3_2_59)">
<path d="M-2732.2 -1269.56H1389.54V2852.17H-2732.2V-1269.56Z" fill="url(#paint3_linear_2_59)"/>
</g>
<defs>
<linearGradient id="paint0_linear_2_59" x1="-2.85324" y1="17.0227" x2="239.981" y2="193.172" gradientUnits="userSpaceOnUse">
<stop stop-color="#1E78C2"/>
<stop offset="0.686905" stop-color="#1440A2"/>
<stop offset="1" stop-color="#102794"/>
</linearGradient>
<linearGradient id="paint1_linear_2_59" x1="201.573" y1="34.1328" x2="359.271" y2="148.525" gradientUnits="userSpaceOnUse">
<stop stop-color="#1E78C2"/>
<stop offset="0.686905" stop-color="#1440A2"/>
<stop offset="1" stop-color="#102794"/>
</linearGradient>
<linearGradient id="paint2_linear_2_59" x1="-0.01229" y1="220.124" x2="116.47" y2="220.124" gradientUnits="userSpaceOnUse">
<stop stop-color="#1E78C2"/>
<stop offset="0.686905" stop-color="#1440A2"/>
<stop offset="1" stop-color="#102794"/>
</linearGradient>
<linearGradient id="paint3_linear_2_59" x1="782.257" y1="220.124" x2="898.74" y2="220.124" gradientUnits="userSpaceOnUse">
<stop stop-color="#102694"/>
<stop offset="0.904762" stop-color="#1C70BD"/>
<stop offset="1" stop-color="#1E78C1"/>
</linearGradient>
</defs>
</svg>
