<svg width="500" height="477" viewBox="0 0 500 477" fill="none" xmlns="http://www.w3.org/2000/svg">
<mask id="mask0_2_58" style="mask-type:luminance" maskUnits="userSpaceOnUse" x="0" y="0" width="343" height="426">
<path d="M197.711 2.19358C190.341 3.33423 185.252 8.94982 184.989 16.7589C184.638 26.2352 184.287 35.7114 183.936 45.1877C183.76 51.3297 180.865 55.4536 174.986 57.2085C162.175 60.9814 149.979 66.246 138.222 72.5635C131.465 76.2487 128.043 75.6345 122.516 70.1944C116.286 64.0524 110.144 57.9104 103.914 51.6807C96.9824 44.749 90.3139 44.4857 83.0312 50.8032C70.133 62.1221 58.2877 74.4061 47.4953 87.743C42.8449 93.5341 42.9327 100.378 47.8463 106.081C53.6373 112.925 59.5161 119.594 65.3949 126.35C69.5188 131.088 70.3085 134.686 67.5007 139.862C61.3587 151.269 56.1819 162.939 52.1457 175.223C50.6541 179.873 47.0566 182.681 41.9675 182.944C33.4564 183.295 25.0331 183.646 16.522 183.822C6.78253 183.997 2.04441 188.121 1.16698 197.948C-0.324654 215.936 -0.324622 233.923 0.816038 251.91C1.25475 260.07 6.6948 265.774 14.0652 266.212C22.5763 266.827 30.9996 267.353 39.423 267.879C46.0037 268.318 48.8114 271.126 50.9173 277.268C54.8657 288.762 59.1651 300.081 63.8155 311.225C66.4478 317.718 66.5355 321.227 61.9729 326.492C57.147 332.02 52.2334 337.46 47.4076 342.9C42.143 348.779 41.441 355.886 46.3546 362.115C57.6735 376.418 70.0453 389.93 84.1719 401.6C89.8752 406.338 96.7191 406.426 102.861 402.214C107.424 399.143 111.899 395.809 116.461 392.65C123.042 388 128.482 388 135.063 392.475C147.61 401.161 160.772 408.619 174.986 414.235C188.674 419.587 202.713 423.536 217.278 425.203C219.208 425.378 222.367 426.607 222.806 423.536C223.245 420.728 220.086 420.991 218.243 420.64C199.993 416.955 183.058 409.935 167.089 400.547C141.644 385.631 121.199 365.625 105.23 340.794C86.8919 312.277 77.0647 281.304 76.8892 256.21C77.0647 228.658 79.4337 212.338 85.4003 195.228C104.265 140.564 140.591 102.747 195.43 83.5314C229.65 71.5106 264.484 70.8964 299.405 80.5481C312.128 84.0579 324.324 88.9714 335.907 95.2889C337.749 96.3419 339.592 97.5703 341.522 95.7277C343.452 93.7096 343.014 91.2527 341.698 89.2347C340.557 87.5675 339.065 85.9882 337.486 84.9353C330.203 80.1972 323.184 75.0203 315.462 71.3351C304.144 65.9828 292.298 61.5956 280.628 57.2085C274.311 54.7517 271.854 52.1194 271.503 45.3631C270.977 35.6237 270.538 25.7965 270.099 16.057C269.748 8.42337 265.186 3.24651 257.464 2.10585C247.637 0.701966 237.81 0 227.983 0C217.892 0 207.802 0.701944 197.711 2.19358Z" fill="white"/>
</mask>
<g mask="url(#mask0_2_58)">
<path d="M569.071 -2107.34L3997.26 379.432L1510.49 3807.62L-1917.7 1320.85L569.071 -2107.34Z" fill="url(#paint0_linear_2_58)"/>
</g>
<path fill-rule="evenodd" clip-rule="evenodd" d="M500 440.725C499.934 468.054 471.737 485.099 449.712 472.291C443.795 468.851 439.017 463.314 434.053 458.398C417.858 442.356 401.833 426.14 385.709 410.025C379.078 403.396 378.844 397.785 385.315 391.154C395.008 381.221 404.814 371.396 414.578 361.532C419.877 356.178 425.439 355.932 431.095 361.145C436.144 365.796 440.931 370.732 445.824 375.552C461.025 390.523 476.22 405.499 491.421 420.47C497.534 426.489 499.531 434.116 500 440.725Z" fill="#0C1B2D"/>
<path fill-rule="evenodd" clip-rule="evenodd" d="M391.473 157.607C388.986 155.014 386.83 152.867 384.789 150.617C381.729 147.242 382.265 144.641 386.532 143.552C399.417 140.265 412.338 137.12 425.282 134.081C429.37 133.121 431.648 135.495 430.424 139.536C426.485 152.538 422.393 165.494 418.196 178.414C417.039 181.977 414.613 182.284 411.968 179.492C410.077 177.494 408.276 175.41 405.951 172.826C401.336 176.523 396.861 179.95 392.56 183.582C367.885 204.416 343.253 225.298 318.607 246.165C318.16 246.542 317.721 246.927 317.272 247.303C308.877 254.338 306.621 254.552 296.991 249.135C285.147 242.472 273.283 235.843 261.5 229.072C259.044 227.661 257.122 227.408 254.768 229.301C231.877 247.701 208.921 266.021 185.998 284.381C183.034 286.756 180.198 289.292 177.217 291.646C173.88 294.282 169.977 294.222 167.754 291.645C165.434 288.953 166.061 285.783 169.582 282.556C195.864 258.465 222.146 234.37 248.441 210.292C253.815 205.37 258.286 205.062 264.676 208.791C276.919 215.934 289.204 223.004 301.495 230.065C305.626 232.438 306.668 232.186 310.39 228.929C333.593 208.627 356.831 188.367 380.03 168.062C383.757 164.8 387.348 161.383 391.473 157.607Z" fill="#FF772D"/>
<mask id="mask1_2_58" style="mask-type:luminance" maskUnits="userSpaceOnUse" x="248" y="273" width="52" height="98">
<path d="M258.517 273.232C251.147 273.232 248.866 275.513 248.778 282.971C248.69 310.259 248.515 337.635 248.427 364.923C248.427 366.766 248.778 368.608 248.953 370.714C266.59 371.416 282.998 368.257 299.142 361.677C299.142 359.834 299.142 358.255 299.142 356.675C299.055 332.107 299.055 307.539 298.967 282.971C298.967 275.776 296.51 273.144 289.227 273.144C287.472 273.144 285.63 273.144 283.875 273.144C275.452 273.144 267.028 273.232 258.517 273.232Z" fill="white"/>
</mask>
<g mask="url(#mask1_2_58)">
<path d="M1622.93 -2065.63L3955.55 1433.3L456.628 3765.91L-1875.99 266.988L1622.93 -2065.63Z" fill="url(#paint1_linear_2_58)"/>
</g>
<mask id="mask2_2_58" style="mask-type:luminance" maskUnits="userSpaceOnUse" x="318" y="227" width="52" height="124">
<path d="M361.528 229.009C348.717 239.626 336.082 250.506 323.272 261.123C320.113 263.755 319.06 266.739 319.06 270.687C319.06 295.782 318.972 320.964 318.884 346.146C318.884 347.375 318.972 348.691 319.148 350.884C320.815 349.919 321.868 349.48 322.745 348.866C343.102 334.827 357.491 316.05 366.529 293.149C367.933 289.815 369.249 286.13 369.249 282.62C369.512 265.949 369.424 249.278 369.161 232.607C369.161 230.852 368.196 228.22 366.88 227.605C366.617 227.43 366.266 227.342 365.827 227.342C364.511 227.342 362.58 228.132 361.528 229.009Z" fill="white"/>
</mask>
<g mask="url(#mask2_2_58)">
<path d="M1622.93 -2065.63L3955.55 1433.3L456.627 3765.91L-1875.99 266.988L1622.93 -2065.63Z" fill="url(#paint2_linear_2_58)"/>
</g>
<mask id="mask3_2_58" style="mask-type:luminance" maskUnits="userSpaceOnUse" x="180" y="306" width="51" height="62">
<path d="M219.735 306.925C209.82 306.925 199.905 307.101 189.99 307.276C183.146 307.452 180.777 309.821 180.689 316.577C180.689 325.263 180.865 333.862 180.689 342.461C180.601 345.708 181.918 347.638 184.462 349.305C196.483 357.29 209.381 363.344 223.42 366.766C225.35 367.205 227.368 367.468 229.737 367.819C229.913 365.625 230.001 363.958 230.001 362.203C230.001 347.111 230.001 332.107 230.001 317.016C230.001 309.47 227.632 306.925 219.998 306.925C219.91 306.925 219.823 306.925 219.735 306.925Z" fill="white"/>
</mask>
<g mask="url(#mask3_2_58)">
<path d="M1622.93 -2065.63L3955.55 1433.3L456.628 3765.91L-1875.99 266.988L1622.93 -2065.63Z" fill="url(#paint3_linear_2_58)"/>
</g>
<path fill-rule="evenodd" clip-rule="evenodd" d="M414.194 249.056C414.194 281.662 404.516 312.003 387.88 337.37C379.965 349.434 370.48 360.367 359.723 369.887C331.277 395.043 293.889 410.31 252.931 410.31C163.872 410.31 91.6769 338.115 91.6769 249.056C91.6769 159.997 163.872 87.8021 252.931 87.8021C299.558 87.8021 341.569 107.597 371.016 139.237C367.506 142.808 367.243 148.485 370.445 152.381L373.42 156.005L360.478 166.543C335.699 134.297 296.741 113.511 252.931 113.511C178.077 113.511 117.386 174.194 117.386 249.056C117.386 323.919 178.077 384.602 252.931 384.602C327.793 384.602 388.476 323.919 388.476 249.056C388.476 235.412 386.458 222.242 382.712 209.818L403.989 192.497C410.588 210.098 414.194 229.156 414.194 249.056Z" fill="#0C1C2D"/>
<mask id="mask4_2_58" style="mask-type:luminance" maskUnits="userSpaceOnUse" x="359" y="337" width="46" height="47">
<path d="M359.685 369.925L374.777 383.876L404.434 353.78L387.85 337.372C379.954 349.393 370.477 360.361 359.685 369.925Z" fill="white"/>
</mask>
<g mask="url(#mask4_2_58)">
<path d="M569.071 -2107.34L3997.26 379.432L1510.49 3807.62L-1917.7 1320.85L569.071 -2107.34Z" fill="url(#paint4_linear_2_58)"/>
</g>
<defs>
<linearGradient id="paint0_linear_2_58" x1="39.5736" y1="105.489" x2="398.184" y2="365.621" gradientUnits="userSpaceOnUse">
<stop stop-color="#1E78C2"/>
<stop offset="0.686905" stop-color="#1440A2"/>
<stop offset="1" stop-color="#102794"/>
</linearGradient>
<linearGradient id="paint1_linear_2_58" x1="247.691" y1="285.185" x2="300.543" y2="364.463" gradientUnits="userSpaceOnUse">
<stop stop-color="#1E78C2"/>
<stop offset="0.686905" stop-color="#1440A2"/>
<stop offset="1" stop-color="#102794"/>
</linearGradient>
<linearGradient id="paint2_linear_2_58" x1="311.936" y1="242.354" x2="364.789" y2="321.633" gradientUnits="userSpaceOnUse">
<stop stop-color="#1E78C2"/>
<stop offset="0.686905" stop-color="#1440A2"/>
<stop offset="1" stop-color="#102794"/>
</linearGradient>
<linearGradient id="paint3_linear_2_58" x1="198.32" y1="318.098" x2="251.172" y2="397.377" gradientUnits="userSpaceOnUse">
<stop stop-color="#1E78C2"/>
<stop offset="0.686905" stop-color="#1440A2"/>
<stop offset="1" stop-color="#102794"/>
</linearGradient>
<linearGradient id="paint4_linear_2_58" x1="371.821" y1="353.747" x2="389.705" y2="366.72" gradientUnits="userSpaceOnUse">
<stop stop-color="#1E78C2"/>
<stop offset="0.686905" stop-color="#1440A2"/>
<stop offset="1" stop-color="#102794"/>
</linearGradient>
</defs>
</svg>
