<?xml version="1.0" standalone="no"?>
<!DOCTYPE svg PUBLIC "-//W3C//DTD SVG 20010904//EN"
 "http://www.w3.org/TR/2001/REC-SVG-20010904/DTD/svg10.dtd">
<svg version="1.0" xmlns="http://www.w3.org/2000/svg"
 width="512.000000pt" height="512.000000pt" viewBox="0 0 512.000000 512.000000"
 preserveAspectRatio="xMidYMid meet">

<g transform="translate(0.000000,512.000000) scale(0.100000,-0.100000)"
fill="#000000" stroke="none">
<path d="M2710 4675 c-227 -32 -438 -95 -640 -191 -570 -272 -993 -787 -1149
-1397 -87 -339 -87 -715 0 -1054 219 -856 954 -1494 1834 -1593 136 -15 269
-13 313 6 49 20 90 60 113 109 17 36 19 70 19 355 0 312 0 315 -24 367 -20 43
-37 60 -98 100 -110 72 -182 152 -233 258 -40 81 -52 125 -70 248 l-6 37 -335
0 c-390 0 -437 6 -583 76 -165 80 -292 232 -337 405 -22 83 -22 234 -1 316 47
180 176 336 341 416 126 62 173 67 565 67 l350 0 6 38 c18 123 30 166 70 249
53 107 121 183 233 256 61 40 78 57 98 100 24 51 24 55 24 365 0 340 -2 356
-58 416 -50 53 -94 66 -222 65 -63 -1 -158 -7 -210 -14z"/>
<path d="M3325 3393 c-107 -56 -153 -177 -106 -278 11 -24 79 -100 165 -185
80 -80 146 -148 146 -152 0 -5 -326 -8 -725 -8 -695 0 -727 -1 -763 -19 -162
-83 -162 -299 0 -382 36 -18 68 -19 763 -19 399 0 725 -3 725 -8 0 -4 -66 -72
-146 -152 -154 -153 -183 -196 -184 -268 -1 -150 158 -255 298 -197 48 20 714
683 744 740 28 54 28 136 0 190 -30 58 -696 720 -744 740 -48 19 -134 19 -173
-2z"/>
</g>
</svg>
