<?xml version="1.0" standalone="no"?>
<!DOCTYPE svg PUBLIC "-//W3C//DTD SVG 20010904//EN"
 "http://www.w3.org/TR/2001/REC-SVG-20010904/DTD/svg10.dtd">
<svg version="1.0" xmlns="http://www.w3.org/2000/svg"
 width="512.000000pt" height="512.000000pt" viewBox="0 0 512.000000 512.000000"
 preserveAspectRatio="xMidYMid meet">

<g transform="translate(0.000000,512.000000) scale(0.100000,-0.100000)"
fill="#000000" stroke="none">
<path d="M1404 5111 c-47 -12 -133 -62 -160 -94 -14 -17 -37 -53 -52 -81 l-27
-51 0 -2325 0 -2325 27 -51 c40 -76 70 -107 140 -145 l63 -34 1165 0 1165 0
63 34 c70 38 100 69 140 145 l27 51 0 2325 0 2325 -34 63 c-38 70 -69 100
-145 140 l-51 27 -1145 2 c-630 0 -1159 -2 -1176 -6z m2322 -177 c15 -11 37
-33 48 -48 21 -27 21 -35 24 -1056 l2 -1028 -62 -16 c-35 -10 -592 -153 -1238
-319 l-1175 -303 -3 1321 c-1 726 0 1334 3 1352 7 40 49 91 90 109 24 11 235
13 1157 11 1121 -2 1127 -2 1154 -23z m-728 -2910 c12 -8 32 -35 45 -59 16
-32 37 -54 77 -77 94 -57 94 -118 0 -175 -39 -23 -61 -45 -77 -77 -52 -103
-121 -101 -180 4 -19 34 -39 54 -65 66 -51 23 -81 58 -81 94 0 36 30 71 81 94
26 12 46 32 65 66 43 77 87 98 135 64z m-625 -275 c8 -13 3 -28 -21 -64 -48
-73 -65 -134 -60 -223 7 -137 79 -247 204 -308 52 -26 70 -29 149 -29 92 0
142 16 228 72 30 19 59 11 65 -20 6 -27 -50 -126 -102 -182 -146 -157 -369
-198 -561 -103 -82 40 -136 87 -184 159 -159 238 -79 560 174 693 54 29 92 31
108 5z m442 -1294 c16 -15 25 -36 25 -55 0 -19 -9 -40 -25 -55 l-24 -25 -231
0 -231 0 -24 25 c-16 15 -25 36 -25 55 0 19 9 40 25 55 l24 25 231 0 231 0 24
-25z"/>
<path d="M2505 4775 c-50 -49 -15 -135 55 -135 19 0 40 9 55 25 16 15 25 36
25 55 0 19 -9 40 -25 55 -15 16 -36 25 -55 25 -19 0 -40 -9 -55 -25z"/>
<path d="M2505 4455 c-24 -23 -25 -31 -25 -135 0 -104 1 -112 25 -135 15 -16
36 -25 55 -25 19 0 40 9 55 25 24 23 25 31 25 135 0 104 -1 112 -25 135 -15
16 -36 25 -55 25 -19 0 -40 -9 -55 -25z"/>
<path d="M1974 4242 c-39 -6 -59 -40 -55 -95 1 -25 125 -152 162 -168 36 -14
70 -2 95 35 25 39 11 71 -63 147 -65 68 -99 88 -139 81z"/>
<path d="M3094 4235 c-46 -20 -152 -135 -160 -172 -5 -27 -1 -37 24 -63 34
-34 51 -37 90 -16 37 20 139 125 150 156 24 62 -42 122 -104 95z"/>
<path d="M2466 3990 c-63 -16 -153 -70 -197 -117 -22 -24 -55 -74 -72 -111
-29 -61 -32 -76 -32 -163 0 -90 2 -99 37 -171 45 -91 103 -147 196 -191 61
-29 76 -32 162 -32 86 0 101 3 162 32 93 44 151 100 196 191 35 72 37 81 37
172 0 91 -2 100 -37 172 -68 136 -188 217 -336 224 -42 2 -94 -1 -116 -6z"/>
<path d="M1705 3655 c-16 -15 -25 -36 -25 -55 0 -19 9 -40 25 -55 23 -24 31
-25 135 -25 104 0 112 1 135 25 16 15 25 36 25 55 0 19 -9 40 -25 55 -23 24
-31 25 -135 25 -104 0 -112 -1 -135 -25z"/>
<path d="M3145 3655 c-16 -15 -25 -36 -25 -55 0 -19 9 -40 25 -55 23 -24 31
-25 135 -25 104 0 112 1 135 25 16 15 25 36 25 55 0 19 -9 40 -25 55 -23 24
-31 25 -135 25 -104 0 -112 -1 -135 -25z"/>
<path d="M2065 3211 c-43 -27 -132 -121 -143 -151 -14 -39 0 -73 37 -92 45
-22 71 -11 144 60 60 58 87 98 87 127 0 22 -54 75 -77 75 -10 0 -31 -9 -48
-19z"/>
<path d="M2959 3201 c-33 -33 -35 -50 -15 -89 20 -37 125 -139 156 -150 59
-22 120 39 98 98 -11 31 -113 136 -150 156 -39 20 -56 18 -89 -15z"/>
<path d="M2505 3015 c-24 -23 -25 -31 -25 -135 0 -104 1 -112 25 -135 15 -16
36 -25 55 -25 19 0 40 9 55 25 24 23 25 31 25 135 0 104 -1 112 -25 135 -15
16 -36 25 -55 25 -19 0 -40 -9 -55 -25z"/>
</g>
</svg>
